<svg width="99" height="97" viewBox="0 0 99 97" fill="none" xmlns="http://www.w3.org/2000/svg">
<path d="M56.5632 14.1056V9.85458H60.6061C61.3949 9.85458 62.0852 9.17829 62.0852 8.40538V1.4492C62.0852 0.676295 61.3949 0 60.6061 0H43.3501C42.5613 0 41.871 0.676295 41.871 1.4492V8.40538C41.871 9.17829 42.5613 9.85458 43.3501 9.85458H47.3929V14.1056C37.8282 15.1683 29.3481 19.5159 22.9387 25.8924L21.2624 24.25L24.0234 21.5448C24.615 20.9651 24.615 20.0956 24.0234 19.5159L18.3043 13.9123C17.7126 13.3327 16.8252 13.3327 16.2336 13.9123L8.44373 21.3516C7.85209 21.9313 7.85209 22.8008 8.44373 23.3805L14.1628 28.9841C14.4587 29.2739 14.8531 29.3705 15.2475 29.3705C15.6419 29.3705 16.0364 29.2739 16.3322 28.9841L19.1917 26.1823L21.0652 28.0179C15.1489 34.8775 11.5991 43.7659 11.5991 53.4273C11.5991 75.2619 29.7425 93.0388 52.0274 93.0388C74.3123 93.0388 92.4557 75.2619 92.4557 53.4273C92.3571 33.1384 76.6788 16.3277 56.5632 14.1056ZM15.2475 25.989L11.5991 22.3177L17.121 16.9074L20.7694 20.4821L18.6001 22.6076C18.3043 22.8974 17.9099 23.2839 17.5154 23.6703L15.2475 25.989ZM48.872 6.95618H44.8292V2.89841H59.127V6.95618H55.0842C54.2953 6.95618 53.6051 7.63247 53.6051 8.40538V13.9123C53.1121 13.9123 52.5204 13.9123 52.0274 13.9123C51.5344 13.9123 50.9427 13.9123 50.4497 13.9123V8.40538C50.3511 7.53586 49.6609 6.95618 48.872 6.95618ZM51.9288 90.1404C31.3202 90.1404 14.4587 73.7161 14.4587 53.4273C14.4587 33.1384 31.2216 16.7141 51.9288 16.7141C52.7176 16.7141 53.5065 16.7141 54.2953 16.8108C54.6897 16.8108 55.0842 16.9074 55.4786 16.9074C74.5095 18.6464 89.3989 34.3944 89.3989 53.4273C89.3989 73.7161 72.636 90.1404 51.9288 90.1404Z" fill="#E5D2FF"/>
<path d="M73.2274 29.6604C73.1288 29.5638 73.0302 29.4672 72.9316 29.3706C67.3111 24.6365 60.0143 21.8347 52.0272 21.8347C34.1796 21.8347 19.7832 36.0369 19.7832 53.4273C19.7832 70.8178 34.1796 85.1166 51.9286 85.1166C69.6776 85.1166 84.1726 70.9144 84.1726 53.524C84.2712 43.9592 79.9326 35.4572 73.2274 29.6604ZM51.9286 82.2182C35.7573 82.2182 22.6428 69.3686 22.6428 53.524C22.6428 37.6793 35.7573 24.8297 51.9286 24.8297C58.7324 24.8297 64.9446 27.1485 69.8748 30.9164L53.9007 48.8865C53.3091 48.6933 52.6189 48.5001 52.0272 48.5001C49.2663 48.5001 46.9983 50.7222 46.9983 53.4273C46.9983 56.1325 49.2663 58.3546 52.0272 58.3546C54.7882 58.3546 56.9575 56.1325 56.9575 53.4273C56.9575 52.4612 56.6617 51.4951 56.1687 50.7222L72.2414 32.6554C77.8619 37.8726 81.3131 45.2152 81.3131 53.4273C81.3131 69.272 68.0999 82.2182 51.9286 82.2182ZM53.9993 53.4273C53.9993 54.5867 53.1119 55.4562 51.9286 55.4562C50.7454 55.4562 49.8579 54.5867 49.8579 53.4273C49.8579 52.3646 50.7454 51.3985 51.9286 51.3985C53.1119 51.3985 53.9993 52.3646 53.9993 53.4273Z" fill="#E5D2FF"/>
</svg>
