<svg width="70" height="75" viewBox="0 0 70 75" fill="none" xmlns="http://www.w3.org/2000/svg">
<path fill-rule="evenodd" clip-rule="evenodd" d="M36.2466 40C36.2466 41.3788 37.3678 42.5 38.7466 42.5C40.1253 42.5 41.2466 41.3788 41.2466 40C41.2466 38.6212 40.1253 37.5 38.7466 37.5C37.3678 37.5 36.2466 38.6212 36.2466 40ZM36.2466 28.75C36.2466 27.3712 35.1253 26.25 33.7466 26.25C32.3678 26.25 31.2466 27.3712 31.2466 28.75C31.2466 30.1288 32.3678 31.25 33.7466 31.25C35.1253 31.25 36.2466 30.1288 36.2466 28.75ZM31.2466 45C30.5566 45 29.9966 45.5613 29.9966 46.25C29.9966 46.9387 30.5566 47.5 31.2466 47.5C31.9366 47.5 32.4966 46.9387 32.4966 46.25C32.4966 45.5613 31.9366 45 31.2466 45ZM31.2466 42.5C33.3141 42.5 34.9966 44.1825 34.9966 46.25C34.9966 48.3175 33.3141 50 31.2466 50C29.1791 50 27.4966 48.3175 27.4966 46.25C27.4966 44.1825 29.1791 42.5 31.2466 42.5ZM69.5653 72.7575C68.8003 74.2038 67.1778 75 64.9966 75H4.99655C2.0703 75 0.887801 73.575 0.444051 72.725C-0.402199 71.1063 -0.0284489 68.9413 1.4703 66.7863L23.9566 33.0562C23.9566 33.0562 24.9966 31.3862 24.9966 28.75V11.25C24.9966 10.56 25.5553 10 26.2466 10C26.9378 10 27.4966 10.56 27.4966 11.25V28.75C27.4966 32.1687 26.1028 34.3425 26.0428 34.4338L12.1291 55.3038C16.1391 55.8663 25.9391 56.9137 33.4441 55.0375C43.6291 52.4925 53.6291 54.9325 54.0491 55.0375C54.7191 55.205 55.1265 55.8825 54.959 56.5525C54.7915 57.2213 54.1091 57.6263 53.4441 57.4625C53.3478 57.44 43.614 55.0738 34.049 57.4625C30.5815 58.33 26.7228 58.6188 23.1253 58.6188C17.464 58.6188 12.4478 57.905 10.5953 57.6062L3.53655 68.1938C2.5878 69.5575 2.26405 70.8113 2.6603 71.5675C3.08405 72.3788 4.3053 72.5 4.99655 72.5H64.9966C66.1891 72.5 67.0503 72.1675 67.3553 71.5887C67.7416 70.8575 67.4091 69.5912 66.4641 68.2037L43.9566 34.4438C43.8966 34.3538 42.4966 32.2137 42.4966 28.75V6.25C42.4966 5.56 43.0553 5 43.7466 5H44.9966V2.5H24.9966V5H38.7466C39.4378 5 39.9966 5.56 39.9966 6.25C39.9966 6.94 39.4378 7.5 38.7466 7.5H24.9966C23.6178 7.5 22.4966 6.37875 22.4966 5V2.5C22.4966 1.12125 23.6178 0 24.9966 0H44.9966C46.3753 0 47.4966 1.12125 47.4966 2.5V5C47.4966 6.37875 46.3753 7.5 44.9966 7.5V28.75C44.9966 31.4213 46.0253 33.0412 46.0366 33.0562L68.5366 66.8062C70.0503 69.0275 70.4178 71.145 69.5653 72.7575Z" fill="white"/>
</svg>
