<svg width="82" height="81" viewBox="0 0 82 81" fill="none" xmlns="http://www.w3.org/2000/svg">
<path fill-rule="evenodd" clip-rule="evenodd" d="M65.2407 32.1788C65.2407 18.2045 56.1206 5.95987 42.5492 1.71175C41.8329 1.48389 41.0677 1.87299 40.8393 2.5739C40.611 3.27615 41.0065 4.02503 41.7214 4.24889C54.1634 8.14522 62.5224 19.3691 62.5224 32.1788C62.5224 48.3437 49.1086 61.4945 32.6204 61.4945C16.1321 61.4945 2.71836 48.3437 2.71836 32.1788C2.71836 19.3691 11.0773 8.14389 23.5193 4.24889C24.2342 4.02503 24.6297 3.27615 24.4014 2.57523C24.1717 1.87299 23.4051 1.48123 22.6929 1.71175C9.11875 5.95987 0 18.2045 0 32.1788C0 49.8122 14.6343 64.1595 32.6204 64.1595C50.6064 64.1595 65.2407 49.8122 65.2407 32.1788ZM10.4005 19.2172C9.73854 18.8734 8.91487 19.1226 8.56284 19.7716C6.51728 23.5653 5.43673 27.856 5.43673 32.1788C5.43673 46.8739 17.6313 58.8294 32.6204 58.8294C47.6094 58.8294 59.804 46.8739 59.804 32.1788C59.804 21.196 53.0652 11.4765 42.6362 7.41899C41.9403 7.14982 41.1479 7.48295 40.8706 8.16521C40.5947 8.85013 40.9358 9.62433 41.6331 9.89616C51.0196 13.5486 57.0856 22.2954 57.0856 32.1788C57.0856 45.4041 46.1102 56.1643 32.6204 56.1643C19.1305 56.1643 8.15509 45.4041 8.15509 32.1788C8.15509 28.2891 9.12691 24.4301 10.9672 21.0188C11.3179 20.3685 11.0637 19.561 10.4005 19.2172ZM50.2897 42.839C51.0413 42.839 51.6489 42.2434 51.6489 41.5065V22.851C51.6489 22.1141 51.0413 21.5185 50.2897 21.5185H42.1346C41.3844 21.5185 40.7754 22.1141 40.7754 22.851V49.5017C40.7754 50.2386 41.3844 50.8342 42.1346 50.8342C42.8863 50.8342 43.4938 50.2386 43.4938 49.5017V24.1836H48.9305V41.5065C48.9305 42.2434 49.5381 42.839 50.2897 42.839ZM28.5428 53.4993C29.2931 53.4993 29.902 52.9036 29.902 52.1667V2.86306H35.3387V52.1667C35.3387 52.9036 35.9476 53.4993 36.6979 53.4993C37.4482 53.4993 38.0571 52.9036 38.0571 52.1667V1.53053C38.0571 0.79364 37.4482 0.197998 36.6979 0.197998H28.5428C27.7925 0.197998 27.1836 0.79364 27.1836 1.53053V52.1667C27.1836 52.9036 27.7925 53.4993 28.5428 53.4993ZM23.1061 10.8583H14.951C14.2007 10.8583 13.5918 11.4539 13.5918 12.1908V41.5065C13.5918 42.2434 14.2007 42.839 14.951 42.839C15.7013 42.839 16.3102 42.2434 16.3102 41.5065V13.5233H21.7469V49.5017C21.7469 50.2386 22.3558 50.8342 23.1061 50.8342C23.8564 50.8342 24.4653 50.2386 24.4653 49.5017V12.1908C24.4653 11.4539 23.8564 10.8583 23.1061 10.8583ZM61.5315 52.9862C61.0014 53.5073 61.0014 54.3508 61.5315 54.8704L64.4157 57.6981C64.6807 57.9593 65.0287 58.0885 65.3766 58.0885C65.7232 58.0885 66.0712 57.9593 66.3376 57.6981C66.8677 57.1784 66.8677 56.3349 66.3376 55.8139L63.4548 52.9862C62.9233 52.4666 62.063 52.4666 61.5315 52.9862ZM81.5509 73.4873C81.5509 75.2675 80.8428 76.9412 79.5597 78.1977C78.2359 79.4983 76.4934 80.1472 74.7536 80.1472C73.0139 80.1472 71.2741 79.4983 69.9503 78.1991L53.844 62.4099C53.3139 61.8889 53.3139 61.0454 53.844 60.5244C54.3754 60.0047 55.2358 60.0047 55.7659 60.5244L71.8722 76.3149C73.4638 77.8726 76.0489 77.8713 77.6378 76.3135C78.4085 75.5593 78.8325 74.5559 78.8325 73.4873C78.8325 72.4199 78.4085 71.4165 77.6378 70.6609L69.0763 62.2673L66.2044 65.099C65.6743 65.6213 64.8167 65.6253 64.2825 65.1043C63.7497 64.5846 63.747 63.7424 64.2771 63.2201L68.11 59.441C68.3655 59.1905 68.7121 59.0479 69.0723 59.0479C69.4338 59.0479 69.7804 59.1892 70.0346 59.4384L79.5597 68.7767C80.8428 70.0347 81.5509 71.7083 81.5509 73.4873Z" fill="white"/>
</svg>
