<svg width="72" height="71" viewBox="0 0 72 71" fill="none" xmlns="http://www.w3.org/2000/svg">
<path fill-rule="evenodd" clip-rule="evenodd" d="M65.7609 58.7248C66.4221 58.7248 66.9565 58.1987 66.9565 57.5503V15.2685C66.9565 14.6201 66.4221 14.094 65.7609 14.094C65.0997 14.094 64.5652 14.6201 64.5652 15.2685V57.5503C64.5652 58.1987 65.0997 58.7248 65.7609 58.7248ZM69.3478 64.5973V63.4228H65.7609C65.0997 63.4228 64.5652 62.8966 64.5652 62.2483C64.5652 61.6 65.0997 61.0738 65.7609 61.0738H69.3478V11.745H65.7609C65.0997 11.745 64.5652 11.2188 64.5652 10.5705C64.5652 9.92215 65.0997 9.39597 65.7609 9.39597H68.6089L65.7609 3.80067L62.1739 10.8476V64.5973C62.1739 66.5399 63.7833 68.1208 65.7609 68.1208C67.7385 68.1208 69.3478 66.5399 69.3478 64.5973ZM71.763 10.5705C71.763 10.6503 71.7547 10.729 71.7391 10.8054V64.5973C71.7391 67.8354 69.0573 70.4698 65.7609 70.4698C62.4645 70.4698 59.7826 67.8354 59.7826 64.5973V10.5705C59.7826 10.3884 59.8257 10.2076 59.9082 10.0455L64.6908 0.649497C65.0973 -0.146812 66.4245 -0.146812 66.831 0.649497L71.5167 9.85637C71.671 10.0549 71.763 10.3015 71.763 10.5705ZM37.0652 35.2349H25.1087C24.4475 35.2349 23.913 35.7611 23.913 36.4094C23.913 37.0577 24.4475 37.5839 25.1087 37.5839H37.0652C37.7264 37.5839 38.2609 37.0577 38.2609 36.4094C38.2609 35.7611 37.7264 35.2349 37.0652 35.2349ZM25.1087 32.8859H32.2826C32.9438 32.8859 33.4783 32.3597 33.4783 31.7114C33.4783 31.0631 32.9438 30.5369 32.2826 30.5369H25.1087C24.4475 30.5369 23.913 31.0631 23.913 31.7114C23.913 32.3597 24.4475 32.8859 25.1087 32.8859ZM19.1304 42.2819H43.0435V25.8389H19.1304V42.2819ZM16.7391 43.4564V24.6644C16.7391 24.0161 17.2736 23.4899 17.9348 23.4899H44.2391C44.9003 23.4899 45.4348 24.0161 45.4348 24.6644V43.4564C45.4348 44.1047 44.9003 44.6309 44.2391 44.6309H17.9348C17.2736 44.6309 16.7391 44.1047 16.7391 43.4564ZM2.3913 10.6726V64.5973C2.3913 66.4742 4.06761 68.1208 5.97826 68.1208H51.413C53.3237 68.1208 55 66.4742 55 64.5973V11.745H5.97826C4.99424 11.745 3.59054 11.4666 2.3913 10.6726ZM56.1957 2.34899H4.78261C3.4638 2.34899 2.3913 3.40252 2.3913 4.69799V5.87248C2.3913 9.18809 5.38522 9.38893 5.98544 9.39597H56.1957C56.8568 9.39597 57.3913 9.92215 57.3913 10.5705V64.5973C57.3913 67.7802 54.6533 70.4698 51.413 70.4698H5.97826C2.73804 70.4698 0 67.7802 0 64.5973V4.69799C0 2.10705 2.145 0 4.78261 0H56.1957C56.8568 0 57.3913 0.526174 57.3913 1.1745C57.3913 1.82282 56.8568 2.34899 56.1957 2.34899ZM5.97826 65.7718C6.63946 65.7718 7.17391 65.2456 7.17391 64.5973V15.2685C7.17391 14.6201 6.63946 14.094 5.97826 14.094C5.31707 14.094 4.78261 14.6201 4.78261 15.2685V64.5973C4.78261 65.2456 5.31707 65.7718 5.97826 65.7718ZM53.8044 4.69799C54.4655 4.69799 55 5.22416 55 5.87248C55 6.5208 54.4655 7.04698 53.8044 7.04698H5.97826C5.31707 7.04698 4.78261 6.5208 4.78261 5.87248C4.78261 5.22416 5.31707 4.69799 5.97826 4.69799H53.8044Z" fill="white"/>
</svg>
