<svg width="350" height="362" viewBox="0 0 350 362" fill="none" xmlns="http://www.w3.org/2000/svg">
<g clip-path="url(#clip0_201_1474)">
<path d="M4.87013 272.722L196.676 161.966C199.369 160.432 201.547 156.244 201.547 152.662V4.26834C201.547 0.678729 199.369 -0.970343 196.676 0.586687L4.87013 111.343C2.17793 112.877 -0.000412175 117.065 -0.000412175 120.647V269.04C-0.0310976 272.63 2.14724 274.279 4.87013 272.722Z" fill="#B1B4C4"/>
<path d="M3.85168 274.255L1.72705 273.028L2.64747 266.73L3.85168 274.255Z" fill="#B1B4C4"/>
<path d="M201.894 1.48531L199.8 0.273438L196.793 1.99154C196.793 1.99154 199.999 2.47476 200.076 2.45942C200.152 2.44408 201.894 1.48531 201.894 1.48531Z" fill="#B1B4C4"/>
<path d="M6.59758 273.774L198.434 162.987C201.127 161.453 203.312 157.265 203.312 153.675V5.32009C203.312 1.73049 201.127 0.0814126 198.434 1.63845L6.59758 112.395C3.90536 113.929 1.72705 118.117 1.72705 121.706V270.061C1.72705 273.643 3.90536 275.308 6.59758 273.774Z" fill="#E4E7F2"/>
<path d="M6.93449 273.934L198.771 163.178C201.463 161.644 203.649 157.456 203.649 153.866V5.47294C203.649 1.89101 201.463 0.241934 198.771 1.7913L6.93449 112.548C4.24995 114.082 2.06396 118.269 2.06396 121.859V270.252C2.06396 273.842 4.24995 275.491 6.93449 273.934Z" fill="#D6D8E5"/>
<path d="M4.70231 264.907L201.226 151.458L201.111 6.08698C201.111 4.59898 200.067 3.99305 198.81 4.73705L6.97265 115.493C6.29914 115.94 5.73999 116.538 5.34028 117.24C4.94058 117.942 4.71153 118.728 4.67163 119.535L4.70231 264.907Z" fill="white"/>
<path opacity="0.5" d="M4.76368 264.914L201.226 151.466L201.164 6.08698C201.164 4.59898 200.121 3.99305 198.863 4.73705L7.02636 115.493C6.35328 115.94 5.79444 116.538 5.39479 117.24C4.99514 117.943 4.76583 118.729 4.72534 119.535L4.76368 264.914Z" fill="url(#paint0_linear_201_1474)"/>
<path opacity="0.4" d="M151.624 360.161L343.461 249.405C346.153 247.871 345.816 245.14 342.694 243.345L214.181 169.145C211.113 167.358 206.373 167.158 203.689 168.715L11.8444 279.472C9.15981 281.006 9.4973 283.736 12.6114 285.531L141.131 359.732C144.238 361.519 148.94 361.718 151.624 360.161Z" fill="#D6D8E5"/>
<path d="M147.434 357.645L339.286 246.928C341.978 245.394 341.641 242.663 338.519 240.868L210.007 166.675C206.939 164.881 202.199 164.681 199.506 166.238L7.6694 276.994C4.9772 278.528 5.31467 281.259 8.4364 283.054L136.934 357.216C140.04 359.003 144.742 359.202 147.434 357.645Z" fill="#B1B4C4"/>
<path d="M341.092 244.388V240.768L337.027 242.47L341.092 244.388Z" fill="#B1B4C4"/>
<path d="M5.85278 279.664V276.128L8.85947 277.163L6.86523 280.093L5.85278 279.664Z" fill="#B1B4C4"/>
<path d="M147.434 354.601L339.286 243.861C341.978 242.327 341.641 239.596 338.519 237.801L210.007 163.601C206.939 161.806 202.199 161.614 199.506 163.171L7.6694 273.927C4.9772 275.461 5.31467 278.192 8.4364 279.987L136.934 354.164C140.04 355.959 144.742 356.158 147.434 354.601Z" fill="#E4E7F2"/>
<path d="M147.434 354.131L339.286 243.374C341.978 241.84 341.641 239.102 338.519 237.315L210.007 163.115C206.939 161.32 202.199 161.128 199.506 162.677L7.6694 273.441C4.9772 274.975 5.31467 277.706 8.4364 279.501L136.934 353.694C140.04 355.488 144.742 355.68 147.434 354.131Z" fill="#D6D8E5"/>
<path d="M213.567 188.144L222.495 182.99C223.262 182.568 223.132 181.832 222.296 181.348L213.767 176.424C213.336 176.184 212.854 176.049 212.361 176.029C211.868 176.009 211.378 176.105 210.929 176.309L201.993 181.463C201.264 181.885 201.356 182.622 202.2 183.105L210.722 188.029C211.154 188.269 211.637 188.404 212.131 188.424C212.625 188.444 213.117 188.348 213.567 188.144Z" fill="#111111"/>
<path d="M200.923 195.446L209.858 190.284C210.587 189.87 210.495 189.133 209.651 188.643L201.13 183.726C200.697 183.486 200.215 183.351 199.72 183.331C199.226 183.311 198.734 183.407 198.284 183.611L189.356 188.765C188.589 189.187 188.719 189.923 189.555 190.407L198.085 195.323C198.514 195.566 198.996 195.704 199.489 195.725C199.982 195.746 200.473 195.651 200.923 195.446Z" fill="#111111"/>
<path d="M188.135 202.832L197.063 197.67C197.83 197.248 197.699 196.512 196.863 196.028L188.334 191.112C187.904 190.869 187.423 190.731 186.93 190.71C186.437 190.689 185.945 190.784 185.496 190.989L176.56 196.151C175.793 196.565 175.924 197.302 176.767 197.793L185.289 202.709C185.722 202.948 186.204 203.083 186.697 203.105C187.191 203.126 187.683 203.033 188.135 202.832Z" fill="#111111"/>
<path d="M175.633 210.042L184.569 204.887C185.298 204.466 185.206 203.729 184.362 203.246L175.841 198.322C175.408 198.082 174.926 197.946 174.431 197.926C173.937 197.906 173.445 198.002 172.995 198.207L164.059 203.361C163.331 203.783 163.423 204.519 164.266 205.002L172.788 209.927C173.22 210.167 173.703 210.302 174.197 210.322C174.691 210.342 175.183 210.246 175.633 210.042Z" fill="#111111"/>
<path d="M162.984 217.343L171.92 212.189C172.687 211.767 172.556 211.031 171.713 210.548L163.191 205.624C162.759 205.384 162.276 205.248 161.782 205.228C161.288 205.208 160.796 205.304 160.345 205.508L151.418 210.663C150.689 211.085 150.781 211.821 151.625 212.304L160.146 217.228C160.577 217.468 161.058 217.604 161.551 217.624C162.044 217.644 162.535 217.548 162.984 217.343Z" fill="#111111"/>
<path d="M150.343 224.685L159.271 219.531C160 219.109 159.915 218.373 159.071 217.89L150.55 212.965C150.118 212.725 149.635 212.59 149.141 212.57C148.647 212.55 148.155 212.646 147.704 212.85L138.769 218.005C138.04 218.426 138.132 219.163 138.976 219.646L147.497 224.57C147.93 224.81 148.412 224.946 148.906 224.966C149.401 224.986 149.893 224.89 150.343 224.685Z" fill="#111111"/>
<path d="M137.696 231.948L146.632 226.794C147.36 226.372 147.268 225.635 146.425 225.152L137.903 220.228C137.471 219.988 136.988 219.853 136.494 219.833C136 219.813 135.508 219.909 135.057 220.113L126.129 225.267C125.401 225.689 125.493 226.425 126.329 226.909L134.858 231.825C135.288 232.068 135.769 232.206 136.262 232.227C136.756 232.248 137.247 232.153 137.696 231.948Z" fill="#111111"/>
<path d="M125.052 239.258L133.98 234.096C134.708 233.674 134.616 232.945 133.78 232.454L125.251 227.538C124.821 227.295 124.34 227.157 123.847 227.136C123.354 227.114 122.862 227.21 122.413 227.415L113.477 232.577C112.71 232.999 112.841 233.727 113.684 234.218L122.221 239.127C122.65 239.369 123.129 239.506 123.621 239.529C124.112 239.552 124.602 239.459 125.052 239.258Z" fill="#111111"/>
<path d="M112.405 246.544L121.341 241.39C122.069 240.968 121.977 240.231 121.134 239.748L112.612 234.832C112.181 234.589 111.698 234.451 111.204 234.43C110.709 234.408 110.217 234.504 109.766 234.709L100.838 239.871C100.11 240.285 100.202 241.021 101.038 241.512L109.559 246.429C109.992 246.669 110.474 246.804 110.968 246.824C111.463 246.844 111.955 246.748 112.405 246.544Z" fill="#111111"/>
<path d="M99.7653 253.831L108.693 248.677C109.422 248.255 109.33 247.518 108.494 247.035L99.9801 242.126C99.549 241.886 99.0677 241.751 98.5748 241.731C98.0819 241.711 97.5912 241.807 97.1421 242.011L88.2065 247.166C87.4778 247.587 87.5699 248.324 88.4136 248.807L96.912 253.731C97.3466 253.97 97.8312 254.103 98.3268 254.121C98.8224 254.138 99.3151 254.039 99.7653 253.831Z" fill="#111111"/>
<path d="M87.1169 261.148L96.0525 255.994C96.7812 255.572 96.6891 254.836 95.8454 254.352L87.324 249.428C86.8915 249.188 86.4089 249.053 85.9148 249.033C85.4207 249.013 84.9287 249.109 84.4784 249.313L75.5427 254.467C74.814 254.889 74.9061 255.626 75.7498 256.109L84.2712 261.033C84.7037 261.273 85.1863 261.408 85.6804 261.428C86.1745 261.448 86.6665 261.352 87.1169 261.148Z" fill="#111111"/>
<path d="M74.4704 268.45L83.406 263.296C84.1347 262.874 84.0427 262.137 83.1989 261.654L74.6698 256.73C74.2374 256.49 73.7548 256.355 73.2607 256.335C72.7665 256.315 72.2746 256.411 71.8242 256.615L62.8962 261.769C62.1292 262.191 62.2596 262.927 63.1033 263.411L71.6018 268.335C72.0367 268.58 72.5235 268.718 73.0222 268.738C73.5209 268.758 74.0172 268.659 74.4704 268.45Z" fill="#111111"/>
<path d="M61.8302 275.752L70.7582 270.59C71.5252 270.168 71.4025 269.439 70.5588 268.949L62.0373 264.032C61.6055 263.791 61.1232 263.654 60.6291 263.633C60.135 263.612 59.6427 263.706 59.1917 263.909L50.2561 269.071C49.5274 269.493 49.6194 270.222 50.4631 270.713L58.9846 275.629C59.4158 275.872 59.8983 276.01 60.3927 276.031C60.8872 276.053 61.3797 275.957 61.8302 275.752Z" fill="#111111"/>
<path d="M43.0923 286.566L58.1181 277.892C58.8467 277.47 58.7547 276.733 57.911 276.25L49.3588 271.334C48.9276 271.091 48.4452 270.953 47.9507 270.932C47.4562 270.91 46.9637 271.006 46.5132 271.211L31.5258 279.909C30.7972 280.331 30.8892 281.067 31.7253 281.55L40.2544 286.474C40.6873 286.711 41.1695 286.842 41.6624 286.858C42.1553 286.874 42.645 286.774 43.0923 286.566Z" fill="#111111"/>
<path d="M207.063 206.046L215.999 200.907C216.766 200.485 216.635 199.749 215.792 199.265L207.27 194.341C206.838 194.101 206.355 193.966 205.861 193.946C205.367 193.926 204.875 194.022 204.425 194.226L195.497 199.373C194.768 199.795 194.86 200.531 195.696 201.014L204.225 205.938C204.657 206.177 205.138 206.311 205.631 206.33C206.124 206.348 206.615 206.251 207.063 206.046Z" fill="#111111"/>
<path d="M194.4 213.363L203.328 208.209C204.057 207.787 203.965 207.051 203.129 206.568L194.6 201.674C194.169 201.434 193.687 201.299 193.194 201.279C192.701 201.259 192.211 201.355 191.762 201.559L182.818 206.683C182.09 207.105 182.182 207.841 183.025 208.324L191.547 213.248C191.98 213.49 192.464 213.626 192.96 213.646C193.455 213.666 193.949 213.569 194.4 213.363Z" fill="#111111"/>
<path d="M181.732 220.673L190.668 215.518C191.435 215.096 191.304 214.36 190.461 213.877L181.939 208.953C181.507 208.713 181.024 208.577 180.53 208.557C180.036 208.537 179.544 208.633 179.094 208.838L170.166 213.992C169.437 214.414 169.529 215.15 170.365 215.633L178.894 220.557C179.325 220.797 179.806 220.933 180.299 220.953C180.792 220.973 181.283 220.877 181.732 220.673Z" fill="#111111"/>
<path d="M169.068 227.99L178.004 222.828C178.732 222.414 178.64 221.677 177.797 221.186L169.275 216.247C168.843 216.006 168.361 215.869 167.867 215.848C167.373 215.826 166.88 215.921 166.43 216.124L157.509 221.309C156.781 221.731 156.873 222.46 157.716 222.951L166.238 227.867C166.667 228.108 167.147 228.244 167.638 228.265C168.13 228.286 168.62 228.192 169.068 227.99Z" fill="#111111"/>
<path d="M156.504 235.245L165.432 230.053C166.16 229.631 166.068 228.902 165.232 228.411L156.703 223.495C156.273 223.252 155.792 223.114 155.299 223.093C154.806 223.071 154.314 223.167 153.865 223.372L144.93 228.534C144.163 228.948 144.293 229.684 145.137 230.175L153.673 235.123C154.103 235.361 154.583 235.497 155.074 235.518C155.565 235.539 156.055 235.446 156.504 235.245Z" fill="#111111"/>
<path d="M143.831 242.555L152.766 237.401C153.495 236.979 153.403 236.243 152.559 235.759L144.038 230.82C143.605 230.58 143.123 230.444 142.629 230.424C142.135 230.404 141.643 230.5 141.192 230.705L132.264 235.859C131.536 236.281 131.628 237.017 132.464 237.5L140.993 242.425C141.423 242.667 141.903 242.805 142.396 242.828C142.889 242.85 143.381 242.757 143.831 242.555Z" fill="#111111"/>
<path d="M131.168 249.864L140.103 244.71C140.832 244.288 140.74 243.552 139.896 243.069L131.375 238.152C130.944 237.909 130.461 237.771 129.967 237.75C129.472 237.729 128.98 237.824 128.529 238.029L119.593 243.191C118.865 243.605 118.957 244.342 119.801 244.833L128.322 249.749C128.754 249.989 129.237 250.125 129.731 250.145C130.225 250.165 130.717 250.068 131.168 249.864Z" fill="#111111"/>
<path d="M118.506 257.183L127.434 252.029C128.163 251.607 128.071 250.871 127.227 250.387L118.706 245.463C118.275 245.223 117.793 245.088 117.301 245.068C116.808 245.048 116.317 245.144 115.868 245.348L106.932 250.503C106.204 250.924 106.296 251.661 107.139 252.144L115.661 257.068C116.093 257.308 116.576 257.444 117.07 257.463C117.564 257.483 118.056 257.387 118.506 257.183Z" fill="#111111"/>
<path d="M105.834 264.492L114.769 259.338C115.536 258.916 115.406 258.179 114.562 257.696L106.041 252.772C105.608 252.532 105.126 252.397 104.632 252.377C104.137 252.357 103.645 252.453 103.195 252.657L94.2672 257.811C93.5385 258.233 93.6229 258.969 94.4666 259.453L102.988 264.377C103.42 264.617 103.903 264.752 104.397 264.772C104.891 264.792 105.383 264.696 105.834 264.492Z" fill="#111111"/>
<path d="M93.1687 271.809L102.097 266.647C102.825 266.233 102.733 265.496 101.897 265.005L93.3682 260.089C92.9371 259.849 92.4563 259.714 91.9637 259.692C91.4711 259.671 90.9803 259.765 90.5302 259.966L81.5715 265.128C80.8429 265.55 80.9349 266.286 81.7786 266.769L90.3001 271.686C90.7342 271.933 91.2208 272.072 91.7196 272.094C92.2184 272.115 92.7152 272.017 93.1687 271.809Z" fill="#111111"/>
<path d="M80.5015 279.142L89.4372 273.988C90.1658 273.566 90.0738 272.83 89.2301 272.347L80.7086 267.422C80.2762 267.182 79.7936 267.047 79.2995 267.027C78.8053 267.007 78.3134 267.103 77.863 267.307L68.935 272.462C68.2063 272.883 68.2984 273.62 69.1344 274.103L77.6636 279.027C78.0946 279.267 78.576 279.402 79.0689 279.422C79.5618 279.442 80.0525 279.346 80.5015 279.142Z" fill="#111111"/>
<path d="M67.8361 286.436L76.7641 281.274C77.4927 280.852 77.4083 280.123 76.5646 279.632L68.0431 274.716C67.6113 274.474 67.1291 274.338 66.6349 274.316C66.1408 274.295 65.6485 274.39 65.1975 274.593L56.2619 279.755C55.5332 280.177 55.6253 280.905 56.469 281.396L64.9905 286.313C65.4217 286.556 65.9041 286.694 66.3986 286.715C66.893 286.736 67.3855 286.64 67.8361 286.436Z" fill="#111111"/>
<path d="M219.736 198.736L234.754 190.061C235.483 189.64 235.391 188.911 234.555 188.42L226.025 183.503C225.596 183.261 225.114 183.123 224.621 183.102C224.128 183.08 223.637 183.176 223.187 183.381L208.131 192.056C207.402 192.477 207.494 193.214 208.338 193.697L216.89 198.606C217.321 198.848 217.803 198.986 218.298 199.009C218.792 199.032 219.284 198.938 219.736 198.736Z" fill="#111111"/>
<path d="M43.7065 287.034L52.6345 281.88C53.0453 281.67 53.5 281.561 53.9614 281.561C54.4228 281.561 54.8776 281.67 55.2883 281.88L64.293 287.08C65.06 287.502 65.06 288.185 64.293 288.614L63.5797 289.029C62.9048 289.412 62.9124 290.049 63.5797 290.44L73.1367 295.932C73.9037 296.361 73.9037 297.044 73.1367 297.466L67.4531 300.749C67.0431 300.957 66.5898 301.065 66.13 301.065C65.6702 301.065 65.2169 300.957 64.8069 300.749L55.8943 295.61L54.0534 294.543L52.7265 293.776L51.3919 293.009L43.7218 288.584C42.9778 288.139 42.9778 287.456 43.7065 287.034Z" fill="#111111"/>
<path d="M262.544 216.477L271.472 211.323C272.239 210.901 272.108 210.164 271.272 209.681L262.743 204.742C262.312 204.502 261.831 204.366 261.338 204.346C260.845 204.326 260.354 204.422 259.905 204.627L250.97 209.781C250.241 210.203 250.333 210.939 251.177 211.422L259.698 216.346C260.129 216.589 260.611 216.727 261.105 216.75C261.6 216.772 262.092 216.679 262.544 216.477Z" fill="#111111"/>
<path d="M249.934 223.755L258.862 218.601C259.629 218.179 259.499 217.443 258.663 216.96L250.134 212.036C249.703 211.796 249.221 211.66 248.729 211.64C248.236 211.62 247.745 211.716 247.296 211.92L238.36 217.075C237.632 217.497 237.724 218.233 238.567 218.716L247.089 223.64C247.521 223.88 248.004 224.016 248.498 224.036C248.992 224.056 249.484 223.96 249.934 223.755Z" fill="#111111"/>
<path d="M237.323 231.035L246.251 225.881C247.018 225.459 246.896 224.722 246.052 224.239L237.53 219.315C237.098 219.075 236.615 218.94 236.121 218.92C235.627 218.9 235.135 218.996 234.685 219.2L225.772 224.354C225.044 224.776 225.136 225.512 225.979 225.996L234.501 230.92C234.93 231.156 235.409 231.289 235.899 231.309C236.388 231.329 236.876 231.235 237.323 231.035Z" fill="#111111"/>
<path d="M129.94 293.032L138.876 287.87C139.643 287.456 139.512 286.72 138.669 286.229L130.147 281.312C129.715 281.071 129.233 280.934 128.739 280.913C128.245 280.892 127.753 280.986 127.302 281.19L118.389 286.352C117.622 286.773 117.752 287.502 118.596 287.993L127.102 292.948C127.535 293.185 128.018 293.316 128.511 293.33C129.004 293.345 129.494 293.243 129.94 293.032Z" fill="#111111"/>
<path d="M117.34 300.311L126.268 295.157C127.035 294.735 126.904 293.999 126.068 293.515L117.539 288.591C117.108 288.351 116.627 288.216 116.134 288.196C115.641 288.176 115.15 288.272 114.701 288.476L105.765 293.63C104.998 294.052 105.129 294.789 105.973 295.272L114.494 300.196C114.926 300.436 115.409 300.571 115.903 300.591C116.397 300.611 116.889 300.515 117.34 300.311Z" fill="#111111"/>
<path d="M104.729 307.59L113.657 302.436C114.386 302.014 114.294 301.278 113.458 300.795L104.929 295.87C104.498 295.631 104.016 295.495 103.523 295.475C103.031 295.455 102.54 295.551 102.091 295.755L93.155 300.91C92.388 301.332 92.5184 302.068 93.3621 302.551L101.884 307.475C102.316 307.715 102.799 307.851 103.293 307.871C103.787 307.891 104.279 307.795 104.729 307.59Z" fill="#111111"/>
<path d="M92.12 314.869L101.048 309.714C101.777 309.293 101.685 308.556 100.848 308.073L92.3118 303.149C91.8807 302.909 91.3994 302.774 90.9065 302.754C90.4136 302.734 89.9229 302.83 89.4738 303.034L80.5381 308.188C79.7711 308.61 79.9015 309.346 80.7453 309.829L89.2437 314.754C89.68 314.999 90.1681 315.137 90.668 315.157C91.168 315.177 91.6656 315.078 92.12 314.869Z" fill="#111111"/>
<path d="M221.466 240.192L233.646 233.159C234.375 232.737 234.283 232.001 233.439 231.517L224.918 226.593C224.485 226.353 224.003 226.218 223.509 226.198C223.014 226.178 222.522 226.274 222.072 226.478L209.892 233.512C209.125 233.934 209.255 234.662 210.099 235.153L218.621 240.07C219.052 240.313 219.534 240.45 220.029 240.472C220.523 240.493 221.016 240.397 221.466 240.192Z" fill="#111111"/>
<path d="M142.549 285.753L154.73 278.719C155.497 278.297 155.366 277.561 154.53 277.078L146.001 272.154C145.57 271.914 145.089 271.778 144.596 271.758C144.103 271.738 143.612 271.834 143.163 272.039L130.983 279.072C130.254 279.494 130.346 280.223 131.182 280.714L139.711 285.63C140.141 285.873 140.622 286.011 141.116 286.032C141.609 286.053 142.1 285.958 142.549 285.753Z" fill="#111111"/>
<path d="M158.416 276.595L217.79 242.325C218.519 241.903 218.427 241.167 217.591 240.683L209.062 235.759C208.63 235.519 208.149 235.384 207.656 235.364C207.163 235.344 206.673 235.44 206.224 235.644L146.842 269.937C146.113 270.359 146.205 271.095 147.049 271.579L155.57 276.503C156.005 276.739 156.488 276.87 156.982 276.886C157.476 276.902 157.967 276.803 158.416 276.595Z" fill="#111111"/>
<path d="M215.887 215.112L224.815 209.958C225.544 209.536 225.452 208.799 224.608 208.316L216.087 203.392C215.656 203.152 215.174 203.017 214.681 202.997C214.188 202.977 213.698 203.073 213.249 203.277L204.298 208.431C203.531 208.853 203.661 209.589 204.505 210.073L213.026 214.997C213.461 215.239 213.946 215.376 214.443 215.396C214.94 215.416 215.435 215.319 215.887 215.112Z" fill="#111111"/>
<path d="M203.252 222.383L212.18 217.221C212.908 216.799 212.816 216.07 211.98 215.579L203.451 210.663C203.021 210.422 202.54 210.285 202.047 210.264C201.554 210.242 201.063 210.337 200.613 210.54L191.678 215.702C190.911 216.124 191.041 216.853 191.885 217.343L200.406 222.26C200.837 222.503 201.32 222.641 201.814 222.662C202.309 222.683 202.801 222.588 203.252 222.383Z" fill="#111111"/>
<path d="M190.62 229.692L199.555 224.538C200.322 224.116 200.192 223.38 199.348 222.896L190.827 217.972C190.394 217.732 189.912 217.597 189.418 217.577C188.924 217.557 188.432 217.653 187.981 217.857L179.053 223.011C178.286 223.433 178.409 224.17 179.253 224.653L187.774 229.577C188.207 229.817 188.689 229.952 189.183 229.972C189.677 229.992 190.169 229.896 190.62 229.692Z" fill="#111111"/>
<path d="M177.986 236.956L186.922 231.802C187.689 231.38 187.558 230.644 186.715 230.161L178.216 225.267C177.784 225.027 177.301 224.892 176.807 224.872C176.313 224.852 175.821 224.948 175.37 225.152L166.442 230.306C165.675 230.728 165.806 231.465 166.642 231.948L175.148 236.872C175.582 237.107 176.064 237.237 176.557 237.252C177.05 237.266 177.539 237.165 177.986 236.956Z" fill="#111111"/>
<path d="M165.36 244.28L174.288 239.126C175.055 238.704 174.925 237.967 174.089 237.484L165.56 232.56C165.129 232.32 164.647 232.185 164.154 232.165C163.661 232.145 163.171 232.241 162.722 232.445L153.786 237.599C153.019 238.021 153.149 238.757 153.993 239.241L162.515 244.165C162.947 244.405 163.43 244.54 163.924 244.56C164.418 244.58 164.91 244.484 165.36 244.28Z" fill="#111111"/>
<path d="M152.731 251.575L161.659 246.413C162.426 245.991 162.303 245.263 161.459 244.772L152.907 239.855C152.476 239.612 151.993 239.474 151.499 239.453C151.004 239.432 150.512 239.527 150.061 239.732L141.126 244.894C140.397 245.316 140.489 246.045 141.333 246.536L149.854 251.452C150.289 251.7 150.777 251.841 151.278 251.862C151.778 251.883 152.276 251.785 152.731 251.575Z" fill="#111111"/>
<path d="M140.098 258.863L149.034 253.709C149.763 253.287 149.671 252.55 148.827 252.067L140.305 247.143C139.873 246.903 139.39 246.768 138.896 246.748C138.402 246.728 137.91 246.824 137.46 247.028L128.532 252.182C127.765 252.604 127.895 253.34 128.731 253.824L137.26 258.748C137.691 258.988 138.173 259.123 138.666 259.143C139.159 259.163 139.649 259.067 140.098 258.863Z" fill="#111111"/>
<path d="M127.463 266.156L136.398 261.002C137.127 260.58 137.035 259.843 136.191 259.36L127.67 254.436C127.237 254.196 126.755 254.061 126.261 254.041C125.766 254.021 125.274 254.117 124.824 254.321L115.896 259.475C115.167 259.897 115.259 260.633 116.103 261.117L124.625 266.041C125.056 266.281 125.537 266.416 126.03 266.436C126.523 266.456 127.013 266.36 127.463 266.156Z" fill="#111111"/>
<path d="M114.838 273.451L123.758 268.296C124.487 267.875 124.394 267.138 123.558 266.655L115.029 261.731C114.598 261.491 114.117 261.356 113.624 261.336C113.131 261.316 112.64 261.412 112.191 261.616L103.256 266.77C102.527 267.192 102.619 267.928 103.463 268.412L111.984 273.336C112.418 273.577 112.902 273.713 113.397 273.733C113.893 273.753 114.386 273.656 114.838 273.451Z" fill="#111111"/>
<path d="M102.208 280.745L111.143 275.583C111.872 275.161 111.78 274.432 110.936 273.942L102.415 269.025C101.984 268.782 101.501 268.644 101.007 268.623C100.512 268.602 100.02 268.697 99.5692 268.902L90.6335 274.064C89.9048 274.478 89.9969 275.215 90.8406 275.706L99.3621 280.622C99.7939 280.863 100.276 281 100.77 281.021C101.264 281.043 101.757 280.948 102.208 280.745Z" fill="#111111"/>
<path d="M89.5718 288.031L98.5075 282.877C99.2362 282.455 99.1441 281.718 98.3004 281.235L89.7789 276.311C89.3465 276.071 88.8639 275.936 88.3698 275.916C87.8756 275.896 87.3837 275.992 86.9333 276.196L78.0053 281.35C77.2383 281.772 77.3687 282.508 78.2047 282.992L86.7339 287.916C87.165 288.156 87.6463 288.291 88.1392 288.311C88.6321 288.331 89.1228 288.235 89.5718 288.031Z" fill="#111111"/>
<path d="M76.9711 295.326L85.8991 290.171C86.6278 289.75 86.5357 289.013 85.692 288.53L77.1705 283.606C76.7395 283.366 76.2582 283.231 75.7653 283.211C75.2724 283.191 74.7816 283.287 74.3326 283.491L65.3969 288.645C64.6683 289.067 64.7603 289.803 65.604 290.286L74.1025 295.249C74.5409 295.487 75.0292 295.618 75.5276 295.631C76.0261 295.644 76.5207 295.54 76.9711 295.326Z" fill="#111111"/>
<path d="M228.512 207.81L246.989 197.148C247.756 196.726 247.626 195.99 246.782 195.507L238.26 190.583C237.828 190.343 237.345 190.207 236.851 190.187C236.357 190.167 235.865 190.263 235.415 190.467L216.945 201.129C216.178 201.551 216.309 202.287 217.145 202.77L225.674 207.694C226.105 207.934 226.586 208.07 227.079 208.09C227.572 208.11 228.063 208.014 228.512 207.81Z" fill="#111111"/>
<path d="M234.406 218.548L243.334 213.409C244.063 212.987 243.979 212.259 243.135 211.768L234.613 206.851C234.182 206.608 233.7 206.471 233.205 206.449C232.711 206.428 232.218 206.524 231.768 206.728L222.832 211.89C222.104 212.305 222.196 213.041 223.039 213.532L231.561 218.448C231.994 218.686 232.478 218.819 232.972 218.836C233.466 218.853 233.957 218.755 234.406 218.548Z" fill="#111111"/>
<path d="M221.777 225.858L230.713 220.704C231.441 220.282 231.349 219.546 230.506 219.062L221.984 214.138C221.552 213.898 221.069 213.763 220.575 213.743C220.081 213.723 219.589 213.819 219.139 214.023L210.211 219.177C209.444 219.599 209.574 220.336 210.41 220.819L218.939 225.743C219.37 225.983 219.851 226.118 220.344 226.138C220.837 226.158 221.328 226.062 221.777 225.858Z" fill="#111111"/>
<path d="M209.149 233.121L218.1 227.989C218.867 227.568 218.737 226.839 217.893 226.348L209.372 221.431C208.94 221.19 208.458 221.054 207.964 221.032C207.469 221.011 206.977 221.106 206.526 221.309L197.59 226.471C196.823 226.893 196.954 227.621 197.798 228.112L206.319 233.029C206.751 233.264 207.232 233.395 207.723 233.411C208.215 233.427 208.703 233.328 209.149 233.121Z" fill="#111111"/>
<path d="M196.526 240.438L205.454 235.284C206.221 234.862 206.09 234.126 205.247 233.642L196.725 228.718C196.294 228.478 195.813 228.343 195.32 228.323C194.827 228.303 194.336 228.399 193.887 228.603L184.952 233.757C184.223 234.179 184.315 234.916 185.159 235.399L193.68 240.323C194.113 240.563 194.595 240.698 195.089 240.718C195.584 240.738 196.075 240.642 196.526 240.438Z" fill="#111111"/>
<path d="M183.893 247.733L192.791 242.579C193.519 242.157 193.427 241.421 192.584 240.937L184.062 236.013C183.63 235.773 183.147 235.638 182.653 235.618C182.159 235.598 181.667 235.694 181.217 235.898L172.289 241.052C171.56 241.474 171.644 242.211 172.488 242.694L181.01 247.61C181.446 247.86 181.935 248.001 182.437 248.022C182.938 248.044 183.438 247.944 183.893 247.733Z" fill="#111111"/>
<path d="M171.264 255.019L180.192 249.865C180.921 249.443 180.829 248.707 179.993 248.223L171.464 243.299C171.033 243.059 170.551 242.924 170.059 242.904C169.566 242.884 169.075 242.98 168.626 243.184L159.69 248.338C158.962 248.76 159.054 249.497 159.897 249.98L168.419 254.904C168.851 255.144 169.334 255.279 169.828 255.299C170.322 255.319 170.814 255.223 171.264 255.019Z" fill="#111111"/>
<path d="M158.636 262.313L167.572 257.159C168.301 256.737 168.209 256.001 167.365 255.517L158.843 250.593C158.411 250.353 157.928 250.218 157.434 250.198C156.94 250.178 156.448 250.274 155.998 250.478L147.07 255.633C146.341 256.054 146.433 256.791 147.269 257.274L155.791 262.198C156.223 262.438 156.706 262.573 157.2 262.593C157.694 262.613 158.186 262.517 158.636 262.313Z" fill="#111111"/>
<path d="M146.004 269.608L154.932 264.446C155.66 264.024 155.568 263.296 154.732 262.805L146.203 257.888C145.773 257.645 145.292 257.508 144.799 257.486C144.306 257.465 143.814 257.561 143.365 257.766L134.43 262.927C133.701 263.342 133.793 264.078 134.637 264.569L143.158 269.485C143.59 269.727 144.072 269.863 144.566 269.885C145.06 269.906 145.553 269.811 146.004 269.608Z" fill="#111111"/>
<path d="M133.376 276.894L142.311 271.74C143.04 271.318 142.948 270.582 142.104 270.098L133.583 265.174C133.15 264.934 132.668 264.799 132.174 264.779C131.679 264.759 131.188 264.855 130.737 265.059L121.809 270.214C121.08 270.635 121.173 271.372 122.009 271.855L130.538 276.779C130.969 277.019 131.45 277.154 131.943 277.174C132.436 277.194 132.927 277.098 133.376 276.894Z" fill="#111111"/>
<path d="M120.754 284.188L129.682 279.026C130.41 278.612 130.318 277.876 129.482 277.385L120.953 272.468C120.523 272.227 120.042 272.091 119.549 272.069C119.056 272.048 118.565 272.143 118.115 272.346L109.187 277.508C108.459 277.93 108.551 278.658 109.394 279.149L117.916 284.066C118.346 284.307 118.827 284.444 119.32 284.466C119.813 284.487 120.304 284.392 120.754 284.188Z" fill="#111111"/>
<path d="M108.118 291.475L117.054 286.321C117.782 285.899 117.69 285.163 116.846 284.68L108.325 279.755C107.893 279.515 107.41 279.38 106.916 279.36C106.422 279.34 105.93 279.436 105.479 279.64L96.5512 284.795C95.8226 285.216 95.9146 285.953 96.7507 286.436L105.28 291.36C105.711 291.6 106.192 291.735 106.685 291.755C107.178 291.775 107.669 291.679 108.118 291.475Z" fill="#111111"/>
<path d="M79.8614 307.797L104.406 293.615C105.134 293.193 105.05 292.457 104.206 291.974L95.6849 287.049C95.2524 286.809 94.7699 286.674 94.2757 286.654C93.7816 286.634 93.2896 286.73 92.8393 286.934L68.2949 301.116C67.5663 301.53 67.6583 302.267 68.502 302.758L77.0235 307.674C77.4544 307.914 77.9353 308.05 78.428 308.071C78.9206 308.093 79.4115 307.999 79.8614 307.797Z" fill="#111111"/>
<path d="M247.035 211.277L259.215 204.243C259.982 203.821 259.852 203.085 259.015 202.602L250.486 197.685C250.056 197.442 249.575 197.305 249.082 197.283C248.589 197.262 248.098 197.358 247.648 197.562L235.468 204.596C234.74 205.018 234.832 205.754 235.668 206.237L244.181 211.161C244.614 211.404 245.099 211.541 245.594 211.561C246.09 211.581 246.584 211.483 247.035 211.277Z" fill="#111111"/>
<path d="M30.4087 279.242L209.766 175.695C210.533 175.281 210.403 174.545 209.559 174.054L205.295 171.599C204.864 171.358 204.383 171.222 203.89 171.2C203.397 171.179 202.906 171.274 202.457 171.477L23.0991 275.023C22.3704 275.445 22.4624 276.173 23.3061 276.664L27.563 279.142C27.9967 279.379 28.4799 279.512 28.974 279.529C29.4681 279.547 29.9595 279.448 30.4087 279.242Z" fill="#111111"/>
<path d="M141.516 291.016C141.772 291.574 142.21 292.028 142.758 292.304L192.108 320.799C192.938 321.261 193.866 321.521 194.815 321.56C195.765 321.598 196.711 321.414 197.576 321.021L281.947 272.324C282.308 272.136 282.599 271.838 282.776 271.472C283.083 270.705 282.653 269.854 281.533 269.21L232.176 240.708C231.345 240.246 230.418 239.985 229.468 239.946C228.518 239.908 227.573 240.092 226.707 240.485L142.336 289.183C141.995 289.33 141.722 289.601 141.57 289.94C141.418 290.279 141.399 290.663 141.516 291.016Z" fill="#B1B4C4"/>
<path d="M141.513 291.015C141.769 291.573 142.207 292.027 142.756 292.304L192.105 320.798C192.936 321.26 193.863 321.52 194.813 321.559C195.763 321.598 196.708 321.413 197.574 321.02L281.945 272.323C282.306 272.136 282.596 271.837 282.773 271.472C282.512 270.919 282.075 270.469 281.531 270.191L232.174 241.696C231.343 241.234 230.416 240.972 229.467 240.932C228.517 240.892 227.571 241.075 226.705 241.466L142.334 290.171C141.976 290.356 141.688 290.652 141.513 291.015Z" fill="#C3C6D1"/>
<path d="M16.7541 271.386L196.112 167.84C196.507 167.548 196.828 167.168 197.05 166.73C197.273 166.291 197.39 165.808 197.393 165.316V163.207C197.393 162.233 196.802 161.788 196.073 162.21L16.7158 265.756C16.3139 266.043 15.985 266.42 15.7559 266.857C15.5267 267.294 15.4036 267.779 15.3965 268.272V270.381C15.4348 271.363 16.0254 271.808 16.7541 271.386Z" fill="#111111"/>
<path d="M169.014 114.388L186.732 104.179C188.949 102.898 190.751 99.4542 190.751 96.5089V93.595C190.751 90.6343 188.949 89.2767 186.732 90.5269L169.014 100.767C166.79 102.047 164.995 105.491 164.995 108.437V111.351C165.025 114.311 166.82 115.669 169.014 114.388Z" fill="#E9EAF2"/>
<path d="M169.083 96.0075L186.77 85.7986C188.987 84.5177 190.789 79.279 190.789 76.7172V75.6467C190.789 72.6861 188.987 71.3285 186.77 72.5787L169.083 82.7876C166.858 84.0685 165.064 87.5124 165.064 90.4577V91.5282C165.064 94.136 166.858 97.2884 169.083 96.0075Z" fill="#E9EAF2"/>
<path d="M169.014 151.584L186.732 141.375C188.949 140.094 190.751 136.651 190.751 133.705V130.791C190.751 127.831 188.949 126.473 186.732 127.723L169.014 137.963C166.79 139.244 164.995 142.688 164.995 145.633V148.547C165.025 151.507 166.82 152.865 169.014 151.584Z" fill="#E9EAF2"/>
<path d="M169.083 133.204L186.77 122.995C188.987 121.714 190.789 116.475 190.789 113.913V112.843C190.789 109.882 188.987 108.525 186.77 109.775L169.083 119.984C166.858 121.265 165.064 124.709 165.064 127.654V128.724C165.064 131.332 166.858 134.485 169.083 133.204Z" fill="#E9EAF2"/>
<path d="M169.104 75.229L186.791 65.0201C189.008 63.7315 190.811 57.9636 190.811 55.3941V26.9338C190.811 24.372 189.008 23.3289 186.791 24.6328L169.104 34.8494C167.934 35.6107 166.96 36.6375 166.261 37.8464C165.563 39.0553 165.16 40.412 165.085 41.8062V70.2741C165.085 72.8129 166.88 76.5099 169.104 75.229Z" fill="#E9EAF2"/>
<path d="M21.2845 196.87L150.971 123.739C152.781 122.704 154.238 119.904 154.238 117.503V45.535C154.238 43.1342 152.781 42.0297 150.971 43.0729L21.2845 116.196C19.4821 117.239 18.0247 120.031 18.0247 122.439V194.4C18.0247 196.809 19.4821 197.913 21.2845 196.87Z" fill="#E9EAF2"/>
<path d="M21.8966 221.495L104.895 173.58C106.904 172.414 108.538 169.3 108.538 166.623V161.2C108.538 158.516 106.904 157.289 104.895 158.447L21.8966 206.362C19.887 207.52 18.261 210.634 18.261 213.319V218.741C18.261 221.426 19.887 222.653 21.8966 221.495Z" fill="#E9EAF2"/>
<path d="M20.7275 243.486L58.5871 221.626C60.5966 220.468 62.2304 217.354 62.2304 214.67V209.278C62.2304 206.593 60.5966 205.366 58.5871 206.524L20.7275 228.384C18.7179 229.542 17.0918 232.656 17.0918 235.341V240.725C17.0918 243.409 18.7179 244.644 20.7275 243.486Z" fill="#3D117E"/>
<path d="M46.9314 74.4365C48.1117 76.547 49.5466 78.5047 51.2037 80.2658C51.6639 80.8027 55.2152 79.4451 54.4712 79.0616C53.7272 78.6781 51.4031 75.4413 50.2373 73.2783C49.2619 70.696 48.4322 68.0611 47.7522 65.3858C47.0235 62.7396 46.3945 58.8585 45.8576 57.0331C45.7204 56.3588 45.391 55.7386 44.9092 55.2473C44.4275 54.756 43.8139 54.4146 43.1424 54.2642C41.8615 53.965 41.0331 54.3178 41.2709 55.8672C41.7081 58.5671 43.802 69.1058 46.9314 74.4365Z" fill="#FFCEA9"/>
<path d="M44.9024 115.741C45.9993 116.639 47.6253 115.818 47.7097 115.902C49.0021 117.1 50.3565 118.229 51.7672 119.285C52.4575 119.822 53.5236 120.543 53.3012 121.586C52.956 123.435 49.9877 122.867 48.8679 122.299C47.748 121.732 46.8276 120.765 45.7998 120.136C45.0328 119.661 44.2658 119.423 44.1814 118.464C44.1124 117.889 44.703 115.718 44.9024 115.741Z" fill="#111111"/>
<path d="M44.1907 118.08C44.3364 118.993 45.0728 119.246 45.8244 119.714C46.8982 120.381 47.8493 121.348 48.9692 121.915C50.089 122.483 52.5818 122.958 53.3104 121.631C52.9193 123.418 49.997 122.859 48.8925 122.299C47.788 121.739 46.8522 120.765 45.8244 120.136C45.0574 119.66 44.2904 119.422 44.206 118.464C44.1905 118.336 44.1854 118.208 44.1907 118.08Z" fill="#616161"/>
<path d="M56.0668 109.305C57.1636 110.203 59.0888 109.228 59.1732 109.305C60.3157 110.469 61.5272 111.562 62.8011 112.58C63.4915 113.125 64.5576 113.846 64.3352 114.881C63.99 116.737 61.0217 116.17 59.8942 115.602C58.7667 115.035 57.8616 114.068 56.8261 113.432C56.0591 112.964 55.2921 112.718 55.2078 111.767C55.1464 111.192 55.8674 109.282 56.0668 109.305Z" fill="#111111"/>
<path d="M55.2464 111.515C55.3921 112.427 56.1284 112.681 56.8801 113.148C57.9539 113.816 58.905 114.782 60.0248 115.35C61.1447 115.917 63.6451 116.393 64.3661 115.066C63.9749 116.853 61.0603 116.293 59.9481 115.733C58.836 115.173 57.9156 114.199 56.8801 113.563C56.1131 113.095 55.3461 112.857 55.2617 111.898C55.2462 111.771 55.2411 111.643 55.2464 111.515Z" fill="#616161"/>
<path d="M30.2021 80.451C28.9826 88.0751 32.3651 90.9207 36.7677 92.5391C39.9278 93.705 44.4378 95.4998 44.4378 95.4998C44.4378 95.4998 44.3764 97.1718 44.3458 100.923C44.3458 104.228 44.7446 116.263 44.7446 116.263C45.2666 116.531 45.8451 116.671 46.432 116.671C47.019 116.671 47.5975 116.531 48.1194 116.263C48.1194 116.263 49.8912 107.02 50.2671 102.848C50.781 97.1948 51.6477 93.4902 51.3562 92.2706C51.1031 91.1968 44.921 88.1595 42.9575 86.5334L55.9123 90.8747C55.6545 92.2788 55.5286 93.704 55.5364 95.1316C55.6515 99.6186 55.9046 109.337 55.9046 109.337C55.9046 109.337 57.6764 110.618 59.1951 109.337C59.1951 109.337 62.4549 90.1077 62.056 87.5612C61.6802 85.1451 50.2671 80.2056 48.2498 78.5028C47.8994 78.218 47.4929 78.01 47.0569 77.8924C46.6208 77.7748 46.1649 77.7502 45.7187 77.8202L30.2021 80.451Z" fill="#3D117E"/>
<path d="M61.2374 83.6234L52.5318 78.5995C52.4566 78.5542 52.3704 78.5303 52.2826 78.5303C52.1947 78.5303 52.1085 78.5542 52.0333 78.5995L36.7698 87.4125L45.7208 92.5821L61.2374 83.6234Z" fill="#F4F4F4"/>
<path d="M45.3186 90.7338L44.6517 91.1171C44.598 91.1171 44.6057 91.2014 44.6517 91.2398L45.2879 91.6077C45.3203 91.6228 45.3557 91.6306 45.3914 91.6306C45.4272 91.6306 45.4625 91.6228 45.4949 91.6077L46.1618 91.2244C46.2155 91.2244 46.2078 91.1401 46.1618 91.1018L45.5256 90.7338C45.4931 90.7188 45.4578 90.7109 45.4221 90.7109C45.3863 90.7109 45.351 90.7188 45.3186 90.7338Z" fill="#111111"/>
<path d="M46.255 90.2348L45.5958 90.6104C45.5421 90.6104 45.5498 90.7024 45.5958 90.7331L46.2243 91.101C46.2576 91.1179 46.2944 91.1266 46.3317 91.1266C46.3689 91.1266 46.4057 91.1179 46.439 91.101L47.0982 90.7177C47.1519 90.7177 47.1442 90.6334 47.0982 90.5951L46.4696 90.2348C46.437 90.216 46.4 90.2061 46.3623 90.2061C46.3246 90.2061 46.2876 90.216 46.255 90.2348Z" fill="#111111"/>
<path d="M47.2053 89.6439L46.5461 90.0272C46.4924 90.0272 46.4924 90.1115 46.5461 90.1498L47.1746 90.5101C47.2079 90.5269 47.2447 90.5357 47.282 90.5357C47.3192 90.5357 47.356 90.5269 47.3893 90.5101L48.0485 90.1268C48.1022 90.1268 48.0945 90.0425 48.0485 90.0042L47.4199 89.6362C47.3861 89.6205 47.349 89.6131 47.3117 89.6144C47.2744 89.6157 47.238 89.6258 47.2053 89.6439Z" fill="#111111"/>
<path d="M48.1311 89.1081L47.4718 89.4914C47.4182 89.4914 47.4182 89.5757 47.4718 89.614L48.1004 89.982C48.1341 89.9972 48.1707 90.0051 48.2077 90.0051C48.2447 90.0051 48.2813 89.9972 48.3151 89.982L48.9743 89.5987C49.028 89.5987 49.0203 89.5144 48.9743 89.476L48.3457 89.1081C48.312 89.0928 48.2754 89.085 48.2384 89.085C48.2014 89.085 48.1648 89.0928 48.1311 89.1081Z" fill="#111111"/>
<path d="M49.0754 88.5629L48.4085 88.9462C48.3548 88.9462 48.3625 89.0382 48.4085 89.0688L49.0448 89.4368C49.0767 89.4536 49.1122 89.4623 49.1482 89.4623C49.1843 89.4623 49.2198 89.4536 49.2517 89.4368L49.9186 89.0535C49.9723 89.0535 49.9646 88.9692 49.9186 88.9309L49.2824 88.5706C49.2511 88.5526 49.2159 88.5425 49.1798 88.5412C49.1438 88.5398 49.108 88.5473 49.0754 88.5629Z" fill="#111111"/>
<path d="M50.0139 88.0246L49.347 88.4079C49.2933 88.4079 49.301 88.4922 49.347 88.5305L49.9832 88.8908C50.0151 88.9076 50.0507 88.9163 50.0867 88.9163C50.1228 88.9163 50.1583 88.9076 50.1902 88.8908L50.8571 88.5075C50.9108 88.5075 50.9031 88.4232 50.8571 88.3925L50.2209 88.0246C50.1889 88.0078 50.1534 87.999 50.1174 87.999C50.0813 87.999 50.0458 88.0078 50.0139 88.0246Z" fill="#111111"/>
<path d="M50.9194 87.4802L50.2601 87.8634C50.2065 87.8634 50.2141 87.9478 50.2601 87.9861L50.8887 88.354C50.9224 88.3693 50.959 88.3772 50.996 88.3772C51.033 88.3772 51.0696 88.3693 51.1033 88.354L51.7626 87.9708C51.8162 87.9708 51.8162 87.8864 51.7626 87.8481L51.134 87.4802C51.1003 87.4649 51.0637 87.457 51.0267 87.457C50.9897 87.457 50.9531 87.4649 50.9194 87.4802Z" fill="#111111"/>
<path d="M51.8889 86.9389L51.222 87.3222C51.1683 87.3222 51.176 87.4142 51.222 87.4448L51.8582 87.8128C51.8901 87.8296 51.9257 87.8383 51.9617 87.8383C51.9978 87.8383 52.0333 87.8296 52.0652 87.8128L52.7321 87.4295C52.7858 87.4295 52.7781 87.3452 52.7321 87.3068L52.0959 86.9466C52.0646 86.9286 52.0294 86.9185 51.9933 86.9171C51.9573 86.9158 51.9214 86.9233 51.8889 86.9389Z" fill="#111111"/>
<path d="M52.8273 86.4006L52.168 86.7839C52.1144 86.7839 52.122 86.8682 52.168 86.9065L52.7966 87.2668C52.8299 87.2837 52.8666 87.2924 52.9039 87.2924C52.9412 87.2924 52.978 87.2837 53.0112 87.2668L53.6705 86.8835C53.7241 86.8835 53.7165 86.7992 53.6705 86.7686L53.0419 86.4006C53.0086 86.3838 52.9719 86.375 52.9346 86.375C52.8973 86.375 52.8605 86.3838 52.8273 86.4006Z" fill="#111111"/>
<path d="M53.7707 85.8566L53.1038 86.2399C53.0502 86.2399 53.0578 86.3242 53.1038 86.3625L53.7401 86.7305C53.7725 86.7456 53.8078 86.7534 53.8435 86.7534C53.8793 86.7534 53.9146 86.7456 53.947 86.7305L54.6139 86.3472C54.6676 86.3472 54.6599 86.2629 54.6139 86.2246L53.9777 85.8566C53.9458 85.8398 53.9103 85.8311 53.8742 85.8311C53.8381 85.8311 53.8026 85.8398 53.7707 85.8566Z" fill="#111111"/>
<path d="M54.7024 85.311L54.0431 85.6943C53.9895 85.6943 53.9895 85.7786 54.0431 85.8169L54.6717 86.1849C54.705 86.2017 54.7417 86.2105 54.779 86.2105C54.8163 86.2105 54.8531 86.2017 54.8863 86.1849L55.5456 85.8016C55.5992 85.8016 55.5916 85.7173 55.5456 85.679L54.917 85.3187C54.8843 85.3006 54.8479 85.2905 54.8106 85.2892C54.7733 85.2879 54.7362 85.2954 54.7024 85.311Z" fill="#111111"/>
<path d="M55.639 84.7737L54.9798 85.1569C54.9261 85.1569 54.9338 85.2413 54.9798 85.2796L55.616 85.6399C55.648 85.6567 55.6835 85.6654 55.7195 85.6654C55.7556 85.6654 55.7911 85.6567 55.823 85.6399L56.4899 85.2566C56.5436 85.2566 56.5359 85.1723 56.4899 85.1339L55.8537 84.7737C55.8204 84.7568 55.7836 84.748 55.7464 84.748C55.7091 84.748 55.6723 84.7568 55.639 84.7737Z" fill="#111111"/>
<path d="M56.5862 84.2298L55.9192 84.613C55.8656 84.613 55.8733 84.6974 55.9192 84.7357L56.5555 85.096C56.5874 85.1128 56.6229 85.1215 56.659 85.1215C56.695 85.1215 56.7305 85.1128 56.7625 85.096L57.4294 84.7127C57.483 84.7127 57.4754 84.6207 57.4294 84.59L56.7931 84.2221C56.7606 84.2065 56.7247 84.199 56.6887 84.2003C56.6526 84.2017 56.6174 84.2118 56.5862 84.2298Z" fill="#111111"/>
<path d="M57.9685 83.4225L56.8563 84.0668C56.8026 84.0668 56.8103 84.1512 56.8563 84.1896L57.4852 84.5577C57.519 84.573 57.5556 84.5809 57.5926 84.5809C57.6297 84.5809 57.6663 84.573 57.7 84.5577L58.8122 83.9134C58.8659 83.9134 58.8659 83.8291 58.8122 83.7907L58.1832 83.4225C58.1495 83.4073 58.1129 83.3994 58.0758 83.3994C58.0388 83.3994 58.0022 83.4073 57.9685 83.4225Z" fill="#111111"/>
<path d="M45.801 89.4074L45.1341 89.7907C45.0804 89.7907 45.0881 89.875 45.1341 89.9133L45.7703 90.2736C45.8015 90.2926 45.8373 90.3026 45.8738 90.3026C45.9103 90.3026 45.9461 90.2926 45.9773 90.2736L46.6442 89.898C46.6979 89.898 46.6902 89.806 46.6442 89.7753L46.008 89.4074C45.9761 89.3906 45.9405 89.3818 45.9045 89.3818C45.8684 89.3818 45.8329 89.3906 45.801 89.4074Z" fill="#111111"/>
<path d="M46.7396 88.8625L46.0803 89.2458C46.0267 89.2458 46.0344 89.3301 46.0803 89.3685L46.7089 89.7364C46.7426 89.7516 46.7792 89.7595 46.8162 89.7595C46.8533 89.7595 46.8898 89.7516 46.9236 89.7364L47.5828 89.3531C47.6365 89.3531 47.6365 89.2688 47.5828 89.2305L46.9542 88.8625C46.921 88.8457 46.8842 88.8369 46.8469 88.8369C46.8096 88.8369 46.7729 88.8457 46.7396 88.8625Z" fill="#111111"/>
<path d="M47.676 88.3171L47.0168 88.7003C46.9554 88.7003 46.9631 88.7847 47.0168 88.823L47.6453 89.1909C47.6791 89.2062 47.7156 89.2141 47.7527 89.2141C47.7897 89.2141 47.8262 89.2062 47.86 89.1909L48.5192 88.8077C48.5729 88.8077 48.5652 88.7233 48.5192 88.685L47.8906 88.3171C47.8569 88.3018 47.8203 88.2939 47.7833 88.2939C47.7463 88.2939 47.7097 88.3018 47.676 88.3171Z" fill="#111111"/>
<path d="M48.6154 87.7719L47.9485 88.1552C47.8949 88.1552 47.9025 88.2472 47.9485 88.2778L48.5848 88.6458C48.6167 88.6626 48.6522 88.6713 48.6883 88.6713C48.7243 88.6713 48.7598 88.6626 48.7918 88.6458L49.4587 88.2625C49.5123 88.2625 49.5047 88.1782 49.4587 88.1398L48.8224 87.7796C48.7911 87.7616 48.7559 87.7515 48.7199 87.7502C48.6838 87.7488 48.648 87.7563 48.6154 87.7719Z" fill="#111111"/>
<path d="M49.555 87.235L48.8958 87.6183C48.8421 87.6183 48.8498 87.7026 48.8958 87.741L49.5243 88.1089C49.5581 88.1242 49.5947 88.132 49.6317 88.132C49.6687 88.132 49.7053 88.1242 49.739 88.1089L50.3982 87.7256C50.4519 87.7256 50.4519 87.6413 50.3982 87.603L49.7696 87.235C49.7359 87.2198 49.6993 87.2119 49.6623 87.2119C49.6253 87.2119 49.5887 87.2198 49.555 87.235Z" fill="#111111"/>
<path d="M50.4914 86.6938L49.8245 87.0771C49.7709 87.0771 49.7785 87.169 49.8245 87.1997L50.4608 87.5677C50.4927 87.5844 50.5282 87.5932 50.5642 87.5932C50.6003 87.5932 50.6358 87.5844 50.6677 87.5677L51.3346 87.1844C51.3883 87.1844 51.3806 87.1 51.3346 87.0617L50.6984 86.7014C50.6671 86.6835 50.6319 86.6734 50.5959 86.672C50.5598 86.6707 50.524 86.6782 50.4914 86.6938Z" fill="#111111"/>
<path d="M51.4358 86.1554L50.7689 86.5387C50.7152 86.5387 50.7229 86.623 50.7689 86.6537L51.4051 87.0217C51.437 87.0384 51.4725 87.0472 51.5086 87.0472C51.5446 87.0472 51.5802 87.0384 51.6121 87.0217L52.279 86.6384C52.3326 86.6384 52.325 86.5541 52.279 86.5157L51.6427 86.1554C51.6108 86.1387 51.5753 86.1299 51.5393 86.1299C51.5032 86.1299 51.4677 86.1387 51.4358 86.1554Z" fill="#111111"/>
<path d="M52.3741 85.633L51.7149 86.0163C51.6612 86.0163 51.6689 86.1006 51.7149 86.139L52.3435 86.4992C52.3767 86.5161 52.4135 86.5249 52.4508 86.5249C52.4881 86.5249 52.5248 86.5161 52.5581 86.4992L53.2174 86.116C53.271 86.116 53.2634 86.0316 53.2174 86.001L52.5888 85.633C52.5555 85.6162 52.5187 85.6074 52.4815 85.6074C52.4442 85.6074 52.4074 85.6162 52.3741 85.633Z" fill="#111111"/>
<path d="M53.3186 85.0676L52.6517 85.4509C52.598 85.4509 52.6057 85.5352 52.6517 85.5736L53.2879 85.9339C53.3198 85.9506 53.3554 85.9594 53.3914 85.9594C53.4275 85.9594 53.463 85.9506 53.4949 85.9339L54.1618 85.5506C54.2155 85.5506 54.2078 85.4586 54.1618 85.4279L53.5255 85.06C53.493 85.0444 53.4572 85.0369 53.4211 85.0382C53.3851 85.0396 53.3499 85.0497 53.3186 85.0676Z" fill="#111111"/>
<path d="M54.2552 84.5212L53.596 84.9044C53.5423 84.9044 53.55 84.9888 53.596 85.0271L54.2323 85.395C54.2647 85.4101 54.3 85.4179 54.3357 85.4179C54.3715 85.4179 54.4068 85.4101 54.4392 85.395L55.1061 85.0118C55.1598 85.0118 55.1521 84.9274 55.1061 84.8891L54.4699 84.5212C54.4362 84.5059 54.3996 84.498 54.3626 84.498C54.3256 84.498 54.289 84.5059 54.2552 84.5212Z" fill="#111111"/>
<path d="M55.1946 83.9762L54.5353 84.3595C54.4817 84.3595 54.4817 84.4438 54.5353 84.4822L55.1639 84.8501C55.1972 84.867 55.2339 84.8757 55.2712 84.8757C55.3085 84.8757 55.3453 84.867 55.3785 84.8501L56.0378 84.4668C56.0914 84.4668 56.0838 84.3825 56.0378 84.3442L55.4092 83.9762C55.3755 83.961 55.3389 83.9531 55.3019 83.9531C55.2649 83.9531 55.2283 83.961 55.1946 83.9762Z" fill="#111111"/>
<path d="M56.1379 83.4401L55.471 83.8157C55.4173 83.8157 55.425 83.9077 55.471 83.9384L56.1073 84.3063C56.1392 84.3231 56.1747 84.3319 56.2107 84.3319C56.2468 84.3319 56.2823 84.3231 56.3142 84.3063L56.9811 83.923C57.0348 83.923 57.0271 83.8387 56.9811 83.8004L56.3449 83.4401C56.3137 83.4212 56.2779 83.4111 56.2414 83.4111C56.2049 83.4111 56.1691 83.4212 56.1379 83.4401Z" fill="#111111"/>
<path d="M44.857 89.9514L43.7448 90.5957C43.6912 90.5957 43.6912 90.6801 43.7448 90.7184L44.3738 91.0789C44.4071 91.0958 44.4439 91.1045 44.4812 91.1045C44.5185 91.1045 44.5553 91.0958 44.5886 91.0789L45.7007 90.4346C45.7544 90.4346 45.7468 90.3503 45.7007 90.3119L45.0718 89.9514C45.0385 89.9346 45.0017 89.9258 44.9644 89.9258C44.9271 89.9258 44.8903 89.9346 44.857 89.9514Z" fill="#111111"/>
<path d="M57.9292 83.3921L57.2696 83.7756C57.2385 83.7905 57.2044 83.7983 57.1699 83.7983C57.1354 83.7983 57.1013 83.7905 57.0702 83.7756L56.4029 83.3844C56.3911 83.38 56.381 83.3722 56.3738 83.3619C56.3667 83.3516 56.3629 83.3394 56.3629 83.3269C56.3629 83.3143 56.3667 83.3021 56.3738 83.2918C56.381 83.2815 56.3911 83.2737 56.4029 83.2693H56.4566C56.5026 83.2693 56.5026 83.2003 56.4566 83.1696L55.7509 82.7631C55.6895 82.7631 55.6895 82.6787 55.7509 82.6481L56.1728 82.4026C56.2039 82.3877 56.238 82.3799 56.2725 82.3799C56.307 82.3799 56.3411 82.3877 56.3722 82.4026L57.0318 82.7861L57.1699 82.8628L57.2696 82.9242L57.3693 82.9779L57.9369 83.3077C57.9467 83.32 57.9514 83.3357 57.9499 83.3514C57.9485 83.3671 57.9411 83.3817 57.9292 83.3921Z" fill="#111111"/>
<path d="M41.7092 88.633L41.0423 89.0163C40.9886 89.0163 40.9963 89.1006 41.0423 89.1389L41.6785 89.4992C41.7097 89.5181 41.7455 89.5282 41.782 89.5282C41.8185 89.5282 41.8543 89.5181 41.8855 89.4992L42.5524 89.1236C42.6061 89.0852 42.5984 89.0316 42.5524 89.0009L41.9162 88.633C41.8842 88.6162 41.8487 88.6074 41.8127 88.6074C41.7766 88.6074 41.7411 88.6162 41.7092 88.633Z" fill="#111111"/>
<path d="M42.6164 88.0873L41.9495 88.4706C41.8959 88.4706 41.9035 88.5626 41.9495 88.5933L42.5858 88.9612C42.6177 88.978 42.6532 88.9868 42.6892 88.9868C42.7253 88.9868 42.7608 88.978 42.7927 88.9612L43.4596 88.5779C43.5133 88.5779 43.5056 88.4936 43.4596 88.4553L42.8234 88.095C42.7921 88.077 42.7569 88.0669 42.7209 88.0656C42.6848 88.0642 42.649 88.0717 42.6164 88.0873Z" fill="#111111"/>
<path d="M43.5539 87.5501L42.887 87.9333C42.8334 87.9333 42.841 88.0177 42.887 88.056L43.5233 88.4163C43.5552 88.4331 43.5907 88.4418 43.6267 88.4418C43.6628 88.4418 43.6983 88.4331 43.7302 88.4163L44.3971 88.033C44.4508 88.033 44.4431 87.941 44.3971 87.9104L43.7609 87.5424C43.7284 87.5268 43.6925 87.5193 43.6565 87.5207C43.6204 87.522 43.5852 87.5321 43.5539 87.5501Z" fill="#111111"/>
<path d="M51.5228 82.9475L50.8635 83.3308C50.8099 83.3308 50.8176 83.4151 50.8635 83.4534L51.4921 83.8137C51.5254 83.8305 51.5622 83.8393 51.5995 83.8393C51.6367 83.8393 51.6735 83.8305 51.7068 83.8137L52.366 83.4304C52.4273 83.4304 52.4197 83.3461 52.366 83.3078L51.7374 82.9475C51.7042 82.9306 51.6674 82.9219 51.6301 82.9219C51.5928 82.9219 51.5561 82.9306 51.5228 82.9475Z" fill="#111111"/>
<path d="M52.4494 82.4028L51.7825 82.7861C51.7289 82.7861 51.7365 82.8704 51.7825 82.9087L52.4188 83.2767C52.4512 83.2917 52.4865 83.2996 52.5223 83.2996C52.558 83.2996 52.5933 83.2917 52.6257 83.2767L53.2927 82.8934C53.3463 82.8934 53.3386 82.8091 53.2927 82.7707L52.6564 82.4028C52.624 82.3877 52.5887 82.3799 52.5529 82.3799C52.5172 82.3799 52.4818 82.3877 52.4494 82.4028Z" fill="#111111"/>
<path d="M53.3996 81.8693L52.7327 82.2526C52.6791 82.2526 52.6867 82.3369 52.7327 82.3752L53.369 82.7355C53.4009 82.7523 53.4364 82.7611 53.4725 82.7611C53.5085 82.7611 53.544 82.7523 53.5759 82.7355L54.2428 82.3522C54.2965 82.3522 54.2888 82.2679 54.2428 82.2373L53.6066 81.8693C53.5747 81.8525 53.5392 81.8438 53.5031 81.8438C53.4671 81.8438 53.4316 81.8525 53.3996 81.8693Z" fill="#111111"/>
<path d="M54.3381 81.3237L53.6712 81.707C53.6175 81.707 53.6252 81.7913 53.6712 81.8296L54.3074 82.1976C54.3399 82.2126 54.3752 82.2205 54.4109 82.2205C54.4467 82.2205 54.482 82.2126 54.5144 82.1976L55.1813 81.8143C55.235 81.8143 55.2273 81.73 55.1813 81.6916L54.5451 81.3237C54.5127 81.3086 54.4773 81.3008 54.4416 81.3008C54.4058 81.3008 54.3705 81.3086 54.3381 81.3237Z" fill="#111111"/>
<path d="M44.7279 86.8682L43.8228 87.3897C43.7691 87.3897 43.7768 87.4818 43.8228 87.5125L44.4594 87.8806C44.4914 87.8974 44.5269 87.9062 44.563 87.9062C44.5991 87.9062 44.6346 87.8974 44.6665 87.8806L45.5486 87.3667C45.6023 87.3667 45.6023 87.2824 45.5486 87.244L44.9196 86.8758C44.859 86.849 44.7905 86.8463 44.7279 86.8682Z" fill="#111111"/>
<path d="M50.5839 83.486L49.6788 84.0076C49.6251 84.0076 49.6328 84.092 49.6788 84.1303L50.3154 84.4985C50.3479 84.5136 50.3832 84.5214 50.419 84.5214C50.4548 84.5214 50.4901 84.5136 50.5225 84.4985L51.4276 83.9769C51.4813 83.9769 51.4813 83.8925 51.4276 83.8542L50.7987 83.486C50.7649 83.4708 50.7283 83.4629 50.6913 83.4629C50.6543 83.4629 50.6176 83.4708 50.5839 83.486Z" fill="#111111"/>
<path d="M49.3835 84.1691L44.9732 86.7156C44.9195 86.7156 44.9272 86.8 44.9732 86.8383L45.6021 87.1988C45.6354 87.2157 45.6722 87.2244 45.7095 87.2244C45.7468 87.2244 45.7836 87.2157 45.8169 87.1988L50.2272 84.6523C50.2809 84.6523 50.2732 84.568 50.2272 84.5373L49.5906 84.1691C49.5587 84.1523 49.5231 84.1436 49.487 84.1436C49.4509 84.1436 49.4154 84.1523 49.3835 84.1691Z" fill="#111111"/>
<path d="M45.141 88.7018L44.4818 89.0851C44.4281 89.0851 44.4358 89.1694 44.4818 89.2078L45.1104 89.5757C45.1441 89.591 45.1807 89.5988 45.2177 89.5988C45.2547 89.5988 45.2913 89.591 45.325 89.5757L45.9843 89.1924C46.0379 89.1924 46.0379 89.1081 45.9843 89.0698L45.3557 88.7018C45.322 88.6866 45.2854 88.6787 45.2484 88.6787C45.2113 88.6787 45.1748 88.6866 45.141 88.7018Z" fill="#111111"/>
<path d="M46.0852 88.1879L45.4183 88.5712C45.3646 88.5712 45.3723 88.6632 45.4183 88.6938L46.0545 89.0618C46.0864 89.0786 46.122 89.0873 46.158 89.0873C46.1941 89.0873 46.2296 89.0786 46.2615 89.0618L46.9284 88.6785C46.9821 88.6785 46.9744 88.5942 46.9284 88.5559L46.2921 88.1956C46.2609 88.1776 46.2257 88.1675 46.1896 88.1662C46.1536 88.1648 46.1177 88.1723 46.0852 88.1879Z" fill="#111111"/>
<path d="M47.0237 87.6516L46.3567 88.0349C46.3031 88.0349 46.3108 88.1192 46.3567 88.1576L46.993 88.5178C47.0263 88.5347 47.063 88.5435 47.1003 88.5435C47.1376 88.5435 47.1744 88.5347 47.2076 88.5178L47.8669 88.1346C47.9205 88.0962 47.9129 88.0426 47.8669 88.0119L47.2306 87.644C47.1981 87.6283 47.1622 87.6209 47.1262 87.6222C47.0901 87.6236 47.0549 87.6337 47.0237 87.6516Z" fill="#111111"/>
<path d="M47.9552 87.1051L47.2959 87.4884C47.2423 87.4884 47.25 87.5728 47.2959 87.6111L47.9245 87.979C47.9583 87.9943 47.9948 88.0022 48.0319 88.0022C48.0689 88.0022 48.1054 87.9943 48.1392 87.979L48.7984 87.5958C48.8521 87.5958 48.8444 87.5114 48.7984 87.4731L48.1698 87.1051C48.1361 87.0899 48.0995 87.082 48.0625 87.082C48.0255 87.082 47.9889 87.0899 47.9552 87.1051Z" fill="#111111"/>
<path d="M48.8987 86.5675L48.2317 86.9508C48.1781 86.9508 48.1858 87.0352 48.2317 87.0735L48.868 87.4338C48.8999 87.4505 48.9354 87.4593 48.9715 87.4593C49.0075 87.4593 49.0431 87.4505 49.075 87.4338L49.7419 87.0505C49.7955 87.0505 49.7879 86.9662 49.7419 86.9278L49.1056 86.5675C49.0737 86.5508 49.0382 86.542 49.0021 86.542C48.9661 86.542 48.9306 86.5508 48.8987 86.5675Z" fill="#111111"/>
<path d="M49.8371 86.0219L49.1702 86.4052C49.1166 86.4052 49.1242 86.4895 49.1702 86.5278L49.8065 86.8958C49.8389 86.9109 49.8742 86.9187 49.91 86.9187C49.9457 86.9187 49.981 86.9109 50.0134 86.8958L50.6803 86.5125C50.734 86.5125 50.7263 86.4282 50.6803 86.3899L50.0441 86.0219C50.0117 86.0068 49.9764 85.999 49.9406 85.999C49.9049 85.999 49.8695 86.0068 49.8371 86.0219Z" fill="#111111"/>
<path d="M50.7679 85.4819L50.1086 85.8652C50.055 85.8652 50.055 85.9572 50.1086 85.9878L50.7372 86.3558C50.7705 86.3726 50.8073 86.3814 50.8446 86.3814C50.8818 86.3814 50.9186 86.3726 50.9519 86.3558L51.6111 85.9725C51.6648 85.9725 51.6571 85.8882 51.6111 85.8499L50.9825 85.4896C50.9499 85.4715 50.9134 85.4614 50.8761 85.4601C50.8388 85.4588 50.8018 85.4662 50.7679 85.4819Z" fill="#111111"/>
<path d="M51.68 84.9436L51.0208 85.3269C50.9671 85.3269 50.9748 85.4112 51.0208 85.4495L51.6494 85.8098C51.682 85.8286 51.719 85.8386 51.7567 85.8386C51.7943 85.8386 51.8314 85.8286 51.864 85.8098L52.5232 85.4342C52.5769 85.4342 52.5769 85.3422 52.5232 85.3115L51.8946 84.9436C51.8614 84.9267 51.8246 84.918 51.7873 84.918C51.75 84.918 51.7133 84.9267 51.68 84.9436Z" fill="#111111"/>
<path d="M52.6516 84.3989L51.9847 84.7822C51.931 84.7822 51.9387 84.8665 51.9847 84.9048L52.6209 85.2728C52.6533 85.2878 52.6887 85.2957 52.7244 85.2957C52.7602 85.2957 52.7955 85.2878 52.8279 85.2728L53.4948 84.8895C53.5485 84.8895 53.5408 84.8051 53.4948 84.7668L52.8586 84.3989C52.8261 84.3838 52.7908 84.376 52.7551 84.376C52.7193 84.376 52.684 84.3838 52.6516 84.3989Z" fill="#111111"/>
<path d="M53.5872 83.8616L52.9279 84.2449C52.8666 84.2449 52.8743 84.3292 52.9279 84.3598L53.5642 84.7278C53.5975 84.7446 53.6342 84.7534 53.6715 84.7534C53.7088 84.7534 53.7456 84.7446 53.7788 84.7278L54.4381 84.3445C54.4917 84.3445 54.4841 84.2602 54.4381 84.2219L53.8095 83.8616C53.7752 83.8435 53.7371 83.834 53.6983 83.834C53.6596 83.834 53.6214 83.8435 53.5872 83.8616Z" fill="#111111"/>
<path d="M54.5206 83.3324L53.8614 83.7157C53.8077 83.7157 53.8154 83.8 53.8614 83.8383L54.49 84.2063C54.5237 84.2215 54.5603 84.2294 54.5973 84.2294C54.6343 84.2294 54.6709 84.2215 54.7046 84.2063L55.3638 83.823C55.4175 83.823 55.4098 83.7387 55.3638 83.7004L54.7506 83.3324C54.7154 83.3129 54.6758 83.3027 54.6356 83.3027C54.5954 83.3027 54.5558 83.3129 54.5206 83.3324Z" fill="#111111"/>
<path d="M55.4641 82.7709L54.7972 83.1542C54.7435 83.1542 54.7512 83.2462 54.7972 83.2769L55.4334 83.6448C55.4653 83.6616 55.5008 83.6704 55.5369 83.6704C55.573 83.6704 55.6085 83.6616 55.6404 83.6448L56.3073 83.2615C56.361 83.2615 56.3533 83.1772 56.3073 83.1389L55.6711 82.7786C55.6398 82.7606 55.6046 82.7505 55.5685 82.7492C55.5325 82.7478 55.4966 82.7553 55.4641 82.7709Z" fill="#111111"/>
<path d="M44.2018 89.2768L42.8289 90.0439C42.7752 90.0439 42.7829 90.1282 42.8289 90.1666L43.4655 90.5347C43.498 90.5498 43.5333 90.5577 43.5691 90.5577C43.6048 90.5577 43.6402 90.5498 43.6726 90.5347L45.0456 89.7677C45.0993 89.7677 45.0916 89.6834 45.0456 89.645L44.4166 89.2845C44.3839 89.2665 44.3475 89.2564 44.3102 89.255C44.2728 89.2537 44.2357 89.2612 44.2018 89.2768Z" fill="#111111"/>
<path d="M43.7688 88.4787L43.1095 88.862C43.0482 88.862 43.0559 88.9463 43.1095 88.977L43.7381 89.345C43.7714 89.3618 43.8081 89.3706 43.8454 89.3706C43.8827 89.3706 43.9195 89.3618 43.9528 89.345L44.612 88.9617C44.6656 88.9617 44.658 88.8774 44.612 88.839L43.9834 88.4787C43.9501 88.4619 43.9134 88.4531 43.8761 88.4531C43.8388 88.4531 43.802 88.4619 43.7688 88.4787Z" fill="#111111"/>
<path d="M44.7052 87.9338L44.046 88.3171C43.9923 88.3171 44 88.4014 44.046 88.4397L44.6745 88.8077C44.7082 88.8229 44.7448 88.8308 44.7819 88.8308C44.8189 88.8308 44.8555 88.8229 44.8892 88.8077L45.5484 88.4244C45.6021 88.4244 45.5944 88.3401 45.5484 88.3018L44.9198 87.9338C44.8866 87.917 44.8498 87.9082 44.8125 87.9082C44.7752 87.9082 44.7385 87.917 44.7052 87.9338Z" fill="#111111"/>
<path d="M45.6438 87.3881L44.9769 87.7714C44.9232 87.7714 44.9309 87.8634 44.9769 87.894L45.6131 88.262C45.645 88.2788 45.6805 88.2875 45.7166 88.2875C45.7527 88.2875 45.7882 88.2788 45.8201 88.262L46.487 87.8787C46.5406 87.8787 46.533 87.7944 46.487 87.7561L45.8507 87.3958C45.8195 87.3778 45.7843 87.3677 45.7482 87.3664C45.7121 87.365 45.6763 87.3725 45.6438 87.3881Z" fill="#111111"/>
<path d="M46.5813 86.8547L45.9144 87.2379C45.8607 87.2379 45.8684 87.3223 45.9144 87.3606L46.5506 87.7209C46.5818 87.7398 46.6176 87.7498 46.6541 87.7498C46.6906 87.7498 46.7264 87.7398 46.7576 87.7209L47.4245 87.3453C47.4781 87.3069 47.4705 87.2533 47.4245 87.2226L46.7882 86.8547C46.7563 86.8379 46.7208 86.8291 46.6848 86.8291C46.6487 86.8291 46.6132 86.8379 46.5813 86.8547Z" fill="#111111"/>
<path d="M47.5198 86.3093L46.8605 86.6925C46.8069 86.6925 46.8069 86.7769 46.8605 86.8152L47.4891 87.1831C47.5228 87.1984 47.5594 87.2063 47.5964 87.2063C47.6334 87.2063 47.67 87.1984 47.7037 87.1831L48.363 86.7999C48.4166 86.7999 48.409 86.7155 48.363 86.6772L47.7344 86.3093C47.7007 86.294 47.6641 86.2861 47.6271 86.2861C47.5901 86.2861 47.5535 86.294 47.5198 86.3093Z" fill="#111111"/>
<path d="M48.4526 85.7717L47.7933 86.155C47.7397 86.155 47.7473 86.2393 47.7933 86.27L48.4219 86.6379C48.4552 86.6548 48.4919 86.6635 48.5292 86.6635C48.5665 86.6635 48.6033 86.6548 48.6366 86.6379L49.2958 86.2546C49.3495 86.2546 49.3495 86.1703 49.2958 86.132L48.6672 85.7717C48.634 85.7549 48.5972 85.7461 48.5599 85.7461C48.5226 85.7461 48.4858 85.7549 48.4526 85.7717Z" fill="#111111"/>
<path d="M49.384 85.226L48.7171 85.6093C48.6634 85.6093 48.6711 85.6936 48.7171 85.732L49.3533 86.0999C49.3858 86.115 49.4211 86.1228 49.4568 86.1228C49.4926 86.1228 49.5279 86.115 49.5603 86.0999L50.2272 85.7166C50.2809 85.7166 50.2732 85.6323 50.2272 85.594L49.591 85.226C49.5586 85.2109 49.5232 85.2031 49.4875 85.2031C49.4517 85.2031 49.4164 85.2109 49.384 85.226Z" fill="#111111"/>
<path d="M50.3342 84.6821L49.6673 85.0653C49.6136 85.0653 49.6213 85.1573 49.6673 85.188L50.3035 85.5559C50.3355 85.5727 50.371 85.5815 50.407 85.5815C50.4431 85.5815 50.4786 85.5727 50.5105 85.5559L51.1774 85.1727C51.2311 85.1727 51.2234 85.0883 51.1774 85.05L50.5412 84.6897C50.5099 84.6717 50.4747 84.6616 50.4386 84.6603C50.4026 84.659 50.3667 84.6664 50.3342 84.6821Z" fill="#111111"/>
<path d="M51.2726 84.1449L50.6133 84.5281C50.5597 84.5281 50.5673 84.6125 50.6133 84.6508L51.2419 85.0111C51.2752 85.0279 51.3119 85.0367 51.3492 85.0367C51.3865 85.0367 51.4233 85.0279 51.4566 85.0111L52.1158 84.6278C52.1695 84.6278 52.1618 84.5358 52.1158 84.5051L51.4872 84.1372C51.4534 84.1215 51.4163 84.1141 51.379 84.1154C51.3417 84.1167 51.3052 84.1268 51.2726 84.1449Z" fill="#111111"/>
<path d="M52.2035 83.5983L51.5442 83.9816C51.4906 83.9816 51.4982 84.0659 51.5442 84.1042L52.1728 84.4722C52.2065 84.4874 52.2431 84.4953 52.2801 84.4953C52.3171 84.4953 52.3537 84.4874 52.3874 84.4722L53.0467 84.0889C53.108 84.0889 53.1003 84.0046 53.0467 83.9663L52.4181 83.5983C52.3844 83.5831 52.3478 83.5752 52.3108 83.5752C52.2738 83.5752 52.2372 83.5831 52.2035 83.5983Z" fill="#111111"/>
<path d="M53.1496 83.0646L52.4827 83.4479C52.4291 83.4479 52.4367 83.5322 52.4827 83.5705L53.119 83.9308C53.1509 83.9476 53.1864 83.9564 53.2225 83.9564C53.2585 83.9564 53.294 83.9476 53.3259 83.9308L53.9928 83.5476C54.0465 83.5476 54.0388 83.4632 53.9928 83.4326L53.3566 83.0646C53.3247 83.0478 53.2892 83.0391 53.2531 83.0391C53.2171 83.0391 53.1816 83.0478 53.1496 83.0646Z" fill="#111111"/>
<path d="M55.244 81.8528L53.4186 82.9036C53.3649 82.9036 53.3725 82.9879 53.4186 83.0263L54.0552 83.3945C54.0889 83.4097 54.1255 83.4176 54.1626 83.4176C54.1996 83.4176 54.2362 83.4097 54.2699 83.3945L56.0878 82.336C56.1415 82.336 56.1415 82.2516 56.0878 82.2209L55.4588 81.8528C55.4255 81.8359 55.3887 81.8271 55.3514 81.8271C55.3141 81.8271 55.2773 81.8359 55.244 81.8528Z" fill="#111111"/>
<path d="M42.8297 89.0161L41.9247 89.5376C41.871 89.5376 41.8787 89.6297 41.9247 89.6604L42.5536 90.0285C42.5869 90.0454 42.6236 90.0542 42.6609 90.0542C42.6982 90.0542 42.735 90.0454 42.7683 90.0285L43.6734 89.507C43.7271 89.507 43.7194 89.4226 43.6734 89.3842L43.0368 89.0161C43.0043 89.001 42.969 88.9932 42.9332 88.9932C42.8975 88.9932 42.8621 89.001 42.8297 89.0161Z" fill="#111111"/>
<path d="M58.9127 83.9676L45.5974 91.6377C45.5437 91.6377 45.5437 91.722 45.5974 91.7604L45.9119 91.9368C45.9438 91.9536 45.9794 91.9624 46.0154 91.9624C46.0515 91.9624 46.0871 91.9536 46.119 91.9368L59.4419 84.2667C59.4956 84.2667 59.488 84.1823 59.4419 84.144L59.1275 83.9599C59.0932 83.9459 59.0563 83.9393 59.0193 83.9406C58.9822 83.9419 58.9459 83.9511 58.9127 83.9676Z" fill="#111111"/>
<path d="M43.3279 84.3137L43.42 84.3597L45.721 85.6943L49.8092 83.3319L49.8936 83.2782L47.5082 81.9053L43.3279 84.3137Z" fill="#BFBFBF"/>
<path d="M43.4224 84.3596L45.7235 85.6942L49.8116 83.3318L47.5106 82.0049L43.4224 84.3596Z" fill="#E5E5E5"/>
<path d="M36.7688 87.4139V87.621C36.7676 87.7681 36.8053 87.913 36.878 88.041C36.9507 88.1689 37.0559 88.2754 37.183 88.3496L45.298 93.0284C45.4245 93.1033 45.5689 93.1428 45.716 93.1428C45.8631 93.1428 46.0074 93.1033 46.134 93.0284L60.8146 84.5913C60.9483 84.5143 61.0584 84.402 61.1328 84.2668C61.2071 84.1315 61.243 83.9785 61.2364 83.8243V83.6172L45.7198 92.5759L36.7688 87.4139Z" fill="#E5E5E5"/>
<path d="M45.9534 92.7073C46.092 92.7619 46.2412 92.7848 46.3899 92.7742C46.5385 92.7635 46.6829 92.7197 46.8124 92.646L61.3856 84.2088C61.5129 84.1356 61.6223 84.035 61.7059 83.9143C61.7894 83.7936 61.8451 83.6558 61.8688 83.5109L63.4719 73.9693C63.4757 73.9156 63.4757 73.8618 63.4719 73.8082C63.4723 73.6765 63.446 73.546 63.3946 73.4247C63.3432 73.3034 63.2677 73.1938 63.1727 73.1025L47.9859 81.8695C47.8944 81.9257 47.8157 82.0004 47.755 82.089C47.6942 82.1775 47.6527 82.2778 47.6331 82.3834L45.9534 92.7073Z" fill="#F4F4F4"/>
<path d="M45.7236 92.5827L45.8233 92.6441L45.9537 92.7054L47.6871 82.3815C47.7067 82.2759 47.7482 82.1756 47.809 82.0871C47.8697 81.9986 47.9484 81.9238 48.0399 81.8676L63.1884 73.1007C63.1324 73.0372 63.0647 72.9851 62.989 72.9473L47.7715 81.7295C47.6785 81.7849 47.5984 81.8593 47.5363 81.9479C47.4741 82.0365 47.4314 82.1372 47.411 82.2434L45.7236 92.5827Z" fill="#E5E5E5"/>
<path d="M34.6849 51.7578C34.6849 51.7578 34.8766 55.3858 34.7922 55.7079C34.7079 56.0301 33.1278 57.0962 32.6676 57.4797C32.2074 57.8632 35.1757 60.7932 36.6177 61.4528C38.0597 62.1124 42.6464 60.3713 42.7538 58.1163C42.8612 55.8613 41.9868 53.9821 41.2658 53.8824C40.5448 53.7827 34.6849 51.7578 34.6849 51.7578Z" fill="#FFCEA9"/>
<path d="M34.2858 56.3348C34.2858 56.3348 36.9166 60.2618 40.5906 60.63C41.7488 59.4872 41.8562 55.422 40.2531 54.1258C40.2531 54.1258 41.7258 52.9292 42.7382 53.167C43.8348 53.815 44.6541 54.8445 45.0393 56.0586C45.9801 58.769 46.4193 61.628 46.3355 64.4957C46.2742 68.3308 46.3355 78.0795 46.3355 78.0795C46.1199 79.2296 45.6633 80.3211 44.9957 81.2822C44.3281 82.2433 43.4647 83.0522 42.4621 83.6556C39.8066 85.162 36.6755 85.5956 33.7105 84.8675C31.8467 84.4303 31.1564 83.3949 30.5121 82.0373C30.6808 79.3451 31.747 73.7842 31.2791 70.3864C30.8112 66.9885 30.1133 64.4574 29.9292 61.7192C29.7451 58.9809 30.2897 59.027 31.6703 58.0452C32.4996 57.4125 33.3737 56.8409 34.2858 56.3348Z" fill="#F4F4F4"/>
<path d="M38.5008 87.6201C37.8404 87.1804 37.151 86.7857 36.4375 86.4389C35.7723 86.2267 35.1674 85.8585 34.6734 85.365C34.0291 84.7361 32.9706 82.343 32.2113 79.996C31.4556 77.3639 31.1572 74.6217 31.3292 71.8887C31.6437 68.6136 32.8249 64.0345 33.124 62.1553C33.4232 60.2762 32.8172 59.5168 31.9352 58.8265C30.9074 58.0135 29.4884 58.374 28.729 61.0125C27.7512 64.6629 27.1852 68.4114 27.0416 72.1878C27.0104 74.9932 27.4432 77.7844 28.3225 80.4485C29.1045 82.7307 30.1604 84.9096 31.4673 86.9374C31.8278 87.5434 31.9505 88.0879 32.5027 89.3305C33.033 90.579 33.8597 91.6795 34.9112 92.5366C35.8316 93.1962 36.2688 93.3036 36.4912 93.1655C36.7136 93.0275 36.706 92.713 36.3148 92.3985C35.6618 91.8852 35.1059 91.2592 34.6734 90.55C34.6734 90.55 35.4788 91.3631 36.008 91.8079C36.4737 92.2015 36.9896 92.5316 37.542 92.7897C38.0789 93.0275 38.8306 92.5673 38.4471 92.2068C38.0636 91.8463 37.6801 91.6622 36.9131 90.9949C36.5003 90.6448 36.132 90.2456 35.8162 89.806C36.3559 90.2216 36.9279 90.5935 37.5267 90.9182C37.9891 91.198 38.5202 91.344 39.0607 91.3401C39.3445 91.3401 39.6896 90.9259 39.1527 90.573C38.4147 90.1733 37.7271 89.6866 37.1048 89.1234C36.5142 88.5405 36.1844 88.0419 36.3378 88.0342C36.4912 88.0266 36.8287 88.3871 37.519 88.6095C38.2093 88.8319 38.9533 88.6095 39.053 88.249C39.1527 87.8885 39.1451 87.9345 38.5008 87.6201Z" fill="#FFCEA9"/>
<path d="M42.9073 46.3406C42.4701 43.5257 40.4376 41.3934 37.5383 41.5545C36.3689 41.6139 35.2478 42.0395 34.3335 42.771C33.4192 43.5025 32.758 44.5029 32.4434 45.6308C32.1288 46.7586 32.1767 47.9568 32.5803 49.0559C32.984 50.1551 33.7229 51.0995 34.6927 51.7557C34.7955 52.1834 34.9473 52.5977 35.1452 52.9906C36.1653 54.1871 39.2717 54.9541 40.1768 54.8007C40.7063 54.7526 41.209 54.5462 41.6194 54.2082C42.0298 53.8703 42.329 53.4166 42.4778 52.9062C43.4443 50.6972 43.1451 47.7366 42.9073 46.3406Z" fill="#FFCEA9"/>
<path d="M34.6848 51.7563L34.9532 49.2942C34.9532 49.2942 32.9437 44.0939 37.6914 45.091C40.8208 45.7506 41.6109 46.0421 42.5619 43.9405C43.513 41.8389 40.1765 39.9443 36.1651 40.4736C34.7903 40.6157 33.5192 41.2696 32.6042 42.3054C31.6892 43.3413 31.197 44.6833 31.2255 46.0651C31.3252 47.6144 31.7394 50.7438 34.6848 51.7563Z" fill="#111111"/>
<path d="M26.5603 65.8706C26.5603 65.8706 29.1528 68.4477 32.2132 67.7037C32.6504 67.4046 33.7089 61.3836 33.7089 61.3836C33.7089 61.3836 33.7089 58.0471 31.1471 58.1315C28.5853 58.2158 26.5603 65.8706 26.5603 65.8706Z" fill="#EDEDED"/>
<path d="M46.1196 60.8678C46.8446 60.8417 47.5315 60.5367 48.0371 60.0164C47.9297 58.6665 46.204 53.5428 42.7371 53.167C43.6802 53.8284 44.4274 54.732 44.9 55.7825C45.4396 57.4429 45.8473 59.1433 46.1196 60.8678Z" fill="#EDEDED"/>
<path d="M322.326 140.267L329.321 136.677L343.979 145.114C347.3 147.032 350 145.482 350 141.64V125.671C349.887 123.581 349.282 121.548 348.236 119.735C347.19 117.923 345.732 116.383 343.979 115.239L256.686 64.8237C253.364 62.9062 250.665 64.4632 250.665 68.2983V84.3211C250.778 86.4107 251.382 88.4441 252.428 90.2565C253.474 92.0689 254.933 93.6092 256.686 94.7525L315.377 128.608" fill="#B1B4C4"/>
<path d="M252.854 64.2031L249.555 65.5377L252.347 68.4063L254.326 65.2386L252.854 64.2031Z" fill="#B1B4C4"/>
<path d="M322.325 140.267L318.851 141.663L318.843 138.671L321.919 138.058L322.325 140.267Z" fill="#B1B4C4"/>
<path d="M344.195 147.216C344.064 147.492 347.961 145.897 348.099 145.682C348.237 145.468 343.374 142.614 343.374 142.614L344.195 147.216Z" fill="#B1B4C4"/>
<path d="M311.902 129.995L253.211 96.1158C251.459 94.9712 250.002 93.4305 248.956 91.6184C247.91 89.8063 247.305 87.7736 247.19 85.6845V69.6923C247.19 65.8573 249.889 64.3232 253.211 66.2101L340.535 116.626C342.286 117.77 343.744 119.31 344.79 121.123C345.836 122.935 346.441 124.968 346.556 127.057V143.049C346.556 146.884 343.856 148.418 340.535 146.524L325.877 138.087L318.851 141.684L311.902 129.995Z" fill="#E9EAF2"/>
<path d="M255.021 80.1271L338.725 128.449V122.888L255.021 74.5586V80.1271Z" fill="#3D117E"/>
<path d="M283.922 106.549L338.725 138.188V132.62L283.922 100.98V106.549Z" fill="#3D117E"/>
</g>
<defs>
<linearGradient id="paint0_linear_201_1474" x1="103.626" y1="199.781" x2="39.8848" y2="88.8716" gradientUnits="userSpaceOnUse">
<stop offset="0.21" stop-color="white" stop-opacity="0"/>
<stop offset="1" stop-color="white" stop-opacity="0.2"/>
</linearGradient>
<clipPath id="clip0_201_1474">
<rect width="350" height="362" fill="white"/>
</clipPath>
</defs>
</svg>
