<svg width="350" height="272" viewBox="0 0 350 272" fill="none" xmlns="http://www.w3.org/2000/svg">
<g clip-path="url(#clip0_204_114)">
<mask id="mask0_204_114" style="mask-type:luminance" maskUnits="userSpaceOnUse" x="0" y="0" width="350" height="272">
<path d="M350 0H0V271.775H350V0Z" fill="white"/>
</mask>
<g mask="url(#mask0_204_114)">
<path opacity="0.4" d="M203.791 191.856L96.054 131.6C91.812 129.15 92.344 124.866 97.244 122.038L140.791 96.8942C145.691 94.0942 153.111 93.7582 157.353 96.1942L265.09 156.471C269.339 158.921 268.807 163.198 263.9 166.033L220.353 191.17C215.453 194.005 208.04 194.313 203.791 191.856Z" fill="#D6D8E5"/>
<path opacity="0.4" d="M240.603 149.527C214.815 149.527 189.034 143.864 169.399 132.531C150.086 121.38 139.446 106.456 139.446 90.5309C139.446 74.6059 150.086 59.6749 169.399 48.5309C208.655 25.8579 272.537 25.8649 311.8 48.5309C331.113 59.6819 341.753 74.5989 341.753 90.5309C341.753 106.463 331.113 121.394 311.8 132.531C292.179 143.864 266.384 149.527 240.603 149.527ZM240.603 34.5869C215.403 34.5869 190.203 40.1239 170.967 51.2119C152.662 61.7819 142.575 75.7119 142.575 90.5169C142.575 105.322 152.662 119.252 170.967 129.822C209.369 151.991 271.851 151.998 310.267 129.822C328.579 119.259 338.659 105.322 338.659 90.5169C338.659 75.7119 328.572 61.8169 310.267 51.2119C291.038 40.1239 265.817 34.5869 240.596 34.5869H240.603Z" fill="#D6D8E5"/>
<path d="M163.24 44.401C205.94 19.733 275.24 19.733 317.94 44.401C333.564 53.424 343.462 64.491 347.662 76.118C354.942 55.958 345.037 34.118 317.94 18.501C275.24 -6.167 205.94 -6.167 163.24 18.501C136.143 34.146 126.238 55.958 133.518 76.111C137.718 64.491 147.616 53.417 163.24 44.401Z" fill="#111111"/>
<path d="M348.922 54.292C347.787 58.8918 345.895 63.2706 343.322 67.249C338.037 75.6 329.588 83.412 317.996 90.111C275.296 114.779 205.996 114.779 163.296 90.111C151.655 83.412 143.206 75.6 137.9 67.263C136.126 64.4905 134.659 61.5331 133.525 58.443C132.484 61.3007 131.779 64.2701 131.425 67.291C129.437 84.791 140.028 102.711 163.226 116.109C205.926 140.777 275.226 140.777 317.926 116.109C339.43 103.698 350.126 87.409 349.965 71.127V63.161L348.922 54.292Z" fill="#333A47"/>
<path d="M299.103 67.046L297.703 66.234C270.942 55.937 246.19 57.932 225.841 46.2C205.492 34.468 201.103 11.116 192.5 5.50898L187.334 2.51998C182.903 -0.0420246 179.305 2.67398 179.305 8.58898V62.132C179.305 68.047 182.903 74.914 187.334 77.476L299.103 142.002C303.534 144.564 307.132 141.848 307.132 135.933V82.39C307.132 76.475 303.534 69.608 299.103 67.046Z" fill="#111111"/>
<path d="M270.927 162.071L304.933 142.009L259.447 109.067L270.927 162.071Z" fill="#111111"/>
<path d="M145.907 23.422L182.447 1.91797L190.231 57.575L145.907 23.422Z" fill="#111111"/>
<path d="M267.994 160.258L156.232 95.7318C151.794 93.1698 148.196 86.3028 148.196 80.3878V26.8448C148.196 20.9298 151.794 18.2138 156.232 20.7758L267.994 85.3018C272.432 87.8638 276.023 94.7308 276.023 100.646V154.189C276.023 160.104 272.432 162.82 267.994 160.258Z" fill="#EBEEFC"/>
<path d="M108.374 44.933C109.074 44.723 151.354 20.272 151.354 20.272L190.232 118.531L108.374 44.933Z" fill="#EBEEFC"/>
<path d="M225.056 188.356L273.615 160.524L224.286 79.5059L206.317 99.6449L190.231 139.349L225.056 188.356Z" fill="#EBEEFC"/>
<path d="M225.49 184.604L113.728 120.078C109.29 117.516 105.692 110.649 105.692 104.734V51.191C105.692 45.276 109.29 42.56 113.728 45.115L225.49 109.648C229.928 112.21 233.526 119.077 233.526 124.992V178.535C233.526 184.45 229.928 187.166 225.49 184.604Z" fill="#111111"/>
<path d="M99.0986 50.3579L108.717 44.5688V66.0308L99.0986 50.3579Z" fill="#111111"/>
<path d="M220.843 190.946L230.832 184.968L221.242 173.11L220.843 190.946Z" fill="#111111"/>
<path d="M215.642 190.498L103.873 126C99.4417 123.438 95.8438 116.564 95.8438 110.649V57.0851C95.8438 51.1701 99.4417 48.4471 103.873 51.0091L215.642 115.535C220.073 118.097 223.671 124.971 223.671 130.886V184.422C223.671 190.337 220.073 193.06 215.642 190.498Z" fill="#333A47"/>
<path d="M212.722 184.849L104.474 122.346C101.142 120.428 98.4473 115.276 98.4473 110.838V61.215C98.4473 56.777 101.142 54.74 104.474 56.658L212.722 119.161C216.047 121.079 218.749 126.231 218.749 130.669V180.292C218.749 184.73 216.047 186.767 212.722 184.849Z" fill="#414854"/>
<path d="M262.934 153.762L245.623 163.758C242.823 165.361 240.604 163.66 240.604 159.964V141.764C240.604 138.068 242.851 133.777 245.623 132.174L262.934 122.178C265.734 120.575 267.96 122.276 267.96 125.972V144.172C267.96 147.868 265.713 152.159 262.934 153.762Z" fill="#CFD3E2"/>
<path d="M162.686 113.085C161.167 114.317 158.927 113.19 158.815 113.302C157.034 114.959 155.165 116.517 153.215 117.971C152.27 118.713 150.793 119.707 151.066 121.142C151.542 123.697 155.637 122.913 157.184 122.129C158.731 121.345 159.984 120.029 161.447 119.14C162.49 118.496 163.547 118.16 163.68 116.844C163.799 116.046 162.952 113.05 162.686 113.085Z" fill="#38226D"/>
<path d="M163.652 116.312C163.456 117.572 162.441 117.915 161.405 118.559C159.921 119.483 158.605 120.813 157.065 121.597C155.665 122.297 152.081 123.039 151.08 121.212C151.619 123.676 155.644 122.906 157.177 122.129C158.71 121.352 159.977 120.029 161.44 119.14C162.483 118.496 163.54 118.16 163.673 116.844C163.686 116.666 163.679 116.488 163.652 116.312Z" fill="#9C73FF"/>
<path d="M147.286 104.216C145.767 105.448 143.086 104.104 143.002 104.216C141.422 105.816 139.751 107.323 137.997 108.731C137.045 109.48 135.575 110.474 135.841 111.902C136.317 114.464 140.412 113.673 141.959 112.896C143.506 112.119 144.759 110.796 146.229 109.907C147.272 109.256 148.294 108.92 148.455 107.604C148.553 106.813 147.559 104.181 147.286 104.216Z" fill="#38226D"/>
<path d="M148.399 107.254C148.196 108.514 147.181 108.864 146.152 109.508C144.661 110.432 143.352 111.762 141.812 112.546C140.412 113.246 136.821 113.981 135.82 112.154C136.366 114.625 140.391 113.848 141.917 113.071C143.443 112.294 144.717 110.971 146.187 110.089C147.23 109.438 148.252 109.102 148.42 107.786C148.433 107.609 148.426 107.43 148.399 107.254Z" fill="#9C73FF"/>
<path d="M182.979 64.4003C184.666 74.9003 179.99 78.8343 173.921 81.0673C169.567 82.6703 163.323 85.1413 163.323 85.1413C163.323 85.1413 163.407 87.4513 163.456 92.6313C163.498 97.1883 162.896 113.834 162.896 113.834C162.896 113.834 160.383 115.136 158.255 113.778C158.255 113.778 155.805 101.031 155.287 95.2773C154.587 87.4793 153.383 82.3763 153.782 80.6963C154.132 79.2193 162.658 75.0263 165.367 72.7863L147.503 78.7643C147.86 80.7014 148.034 82.6677 148.021 84.6373C147.86 90.8253 147.517 104.237 147.517 104.237C147.517 104.237 145.067 106.008 142.981 104.237C142.981 104.237 138.487 77.7143 139.026 74.2073C139.544 70.8753 155.287 64.0643 158.059 61.7193C158.543 61.3243 159.105 61.036 159.708 60.8732C160.312 60.7103 160.942 60.6766 161.559 60.7743L182.979 64.4003Z" fill="#B682FE"/>
<path d="M176.763 24.8569C176.763 24.8569 176.511 29.8619 176.616 30.3099C176.721 30.7579 178.919 32.2139 179.556 32.7459C180.193 33.2779 176.091 37.3099 174.103 38.2269C172.115 39.1439 165.794 36.7289 165.703 33.6279C165.612 30.5269 166.788 27.9229 167.754 27.7899C168.72 27.6569 176.763 24.8569 176.763 24.8569Z" fill="#FFCEA9"/>
<path d="M165.102 28.2941C163.604 28.6441 162.091 29.5891 161.356 32.1161C160.622 34.6431 158.97 39.8581 158.746 43.6311C158.599 46.1231 158.788 47.7191 157.381 51.0161C153.169 52.2039 148.872 53.0674 144.529 53.5991C143.783 53.5351 143.063 53.2952 142.429 52.8991C141.617 52.5622 140.784 52.2769 139.937 52.0451C139.195 51.7371 139.237 51.6671 138.985 52.0451C138.733 52.4231 139.139 53.1791 139.797 53.5781C140.455 53.9771 141.029 53.9981 141.141 54.1381C141.253 54.2781 140.595 54.3691 139.67 54.3061C138.761 54.1816 137.87 53.9465 137.018 53.6061C136.318 53.4451 136.226 54.0191 136.422 54.3061C136.813 54.768 137.325 55.1121 137.9 55.3001C138.608 55.5627 139.336 55.7687 140.077 55.9161C139.48 55.973 138.878 55.9589 138.285 55.8741C137.165 55.7131 136.731 55.5171 136.15 55.4681C135.569 55.4191 135.73 56.3711 136.325 56.6511C136.945 56.925 137.6 57.1157 138.27 57.2181C139.026 57.3371 140.293 57.4141 140.293 57.4141C139.386 57.5784 138.457 57.5784 137.55 57.4141C136.976 57.3441 136.689 57.5121 136.752 57.8551C136.815 58.1981 137.199 58.4291 138.431 58.7161C139.913 58.9665 141.434 58.8536 142.862 58.3871C144.087 58.0021 144.676 57.7991 145.285 57.6031C148.785 57.5051 157.884 57.1551 159.858 56.2031C164.177 48.8531 167.104 34.3211 167.664 30.5691C168 28.3711 166.866 27.8881 165.102 28.2941Z" fill="#FFCEA9"/>
<path d="M177.324 31.1711C177.324 31.1711 173.691 36.5821 168.623 37.0931C167.027 35.5181 166.88 29.9111 169.092 28.1191C169.092 28.1191 167.062 26.4811 165.669 26.7961C164.174 27.7068 163.062 29.1299 162.54 30.8001C161.251 34.5225 160.646 38.4474 160.755 42.3851C160.839 47.6981 160.755 61.1241 160.755 61.1241C160.755 61.1241 161.511 66.2551 166.096 68.8241C169.747 70.8888 174.048 71.4822 178.122 70.4831C180.691 69.8811 181.622 68.4461 182.532 66.5841C182.301 62.8671 180.824 55.2021 181.447 50.4841C182.07 45.7661 183.057 42.3081 183.316 38.5211C183.575 34.7341 182.812 34.8181 180.915 33.4671C179.774 32.6163 178.574 31.8489 177.324 31.1711Z" fill="#F4F4F4"/>
<path d="M171.499 74.3121C172.411 73.7083 173.36 73.1636 174.341 72.6811C175.261 72.3946 176.097 71.8876 176.777 71.2041C177.673 70.3291 179.129 67.0041 180.172 63.8191C181.215 60.1828 181.629 56.395 181.397 52.6191C180.956 48.1041 179.332 41.7901 178.919 39.1931C178.506 36.5961 179.346 35.5671 180.55 34.6081C181.95 33.4811 183.924 33.9781 184.974 37.6181C186.317 42.6496 187.099 47.8145 187.305 53.0181C187.349 56.8858 186.753 60.734 185.541 64.4071C184.449 67.8231 183.021 70.2801 181.194 73.3601C180.697 74.2001 180.536 74.9421 179.794 76.6571C179.057 78.3777 177.917 79.8952 176.469 81.0811C175.195 81.9911 174.593 82.1241 174.292 81.9421C173.991 81.7601 173.991 81.3191 174.53 80.8361C175.434 80.1309 176.202 79.2676 176.798 78.2881C176.798 78.2881 175.685 79.4081 174.957 80.0171C174.321 80.5602 173.615 81.0147 172.857 81.3681C172.115 81.6971 171.079 81.0671 171.604 80.5701C172.129 80.0731 172.675 79.8211 173.704 78.9041C174.268 78.4193 174.774 77.8695 175.209 77.2661C174.463 77.8348 173.675 78.345 172.85 78.7921C172.203 79.1843 171.458 79.3857 170.701 79.3731C170.302 79.3731 169.826 78.8061 170.568 78.2741C171.573 77.7465 172.513 77.1028 173.368 76.3561C174.18 75.5441 174.642 74.8581 174.411 74.8441C174.18 74.8301 173.711 75.3411 172.787 75.6421C171.863 75.9431 170.813 75.6421 170.687 75.1451C170.561 74.6481 170.61 74.7531 171.499 74.3121Z" fill="#FFCEA9"/>
<path d="M165.438 17.3954C166.033 13.5104 168.833 10.5634 172.844 10.7874C174.457 10.8694 176.003 11.4566 177.264 12.4657C178.525 13.4749 179.436 14.855 179.87 16.4108C180.303 17.9666 180.237 19.6194 179.679 21.1352C179.122 22.651 178.102 23.9531 176.764 24.8574C176.624 25.4459 176.417 26.0166 176.148 26.5584C174.748 28.2104 170.443 29.2394 169.211 29.0574C167.629 28.8334 166.775 28.1754 166.019 26.4464C164.689 23.3944 165.109 19.3134 165.438 17.3954Z" fill="#FFCEA9"/>
<path d="M178.184 18.2002C178.105 18.522 177.975 18.8291 177.799 19.1102C177.339 19.7865 176.722 20.3413 176 20.7272C174.301 21.5899 172.422 22.0395 170.516 22.0395C168.61 22.0395 166.731 21.5899 165.031 20.7272C164.31 20.3413 163.693 19.7865 163.232 19.1102C163.106 18.915 163.003 18.706 162.924 18.4872C162.849 18.6883 162.798 18.8973 162.77 19.1102C162.63 20.3562 163.386 21.6232 165.031 22.5752C166.731 23.4379 168.61 23.8875 170.516 23.8875C172.422 23.8875 174.301 23.4379 176 22.5752C177.526 21.6932 178.282 20.5382 178.275 19.3832V18.8162L178.184 18.2002Z" fill="#333A47"/>
<path d="M174.649 19.096L174.551 19.033C172.654 18.333 170.897 18.445 169.455 17.633C168.013 16.821 167.698 15.148 167.089 14.749L166.725 14.539C166.41 14.357 166.151 14.539 166.151 14.966V18.767C166.155 18.9802 166.209 19.1895 166.309 19.378C166.409 19.5665 166.551 19.7289 166.725 19.852L174.649 24.43C174.964 24.612 175.223 24.43 175.223 24.003V20.181C175.22 19.9678 175.166 19.7584 175.066 19.5699C174.966 19.3814 174.824 19.2191 174.649 19.096Z" fill="#111111"/>
<path d="M172.654 25.8303L175.062 24.4093L171.835 22.0713L172.654 25.8303Z" fill="#111111"/>
<path d="M163.785 16.0021L166.375 14.4761L166.928 18.4241L163.785 16.0021Z" fill="#111111"/>
<path d="M172.445 25.7043L164.5 21.1263C164.326 21.0032 164.183 20.8409 164.083 20.6524C163.983 20.4639 163.93 20.2545 163.926 20.0413V16.2403C163.926 15.8203 164.185 15.6313 164.5 15.8133L172.424 20.3913C172.597 20.5148 172.739 20.6774 172.837 20.8659C172.936 21.0545 172.988 21.2636 172.991 21.4763V25.2773C173.012 25.6973 172.76 25.9003 172.445 25.7043Z" fill="#EBEEFC"/>
<path d="M161.126 17.5C161.175 17.5 164.171 15.75 164.171 15.75L166.929 22.75L161.126 17.5Z" fill="#EBEEFC"/>
<path d="M169.4 27.699L172.844 25.725L169.344 19.978L168.07 21.406L166.929 24.22L169.4 27.699Z" fill="#EBEEFC"/>
<path d="M169.399 27.4333L161.475 22.8553C161.305 22.7292 161.165 22.566 161.067 22.3781C160.969 22.1901 160.914 21.9823 160.908 21.7703V17.9693C160.908 17.5493 161.16 17.3603 161.475 17.5423L169.399 22.1133C169.572 22.2394 169.713 22.4034 169.813 22.5927C169.912 22.782 169.967 22.9916 169.973 23.2053V26.9993C170.001 27.4193 169.742 27.6153 169.399 27.4333Z" fill="#111111"/>
<path d="M160.468 17.913L161.147 17.5V19.019L160.468 17.913Z" fill="#111111"/>
<path d="M169.099 27.8813L169.813 27.4543L169.127 26.6143L169.099 27.8813Z" fill="#111111"/>
<path d="M168.734 27.8463L160.803 23.2753C160.632 23.1484 160.492 22.9841 160.393 22.7949C160.295 22.6056 160.241 22.3964 160.236 22.1833V18.3893C160.236 17.9693 160.488 17.7733 160.803 17.9553L168.734 22.5333C168.905 22.6593 169.044 22.8225 169.143 23.0105C169.241 23.1985 169.295 23.4063 169.301 23.6183V27.4193C169.301 27.8393 169.049 28.0003 168.734 27.8463Z" fill="#333A47"/>
<path d="M168.524 27.4473L160.824 23.0163C160.695 22.9222 160.589 22.7992 160.515 22.6571C160.441 22.5149 160.4 22.3576 160.397 22.1973V18.6973C160.397 18.3823 160.593 18.2353 160.824 18.3683L168.524 22.8063C168.655 22.8978 168.762 23.0193 168.836 23.1605C168.911 23.3018 168.95 23.4588 168.951 23.6183V27.1183C168.951 27.4403 168.762 27.5873 168.524 27.4473Z" fill="#414854"/>
<path d="M172.087 25.2422L170.855 25.9422C170.659 26.0542 170.498 25.9422 170.498 25.6692V24.3952C170.497 24.2583 170.528 24.1232 170.591 24.0013C170.653 23.8794 170.743 23.7743 170.855 23.6952L172.087 22.9952C172.283 22.8832 172.444 22.9952 172.444 23.2682V24.5562C172.443 24.6907 172.411 24.823 172.348 24.9423C172.286 25.0616 172.197 25.1644 172.087 25.2422Z" fill="#CFD3E2"/>
<path d="M176.763 24.8572L176.399 21.4692C176.399 21.4692 179.199 14.2942 172.626 15.6732C168.307 16.5832 167.222 16.9752 165.906 14.0772C164.59 11.1792 169.224 8.56818 174.733 9.29618C176.625 9.49701 178.373 10.3987 179.634 11.8237C180.895 13.2487 181.576 15.0939 181.544 16.9962C181.397 19.1452 180.83 23.4642 176.763 24.8572Z" fill="#38226D"/>
<path d="M187.97 44.3172C187.97 44.3172 184.393 47.8662 180.172 46.8442C179.57 46.4382 178.114 38.1292 178.114 38.1292C178.114 38.1292 178.114 33.5302 181.614 33.6492C185.114 33.7682 187.97 44.3172 187.97 44.3172Z" fill="#EDEDED"/>
<path d="M160.999 37.4294C160.999 37.4294 159.13 37.3314 158.36 36.2464C158.5 34.3844 160.88 27.3284 165.668 26.7964C164.365 27.7089 163.332 28.957 162.679 30.4084C161.804 32.5364 160.999 37.4294 160.999 37.4294Z" fill="#EDEDED"/>
<path opacity="0.4" d="M169.085 270.998L1.35066 174.153C-0.651334 172.998 -0.399334 170.975 1.91766 169.638L6.11766 167.209C8.43466 165.872 11.9347 165.732 13.9437 166.887L181.671 263.725C183.68 264.887 183.428 266.91 181.111 268.247L176.911 270.669C174.594 272.006 171.087 272.153 169.085 270.998Z" fill="#D6D8E5"/>
<path d="M186.382 263.109V258.118L182 259.469L17.2969 164.374C15.2949 163.212 11.7879 163.359 9.47086 164.696L7.58086 165.788L3.38086 164.612V169.764C3.42856 170.164 3.57765 170.546 3.81405 170.873C4.05045 171.2 4.36634 171.462 4.73186 171.633L172.438 268.478C174.447 269.633 177.947 269.493 180.264 268.156L184.464 265.727C185.745 264.992 186.389 264.047 186.382 263.151V263.109Z" fill="#111111"/>
<path d="M172.438 263.445L4.71101 166.6C2.70201 165.445 2.95401 163.422 5.27101 162.085L9.47101 159.656C11.788 158.319 15.295 158.172 17.297 159.334L185.031 256.2C187.033 257.355 186.781 259.378 184.464 260.715L180.264 263.144C177.947 264.46 174.447 264.6 172.438 263.445Z" fill="#414854"/>
<path opacity="0.2" d="M169.294 255.71L20.4463 169.771V16.5972L169.294 102.536V255.71Z" fill="#B682FE"/>
<path d="M170.968 255.71H167.615V106.134C167.552 105.35 167.315 104.59 166.922 103.91C166.528 103.229 165.988 102.645 165.34 102.2L22.7286 19.8518C22.5713 19.7502 22.3951 19.6812 22.2106 19.6488C22.1418 19.8247 22.1108 20.0132 22.1196 20.2018V169.771H18.7666V20.2018C18.7174 19.5143 18.8546 18.8262 19.1638 18.2102C19.4731 17.5942 19.9429 17.0731 20.5236 16.7018C21.1302 16.3874 21.8101 16.2417 22.4923 16.2799C23.1745 16.3181 23.8339 16.5387 24.4016 16.9188L167.013 99.2809C168.178 100.017 169.147 101.026 169.836 102.219C170.525 103.413 170.913 104.757 170.968 106.134V255.71Z" fill="#414854"/>
<g opacity="0.7">
<path opacity="0.2" d="M107.232 96.0048L45.3101 60.2558C43.6861 59.3178 42.3701 56.8118 42.3701 54.6558C42.3701 52.4928 43.6861 51.4988 45.3101 52.4368L107.232 88.1998C108.856 89.1378 110.165 91.6508 110.165 93.7998C110.165 95.9488 108.856 96.9428 107.232 96.0048Z" fill="#B682FE"/>
<path opacity="0.2" d="M107.232 110.922L45.3101 75.166C43.6861 74.228 42.3701 71.722 42.3701 69.566C42.3701 67.403 43.6861 66.409 45.3101 67.347L107.232 103.096C108.856 104.034 110.165 106.547 110.165 108.696C110.165 110.859 108.856 111.853 107.232 110.922Z" fill="#B682FE"/>
<path opacity="0.2" d="M107.232 125.832L45.3101 90.0758C43.6861 89.1448 42.3701 86.6318 42.3701 84.4758C42.3701 82.3128 43.6861 81.3188 45.3101 82.2568L107.232 118.006C108.856 118.944 110.165 121.457 110.165 123.606C110.165 125.769 108.856 126.763 107.232 125.832Z" fill="#B682FE"/>
<path opacity="0.2" d="M107.232 140.742L45.3101 105C43.6861 104.069 42.3701 101.556 42.3701 99.4C42.3701 97.237 43.6861 96.243 45.3101 97.181L107.232 132.93C108.856 133.868 110.165 136.381 110.165 138.53C110.165 140.7 108.856 141.673 107.232 140.742Z" fill="#B682FE"/>
<path opacity="0.2" d="M144.431 117.481L123.578 105.448C121.961 104.51 120.645 101.997 120.645 99.8476C120.645 97.6916 121.961 96.6976 123.578 97.6286L144.431 109.669C146.048 110.607 147.364 113.113 147.364 115.269C147.364 117.425 146.048 118.419 144.431 117.481Z" fill="#B682FE"/>
<path opacity="0.2" d="M144.431 132.391L123.578 120.358C121.961 119.42 120.645 116.907 120.645 114.758C120.645 112.595 121.961 111.601 123.578 112.532L144.431 124.6C146.048 125.538 147.364 128.051 147.364 130.2C147.364 132.335 146.048 133.329 144.431 132.391Z" fill="#B682FE"/>
<path opacity="0.2" d="M144.431 147.301L123.578 135.268C121.961 134.33 120.645 131.817 120.645 129.668C120.645 127.505 121.961 126.511 123.578 127.449L144.431 139.482C146.048 140.42 147.364 142.933 147.364 145.082C147.364 147.245 146.048 148.239 144.431 147.301Z" fill="#B682FE"/>
<path opacity="0.2" d="M144.431 162.218L123.578 150.178C121.961 149.24 120.645 146.734 120.645 144.578C120.645 142.415 121.961 141.421 123.578 142.359L144.431 154.392C146.048 155.33 147.364 157.843 147.364 159.992C147.364 162.155 146.048 163.149 144.431 162.218Z" fill="#B682FE"/>
<path opacity="0.2" d="M66.8473 160.312C72.3902 157.126 72.4114 146.762 66.8946 137.163C61.3779 127.564 52.4122 122.364 46.8693 125.55C41.3264 128.735 41.3052 139.1 46.822 148.699C52.3388 158.298 61.3044 163.497 66.8473 160.312Z" fill="#B682FE"/>
<path opacity="0.2" d="M104.854 181.734C110.372 178.549 110.372 168.22 104.856 158.665C99.3389 149.11 90.3938 143.946 84.8762 147.131C79.3586 150.317 79.358 160.646 84.8747 170.201C90.3915 179.756 99.3366 184.92 104.854 181.734Z" fill="#B682FE"/>
<path opacity="0.2" d="M143.609 204.627C149.152 201.441 149.173 191.077 143.656 181.478C138.14 171.878 129.174 166.679 123.631 169.865C118.088 173.05 118.067 183.414 123.584 193.014C129.1 202.613 138.066 207.812 143.609 204.627Z" fill="#B682FE"/>
</g>
</g>
</g>
<defs>
<clipPath id="clip0_204_114">
<rect width="350" height="272" fill="white"/>
</clipPath>
</defs>
</svg>
