<svg width="325" height="372" viewBox="0 0 325 372" fill="none" xmlns="http://www.w3.org/2000/svg">
<g clip-path="url(#clip0_204_4)">
<path d="M276.141 196.237C286.504 196.237 294.906 191.693 294.906 186.088C294.906 180.484 286.504 175.94 276.141 175.94C265.776 175.94 257.374 180.484 257.374 186.088C257.374 191.693 265.776 196.237 276.141 196.237Z" fill="#D6D8E5"/>
<path d="M275.545 94.8443L274.804 96.7437L274.365 97.8679L272.22 103.366C272.22 103.366 271.505 104.12 270.318 105.13C268.344 106.808 265.058 109.185 261.563 109.961C255.962 111.206 258.953 92.287 258.953 92.287C258.953 92.287 259.803 84.8685 262.482 85.3057C265.161 85.743 263.44 88.5754 262.284 93.6844C261.128 98.7933 263.39 103.983 263.39 103.983C263.39 103.983 268.359 99.9483 270.853 97.0161C272.152 95.4884 273.371 94.963 274.241 94.8117L274.243 94.8114C274.53 94.7582 274.824 94.7432 275.115 94.7667C275.261 94.7767 275.405 94.8027 275.545 94.8443Z" fill="#FFCEA9"/>
<path d="M265.314 100.733L272.075 107.504L278.5 100.949L278.45 97.2022C277.549 96.0111 276.248 95.1814 274.786 94.865C273.324 94.5486 271.796 94.7665 270.485 95.479L265.314 100.733Z" fill="#3D117E"/>
<path d="M275.632 73.9348C270.491 74.5984 266.934 79.7426 267.689 85.4248L268.648 92.6441L270.878 92.3563L271.813 89.5149L271.846 92.2314L286.177 90.3819L287.028 87.7987L287.058 90.2683L288.671 90.06L287.918 84.3916C287.05 77.853 281.549 73.1713 275.632 73.9348Z" fill="#111111"/>
<path d="M271.322 108.441L270.559 114.543L284.923 112.167L284.018 107.324C284.018 107.324 272.819 105.899 271.322 108.441Z" fill="#A0616A"/>
<path d="M260.541 133.848L266.543 143.514L270.209 137.559L265.646 130.839L260.541 133.848Z" fill="#FFCEA9"/>
<path d="M277.149 170.076L279.233 181.815L284.902 181.083L282.562 169.377L277.149 170.076Z" fill="#FFCEA9"/>
<path d="M264.005 122.436L267.708 130.573L277.027 171.136C277.027 171.136 280.771 171.696 283.178 170.08L282.943 164.368L279.68 131.899C279.68 131.899 284.235 128.701 283.243 125.175C282.25 121.648 280.314 116.938 280.314 116.938L264.005 122.436Z" fill="#111111"/>
<path d="M279.631 178.892L278.084 179.091C278.084 179.091 274.316 184.276 272.839 184.989C271.36 185.702 263.95 191.096 270.496 191.034C277.041 190.973 280.721 187.104 280.721 187.104C280.721 187.104 282.953 188.121 285.652 186.729C288.351 185.337 286.395 182.457 286.395 182.457C286.395 182.457 284.333 177.949 284.284 177.993C284.235 178.036 282.995 180.546 279.631 178.892Z" fill="#111111"/>
<path d="M275.962 90.0919C279.235 89.6694 281.538 86.6842 281.105 83.4243C280.672 80.1644 277.668 77.8641 274.394 78.2866C271.12 78.7091 268.817 81.6943 269.25 84.9542C269.684 88.2141 272.688 90.5143 275.962 90.0919Z" fill="#FFCEA9"/>
<path d="M284.964 90.7576L282.538 93.3731L282.212 93.7231L282.363 96.836L272.312 98.1331C272.312 98.1331 273.527 96.7731 274.637 95.3846C274.659 95.353 274.683 95.3186 274.71 95.2864C274.861 95.0973 274.995 94.9233 275.116 94.7668C275.181 94.6802 275.242 94.599 275.298 94.524C275.39 94.4 275.479 94.2814 275.567 94.1629C275.569 94.1613 275.569 94.1594 275.569 94.1574C275.797 93.8485 276.006 93.527 276.196 93.1942L276.198 93.1913C276.25 93.1017 276.296 93.0094 276.338 92.915C276.94 91.532 274.796 89.1985 274.796 89.1985L280.09 85.6438C280.659 88.4001 283.268 89.9532 284.418 90.5149C284.754 90.6776 284.964 90.7576 284.964 90.7576Z" fill="#FFCEA9"/>
<path d="M304.606 132.076C300.877 133.602 299.597 125.936 299.597 125.936L292.925 116.109C291.515 114.032 290.433 111.753 289.715 109.353L287.494 101.917L287.184 102.403V102.406L286.565 102.819L281.687 96.9232L280.321 95.2724L280.047 93.2193L283.675 90.924L285.221 90.7245C285.221 90.7245 285.254 90.715 285.312 90.7021C286.014 90.536 290.602 89.6307 291.436 94.0989C291.764 95.8525 291.95 97.3164 292.054 98.4704C292.329 101.665 293.054 104.806 294.208 107.802C294.629 108.88 295.055 109.811 295.422 110.291C296.692 111.954 302.174 125.603 302.174 125.603C302.174 125.603 308.335 130.551 304.606 132.076Z" fill="#FFCEA9"/>
<path d="M276.196 93.1937C276.19 93.2233 276.098 93.4674 275.297 94.5235C275.625 94.0999 275.925 93.6558 276.196 93.1937Z" fill="#D0CDE1"/>
<path d="M287.382 102.062L287.184 102.406L285.07 110.008C285.07 110.008 280.571 114.657 276.894 114.611C274.821 114.524 271.665 111.623 270.81 113.504L271.117 106.902L270.319 105.13C270.225 104.923 270.119 104.694 270.004 104.435C268.889 101.968 271.349 98.7794 271.349 98.7794L274.24 94.8118L274.242 94.8115C274.531 94.7583 274.824 94.7433 275.115 94.7669C274.994 94.9234 274.86 95.0973 274.71 95.2864C274.682 95.3187 274.658 95.353 274.636 95.3846C273.783 96.5154 274.332 96.729 274.804 96.7439C274.959 96.7475 275.115 96.7352 275.268 96.7074C276.363 96.7228 278.591 95.4799 280.214 94.4717C281.317 93.7862 282.143 93.2098 282.143 93.2098L284.121 90.8664L284.417 90.5149C284.753 90.6777 284.963 90.7576 284.963 90.7576L285.22 90.7244C285.22 90.7244 285.253 90.715 285.312 90.7021L284.254 91.7206C283.727 92.2279 283.336 92.8585 283.117 93.5551C282.897 94.2519 282.858 94.9925 282.999 95.7096L287.382 102.062Z" fill="#3D117E"/>
<path d="M274.308 111.188L270.735 113.139C270.735 113.139 249.23 107.899 246.99 114.713C244.75 121.528 260.712 135.131 260.712 135.131L266.522 131.509L262.922 124.143C262.922 124.143 279.54 134.789 284.805 127.062C290.069 119.334 284.644 110.069 284.644 110.069C284.644 110.069 280.376 107.534 274.308 111.188Z" fill="#111111"/>
<path d="M267.2 140.558L265.119 142.653C265.119 142.653 268.271 150.6 267.668 151.982C267.066 153.366 265.996 157.158 268.798 156.535C271.598 155.913 274.111 151.151 274.165 149.578C274.218 148.005 275.408 143.153 275.408 143.153C275.408 143.153 277.547 135.568 275.193 135.61C272.839 135.653 269.123 135.958 269.123 135.958L267.2 140.558Z" fill="#111111"/>
<path d="M278.656 76.4271C278.128 75.8859 277.483 75.4726 276.77 75.2193C276.056 74.966 275.294 74.8795 274.544 74.9666L274.36 74.9902C270.836 75.445 268.402 78.9892 268.922 82.9065L270.102 82.7541L270.101 81.2839L270.573 82.6933L277.576 81.7896L278.001 80.491L278.016 81.7327L279.394 81.555C280.459 84.6515 279.958 87.9502 277.889 91.4511L280.237 91.1483L281.085 88.551L281.117 91.0347L285.59 90.4573L285.724 84.7184C285.165 80.5055 282.232 77.2504 278.656 76.4271Z" fill="#111111"/>
<path d="M297.17 102.77L283.628 104.518L282.239 94.0551L284.873 90.6409C286.524 90.1649 288.295 90.2973 289.86 91.0138C291.425 91.7303 292.68 92.9831 293.396 94.543L297.17 102.77Z" fill="#3D117E"/>
<path opacity="0.4" d="M117.955 261.956L157.479 239.188C160.356 237.552 159.967 234.681 156.68 232.786L131.075 218.036L81.2373 246.747L106.843 261.497C110.13 263.392 115.107 263.599 117.955 261.956Z" fill="#D6D8E5"/>
<path d="M114.395 259.853L153.911 237.085C156.787 235.442 156.399 232.578 153.112 230.676L127.507 215.926L77.6768 244.636L103.275 259.386C106.569 261.288 111.547 261.518 114.395 259.853Z" fill="#B1B4C4"/>
<path d="M77.6772 244.665V243.158L79.9716 244.479L77.6772 244.665Z" fill="#B1B4C4"/>
<path d="M155.832 234.394V232.858L153.472 233.841L155.832 234.394Z" fill="#B1B4C4"/>
<path d="M114.395 258.367L153.911 235.599C156.787 233.956 156.399 231.091 153.112 229.197L127.507 214.439L77.6768 243.15L103.275 257.9C106.569 259.802 111.547 260.011 114.395 258.367Z" fill="#D6D8E5"/>
<path d="M127.377 214.511L133.541 194.09L83.1647 222.924L77.6768 243.158L127.377 214.511Z" fill="#9EA1AF"/>
<path d="M79.1373 243.997L77.6987 243.158L79.8565 241.428L79.1373 243.997Z" fill="#9EA1AF"/>
<path d="M128.967 215.28L135.131 194.859L84.7546 223.691L79.1372 243.997L128.967 215.28Z" fill="#B1B4C4"/>
<path d="M4.95384 276.685L199.965 164.325C202.698 162.753 204.913 158.525 204.913 154.886V4.32742C204.913 0.688338 202.698 -0.984062 199.965 0.595028L4.95384 112.969C2.22068 114.548 0.00537109 118.776 0.00537109 122.414V272.945C0.00537109 276.584 2.22068 278.264 4.95384 276.685Z" fill="#B1B4C4"/>
<path d="M3.95396 278.235L1.78906 276.994L2.72407 270.598L3.95396 278.235Z" fill="#B1B4C4"/>
<path d="M205.265 1.54282L203.108 0.31543L200.051 2.05243C200.051 2.05243 203.309 2.55487 203.388 2.53334C203.468 2.5118 205.265 1.54282 205.265 1.54282Z" fill="#B1B4C4"/>
<path d="M6.74471 277.718L201.749 165.359C204.489 163.78 206.704 159.552 206.704 155.913V5.38275C206.704 1.74367 204.489 0.0712724 201.749 1.64318L6.74471 114.002C4.00436 115.575 1.78906 119.802 1.78906 123.441V273.979C1.78906 277.618 4.00436 279.291 6.74471 277.718Z" fill="#E4E7F2"/>
<path d="M7.08225 277.912L202.093 165.552C204.826 163.981 207.05 159.753 207.05 156.114V5.57648C207.05 1.93739 204.826 0.264996 202.093 1.83691L7.08225 114.196C4.3491 115.775 2.13379 120.003 2.13379 123.643V274.208C2.13379 277.797 4.3491 279.484 7.08225 277.912Z" fill="#D6D8E5"/>
<path d="M4.83795 268.752L204.567 153.666L204.466 6.17882C204.466 4.6715 203.402 4.02551 202.093 4.81506L7.08204 117.168C6.39091 117.617 5.81584 118.223 5.40347 118.937C4.99106 119.65 4.75299 120.45 4.7085 121.273L4.83795 268.752Z" fill="#111111"/>
<path opacity="0.5" d="M4.83795 268.752L204.567 153.666L204.466 6.17882C204.466 4.6715 203.402 4.02551 202.093 4.81506L7.08204 117.168C6.39091 117.617 5.81584 118.223 5.40347 118.937C4.99106 119.65 4.75299 120.45 4.7085 121.273L4.83795 268.752Z" fill="url(#paint0_linear_204_4)"/>
<path opacity="0.4" d="M181.185 348.978L295.654 282.943C297.287 282.003 297.093 280.366 295.202 279.276L252.399 254.62C250.514 253.529 247.666 253.414 246.034 254.354L131.564 320.389C129.932 321.33 130.126 322.973 132.017 324.057L174.82 348.72C176.704 349.803 179.552 349.918 181.185 348.978Z" fill="#D6D8E5"/>
<path d="M130.032 318.71L243.99 252.998C245.615 252.057 248.471 252.18 250.348 253.263L292.964 277.797L294.697 277.129V279.857C294.709 280.221 294.612 280.58 294.419 280.891C294.225 281.2 293.944 281.445 293.611 281.593L179.135 347.628C177.502 348.569 174.654 348.446 172.769 347.363L129.988 322.694C128.931 322.083 128.399 321.301 128.428 320.54V317.813L130.032 318.71Z" fill="#B1B4C4"/>
<path d="M179.135 344.894L293.612 278.859C295.244 277.919 295.05 276.282 293.151 275.191L250.348 250.521C248.471 249.43 245.616 249.316 243.99 250.256L129.514 316.29C127.881 317.231 128.075 318.874 129.974 319.958L172.77 344.62C174.654 345.719 177.503 345.834 179.135 344.894Z" fill="#D6D8E5"/>
<path d="M253.384 262.724L259.022 259.472C259.483 259.207 259.425 258.754 258.893 258.439L253.512 255.338C253.241 255.186 252.937 255.101 252.626 255.088C252.315 255.076 252.005 255.137 251.722 255.266L246.082 258.511C245.623 258.776 245.68 259.229 246.212 259.544L251.592 262.645C251.863 262.798 252.167 262.885 252.479 262.898C252.79 262.912 253.1 262.853 253.384 262.724Z" fill="#111111"/>
<path d="M245.4 267.318L251.039 264.074C251.499 263.808 251.441 263.356 250.909 263.04L245.53 259.939C245.258 259.787 244.954 259.701 244.643 259.689C244.332 259.676 244.021 259.737 243.738 259.867L238.1 263.112C237.639 263.377 237.697 263.83 238.23 264.146L243.631 267.246C243.9 267.394 244.2 267.478 244.507 267.49C244.814 267.503 245.12 267.443 245.4 267.318Z" fill="#111111"/>
<path d="M237.33 271.975L242.969 268.724C243.429 268.458 243.372 268.007 242.84 267.691L237.459 264.59C237.186 264.438 236.881 264.352 236.569 264.34C236.256 264.327 235.945 264.389 235.661 264.519L230.022 267.748C229.562 268.014 229.627 268.466 230.152 268.781L235.531 271.883C235.803 272.036 236.107 272.125 236.419 272.141C236.732 272.157 237.044 272.101 237.33 271.975Z" fill="#111111"/>
<path d="M229.439 276.519L235.077 273.268C235.538 273.002 235.481 272.551 234.949 272.234L229.569 269.134C229.294 268.984 228.99 268.899 228.678 268.886C228.365 268.874 228.055 268.934 227.77 269.062L222.132 272.313C221.671 272.579 221.729 273.031 222.261 273.347L227.641 276.447C227.915 276.598 228.22 276.683 228.532 276.696C228.844 276.708 229.154 276.648 229.439 276.519Z" fill="#111111"/>
<path d="M221.456 281.12L227.087 277.869C227.548 277.603 227.49 277.151 226.958 276.835L221.577 273.734C221.304 273.582 220.999 273.497 220.687 273.485C220.375 273.472 220.064 273.532 219.78 273.662L214.148 276.907C213.688 277.172 213.745 277.625 214.27 277.941L219.657 281.041C219.93 281.196 220.235 281.282 220.547 281.296C220.86 281.31 221.171 281.249 221.456 281.12Z" fill="#111111"/>
<path d="M213.472 285.693L219.111 282.449C219.572 282.183 219.514 281.731 218.981 281.415L213.601 278.315C213.33 278.163 213.026 278.076 212.715 278.063C212.405 278.049 212.095 278.108 211.811 278.235L206.171 281.487C205.712 281.752 205.769 282.205 206.301 282.521L211.681 285.621C211.953 285.772 212.256 285.858 212.568 285.871C212.879 285.883 213.188 285.822 213.472 285.693Z" fill="#111111"/>
<path d="M205.509 290.314L211.149 287.07C211.609 286.805 211.551 286.353 211.026 286.03L205.639 282.936C205.368 282.783 205.065 282.696 204.754 282.682C204.441 282.669 204.131 282.729 203.848 282.857L198.209 286.108C197.749 286.375 197.806 286.826 198.338 287.142L203.719 290.243C203.991 290.393 204.295 290.478 204.606 290.491C204.916 290.503 205.226 290.443 205.509 290.314Z" fill="#111111"/>
<path d="M197.512 294.915L203.151 291.664C203.611 291.398 203.554 290.946 203.021 290.63L197.642 287.53C197.368 287.379 197.063 287.295 196.751 287.282C196.439 287.27 196.128 287.33 195.843 287.458L190.204 290.709C189.744 290.975 189.801 291.427 190.334 291.743L195.714 294.843C195.987 294.994 196.292 295.078 196.604 295.091C196.916 295.103 197.227 295.044 197.512 294.915Z" fill="#111111"/>
<path d="M189.528 299.517L195.167 296.266C195.627 296 195.57 295.548 195.037 295.232L189.687 292.153C189.414 292.001 189.109 291.915 188.796 291.902C188.484 291.89 188.173 291.951 187.888 292.081L182.249 295.325C181.789 295.591 181.846 296.042 182.379 296.359L187.759 299.46C188.029 299.604 188.33 299.685 188.637 299.695C188.944 299.705 189.249 299.644 189.528 299.517Z" fill="#111111"/>
<path d="M181.544 304.11L187.183 300.865C187.643 300.6 187.586 300.148 187.054 299.833L181.674 296.731C181.401 296.58 181.098 296.494 180.787 296.48C180.476 296.467 180.166 296.526 179.882 296.652L174.244 299.904C173.783 300.17 173.841 300.622 174.366 300.937L179.754 304.039C180.025 304.19 180.329 304.276 180.64 304.288C180.951 304.301 181.261 304.24 181.544 304.11Z" fill="#111111"/>
<path d="M173.561 308.712L179.2 305.46C179.66 305.202 179.603 304.742 179.071 304.426L173.69 301.333C173.419 301.181 173.116 301.093 172.804 301.08C172.493 301.066 172.183 301.126 171.9 301.254L166.261 304.505C165.8 304.771 165.858 305.223 166.39 305.539L171.77 308.661C172.045 308.808 172.349 308.89 172.66 308.898C172.971 308.907 173.28 308.843 173.561 308.712Z" fill="#111111"/>
<path d="M165.584 313.313L171.216 310.097C171.676 309.832 171.619 309.379 171.094 309.063L165.707 305.963C165.434 305.812 165.131 305.727 164.82 305.715C164.509 305.702 164.2 305.763 163.916 305.891L158.277 309.142C157.817 309.401 157.874 309.859 158.407 310.175L163.793 313.241C164.066 313.389 164.37 313.474 164.68 313.486C164.991 313.499 165.3 313.439 165.584 313.313Z" fill="#111111"/>
<path d="M157.601 317.912L163.239 314.662C163.7 314.395 163.642 313.944 163.109 313.628L157.729 310.527C157.456 310.375 157.151 310.289 156.839 310.277C156.527 310.264 156.216 310.326 155.932 310.456L150.292 313.7C149.832 313.965 149.89 314.417 150.422 314.733L155.802 317.834C156.074 317.987 156.379 318.074 156.691 318.088C157.004 318.101 157.315 318.041 157.601 317.912Z" fill="#111111"/>
<path d="M145.769 324.724L155.255 319.262C155.716 318.997 155.658 318.545 155.126 318.228L149.747 315.128C149.473 314.975 149.169 314.888 148.856 314.874C148.544 314.861 148.233 314.921 147.948 315.049L138.469 320.518C138.008 320.785 138.066 321.236 138.597 321.552L143.978 324.653C144.25 324.803 144.554 324.888 144.865 324.9C145.176 324.913 145.485 324.853 145.769 324.724Z" fill="#111111"/>
<path d="M249.283 274L254.923 270.756C255.382 270.49 255.325 270.038 254.793 269.722L249.384 266.622C249.112 266.468 248.807 266.382 248.495 266.368C248.183 266.355 247.871 266.415 247.587 266.543L241.947 269.794C241.487 270.059 241.544 270.512 242.077 270.828L247.457 273.928C247.734 274.084 248.044 274.17 248.361 274.183C248.679 274.195 248.995 274.133 249.283 274Z" fill="#111111"/>
<path d="M241.286 278.608L246.924 275.356C247.385 275.098 247.327 274.638 246.795 274.323L241.416 271.222C241.141 271.072 240.836 270.987 240.524 270.974C240.212 270.962 239.902 271.022 239.617 271.15L233.978 274.402C233.518 274.667 233.583 275.12 234.107 275.436L239.488 278.514C239.76 278.668 240.064 278.756 240.376 278.773C240.688 278.789 240.999 278.732 241.286 278.608Z" fill="#111111"/>
<path d="M233.287 283.216L238.926 279.951C239.387 279.684 239.329 279.233 238.797 278.917L233.417 275.816C233.144 275.666 232.84 275.581 232.53 275.568C232.219 275.556 231.909 275.616 231.626 275.745L225.987 278.996C225.526 279.254 225.584 279.713 226.116 280.029L231.497 283.13C231.768 283.282 232.071 283.37 232.382 283.385C232.693 283.4 233.003 283.342 233.287 283.216Z" fill="#111111"/>
<path d="M225.296 287.846L230.935 284.594C231.388 284.329 231.331 283.876 230.806 283.56L225.425 280.46C225.152 280.309 224.847 280.225 224.535 280.213C224.223 280.2 223.912 280.26 223.627 280.388L217.989 283.632C217.528 283.898 217.586 284.35 218.118 284.666L223.49 287.745C223.763 287.903 224.068 287.994 224.382 288.011C224.695 288.029 225.009 287.973 225.296 287.846Z" fill="#111111"/>
<path d="M217.363 292.389L223.002 289.145C223.462 288.879 223.405 288.427 222.872 288.111L217.493 285.01C217.22 284.859 216.915 284.773 216.603 284.76C216.291 284.746 215.98 284.804 215.695 284.931L210.055 288.183C209.596 288.448 209.652 288.901 210.185 289.217L215.579 292.317C215.851 292.467 216.153 292.551 216.463 292.563C216.772 292.576 217.08 292.516 217.363 292.389Z" fill="#111111"/>
<path d="M209.364 296.998L215.004 293.753C215.464 293.487 215.406 293.035 214.874 292.719L209.494 289.618C209.222 289.466 208.917 289.378 208.605 289.365C208.292 289.351 207.981 289.411 207.695 289.54L202.064 292.791C201.603 293.057 201.661 293.508 202.187 293.824L207.574 296.926C207.845 297.077 208.149 297.163 208.46 297.175C208.772 297.188 209.081 297.127 209.364 296.998Z" fill="#111111"/>
<path d="M201.367 301.606L207.005 298.361C207.466 298.096 207.408 297.643 206.876 297.32L201.497 294.227C201.225 294.075 200.921 293.987 200.61 293.974C200.299 293.96 199.989 294.02 199.705 294.148L194.067 297.399C193.606 297.665 193.664 298.117 194.196 298.433L199.576 301.534C199.849 301.684 200.152 301.769 200.463 301.782C200.774 301.794 201.083 301.734 201.367 301.606Z" fill="#111111"/>
<path d="M193.376 306.213L199.036 302.962C199.497 302.696 199.439 302.244 198.907 301.928L193.528 298.828C193.253 298.677 192.948 298.593 192.636 298.58C192.324 298.568 192.013 298.627 191.729 298.756L186.09 302.007C185.63 302.273 185.687 302.725 186.219 303.041L191.6 306.141C191.871 306.289 192.172 306.371 192.48 306.383C192.788 306.396 193.094 306.338 193.376 306.213Z" fill="#111111"/>
<path d="M185.371 310.815L191.01 307.563C191.47 307.297 191.412 306.845 190.881 306.529L185.501 303.429C185.227 303.278 184.922 303.193 184.61 303.181C184.297 303.168 183.987 303.229 183.702 303.357L178.064 306.601C177.603 306.867 177.661 307.318 178.192 307.641L183.573 310.736C183.846 310.888 184.15 310.975 184.463 310.989C184.775 311.003 185.086 310.943 185.371 310.815Z" fill="#111111"/>
<path d="M177.38 315.429L183.019 312.178C183.48 311.912 183.422 311.461 182.89 311.145L177.509 308.043C177.238 307.892 176.934 307.806 176.623 307.794C176.311 307.781 176.002 307.842 175.719 307.971L170.079 311.216C169.619 311.481 169.677 311.934 170.209 312.25L175.589 315.35C175.86 315.503 176.163 315.591 176.476 315.604C176.787 315.618 177.097 315.558 177.38 315.429Z" fill="#111111"/>
<path d="M169.389 320.031L175.021 316.787C175.481 316.521 175.424 316.069 174.899 315.753L169.511 312.652C169.239 312.5 168.936 312.415 168.624 312.403C168.313 312.39 168.004 312.45 167.721 312.58L162.081 315.825C161.621 316.09 161.679 316.543 162.211 316.859L167.591 319.959C167.864 320.111 168.169 320.196 168.481 320.209C168.793 320.221 169.105 320.16 169.389 320.031Z" fill="#111111"/>
<path d="M161.391 324.639L167.03 321.395C167.49 321.128 167.433 320.677 166.9 320.361L161.52 317.26C161.248 317.107 160.943 317.02 160.631 317.006C160.318 316.992 160.007 317.052 159.722 317.181L154.083 320.433C153.623 320.698 153.681 321.15 154.213 321.466L159.593 324.567C159.865 324.719 160.17 324.805 160.483 324.817C160.795 324.83 161.106 324.768 161.391 324.639Z" fill="#111111"/>
<path d="M257.296 269.392L266.783 263.93C267.243 263.664 267.185 263.212 266.653 262.896L261.274 259.795C261 259.646 260.695 259.561 260.383 259.548C260.071 259.536 259.761 259.596 259.475 259.723L249.996 265.186C249.535 265.452 249.593 265.904 250.126 266.219L255.505 269.32C255.777 269.472 256.081 269.558 256.392 269.57C256.703 269.583 257.013 269.522 257.296 269.392Z" fill="#111111"/>
<path d="M146.157 325.018L151.796 321.767C152.055 321.638 152.341 321.57 152.631 321.57C152.92 321.57 153.206 321.638 153.465 321.767L159.154 325.047C159.254 325.082 159.341 325.147 159.402 325.234C159.462 325.319 159.495 325.423 159.495 325.529C159.495 325.634 159.462 325.737 159.402 325.823C159.341 325.91 159.254 325.974 159.154 326.009L158.708 326.267C158.284 326.512 158.284 326.906 158.708 327.158L164.714 330.617C164.817 330.651 164.905 330.716 164.969 330.802C165.032 330.889 165.066 330.995 165.066 331.101C165.066 331.209 165.032 331.314 164.969 331.401C164.905 331.488 164.817 331.553 164.714 331.586L161.117 333.653C160.859 333.785 160.573 333.853 160.283 333.853C159.994 333.853 159.708 333.785 159.449 333.653L153.824 330.417L152.66 329.742L151.825 329.261L150.984 328.773L146.136 325.98C146.036 325.943 145.951 325.877 145.892 325.789C145.833 325.701 145.802 325.598 145.805 325.492C145.807 325.386 145.842 325.285 145.906 325.2C145.968 325.114 146.056 325.051 146.157 325.018Z" fill="#111111"/>
<path d="M284.296 280.568L289.936 277.324C290.396 277.058 290.338 276.606 289.806 276.29L284.426 273.189C284.155 273.037 283.851 272.951 283.54 272.939C283.228 272.926 282.919 272.987 282.635 273.117L276.996 276.362C276.535 276.627 276.593 277.079 277.126 277.395L282.47 280.496C282.746 280.653 283.056 280.743 283.374 280.755C283.692 280.768 284.009 280.703 284.296 280.568Z" fill="#111111"/>
<path d="M276.342 285.154L281.981 281.909C282.441 281.644 282.383 281.192 281.851 280.876L276.472 277.797C276.199 277.644 275.895 277.557 275.582 277.543C275.27 277.529 274.959 277.59 274.673 277.717L269.035 280.969C268.574 281.234 268.631 281.687 269.164 282.003L274.559 285.083C274.83 285.232 275.132 285.316 275.442 285.329C275.751 285.341 276.06 285.281 276.342 285.154Z" fill="#111111"/>
<path d="M268.381 289.74L274.019 286.496C274.48 286.23 274.422 285.778 273.89 285.462L268.509 282.362C268.238 282.209 267.935 282.122 267.624 282.108C267.312 282.095 267.002 282.155 266.719 282.282L261.079 285.534C260.62 285.799 260.677 286.252 261.209 286.568L266.589 289.668C266.862 289.821 267.165 289.906 267.477 289.919C267.788 289.931 268.098 289.87 268.381 289.74Z" fill="#111111"/>
<path d="M200.598 328.795L206.229 325.551C206.69 325.285 206.632 324.833 206.099 324.517L200.719 321.417C200.447 321.263 200.142 321.176 199.83 321.162C199.518 321.148 199.206 321.208 198.922 321.337L193.282 324.589C192.83 324.854 192.887 325.306 193.412 325.623L198.799 328.759C199.075 328.905 199.381 328.985 199.694 328.991C200.006 328.997 200.315 328.93 200.598 328.795Z" fill="#111111"/>
<path d="M192.636 333.381L198.275 330.136C198.735 329.871 198.678 329.419 198.145 329.103L192.765 326.002C192.494 325.85 192.19 325.762 191.879 325.749C191.568 325.735 191.258 325.795 190.974 325.924L185.335 329.174C184.875 329.441 184.933 329.892 185.465 330.208L190.845 333.31C191.116 333.461 191.42 333.547 191.731 333.559C192.042 333.572 192.352 333.511 192.636 333.381Z" fill="#111111"/>
<path d="M184.651 337.967L190.291 334.723C190.75 334.458 190.694 334.005 190.161 333.682L184.781 330.589C184.509 330.436 184.204 330.349 183.892 330.335C183.579 330.322 183.268 330.382 182.983 330.51L177.344 333.761C176.883 334.027 176.941 334.479 177.474 334.795L182.854 337.895C183.127 338.046 183.432 338.131 183.744 338.144C184.056 338.156 184.367 338.096 184.651 337.967Z" fill="#111111"/>
<path d="M176.74 342.555L182.378 339.303C182.839 339.045 182.781 338.585 182.249 338.269L176.869 335.169C176.596 335.018 176.293 334.933 175.982 334.922C175.671 334.909 175.361 334.968 175.078 335.097L169.44 338.348C168.979 338.614 169.037 339.066 169.561 339.382L174.948 342.483C175.221 342.633 175.525 342.717 175.836 342.73C176.147 342.742 176.456 342.682 176.74 342.555Z" fill="#111111"/>
<path d="M258.368 295.511L266.064 291.083C266.518 290.817 266.46 290.365 265.934 290.049L260.554 286.948C260.282 286.795 259.977 286.708 259.665 286.694C259.353 286.681 259.041 286.74 258.757 286.869L251.068 291.298C250.607 291.563 250.665 292.016 251.197 292.339L256.578 295.432C256.849 295.585 257.152 295.672 257.463 295.686C257.774 295.7 258.085 295.64 258.368 295.511Z" fill="#111111"/>
<path d="M208.56 324.208L216.249 319.78C216.71 319.514 216.652 319.062 216.12 318.746L210.739 315.645C210.466 315.495 210.161 315.41 209.849 315.398C209.537 315.385 209.226 315.445 208.941 315.574L201.253 320.002C200.792 320.268 200.85 320.72 201.382 321.036L206.762 324.136C207.035 324.289 207.34 324.374 207.653 324.386C207.965 324.399 208.276 324.337 208.56 324.208Z" fill="#111111"/>
<path d="M218.565 318.445L256.052 296.847C256.512 296.581 256.455 296.129 255.923 295.813L250.542 292.713C250.269 292.56 249.964 292.475 249.652 292.463C249.339 292.45 249.028 292.51 248.744 292.641L211.264 314.238C210.804 314.504 210.861 314.956 211.393 315.272L216.773 318.373C217.046 318.523 217.35 318.607 217.661 318.62C217.972 318.632 218.281 318.572 218.565 318.445Z" fill="#111111"/>
<path d="M254.843 279.713L260.483 276.461C260.943 276.196 260.885 275.744 260.353 275.428L254.973 272.327C254.702 272.176 254.398 272.09 254.087 272.077C253.774 272.065 253.465 272.126 253.182 272.255L247.543 275.5C247.083 275.765 247.14 276.218 247.672 276.533L253.053 279.634C253.324 279.787 253.627 279.874 253.939 279.888C254.25 279.902 254.56 279.842 254.843 279.713Z" fill="#111111"/>
<path d="M246.874 284.307L252.513 281.056C252.973 280.79 252.916 280.338 252.384 280.022L247.004 276.922C246.73 276.769 246.425 276.684 246.113 276.672C245.801 276.659 245.49 276.72 245.205 276.85L239.567 280.094C239.106 280.359 239.164 280.812 239.696 281.128L245.069 284.257C245.345 284.407 245.652 284.489 245.966 284.498C246.279 284.507 246.591 284.441 246.874 284.307Z" fill="#111111"/>
<path d="M238.898 288.901L244.537 285.649C244.998 285.384 244.94 284.931 244.408 284.615L239.027 281.515C238.756 281.363 238.452 281.277 238.141 281.264C237.829 281.252 237.52 281.313 237.237 281.443L231.597 284.687C231.137 284.953 231.195 285.405 231.727 285.721L237.107 288.822C237.379 288.974 237.682 289.061 237.994 289.075C238.305 289.089 238.615 289.029 238.898 288.901Z" fill="#111111"/>
<path d="M230.928 293.494L236.568 290.244C237.027 289.977 236.97 289.526 236.438 289.21L231.058 286.108C230.785 285.957 230.48 285.871 230.168 285.859C229.855 285.846 229.544 285.907 229.259 286.038L223.621 289.282C223.16 289.547 223.218 289.999 223.751 290.315L229.13 293.416C229.403 293.569 229.707 293.656 230.02 293.67C230.332 293.683 230.643 293.623 230.928 293.494Z" fill="#111111"/>
<path d="M222.952 298.089L228.591 294.837C229.051 294.572 228.994 294.119 228.462 293.803L223.082 290.703C222.809 290.551 222.506 290.466 222.194 290.453C221.883 290.441 221.574 290.502 221.291 290.631L215.652 293.875C215.191 294.141 215.249 294.593 215.781 294.909L221.162 298.009C221.433 298.163 221.736 298.25 222.047 298.264C222.359 298.276 222.669 298.217 222.952 298.089Z" fill="#111111"/>
<path d="M214.982 302.682L220.615 299.431C221.074 299.165 221.017 298.713 220.485 298.397L215.105 295.296C214.832 295.144 214.526 295.058 214.214 295.047C213.901 295.034 213.591 295.094 213.306 295.224L207.668 298.469C207.207 298.734 207.265 299.187 207.797 299.503L213.177 302.603C213.451 302.758 213.757 302.844 214.07 302.858C214.384 302.872 214.697 302.811 214.982 302.682Z" fill="#111111"/>
<path d="M207.006 307.275L212.645 304.025C213.105 303.758 213.048 303.307 212.516 302.991L207.135 299.89C206.863 299.738 206.56 299.652 206.248 299.64C205.937 299.627 205.627 299.689 205.344 299.819L199.706 303.063C199.245 303.328 199.303 303.78 199.828 304.096L205.215 307.226C205.489 307.374 205.794 307.456 206.105 307.465C206.416 307.474 206.725 307.409 207.006 307.275Z" fill="#111111"/>
<path d="M199.038 311.87L204.669 308.618C205.13 308.353 205.072 307.9 204.547 307.584L199.159 304.484C198.888 304.333 198.584 304.247 198.273 304.234C197.961 304.222 197.652 304.283 197.369 304.412L191.729 307.656C191.27 307.922 191.327 308.374 191.859 308.69L197.239 311.791C197.511 311.944 197.816 312.031 198.128 312.045C198.442 312.059 198.753 311.999 199.038 311.87Z" fill="#111111"/>
<path d="M191.06 316.463L196.699 313.211C197.159 312.946 197.102 312.493 196.57 312.177L191.19 309.077C190.916 308.926 190.612 308.842 190.299 308.83C189.987 308.817 189.677 308.878 189.392 309.005L183.753 312.249C183.299 312.515 183.357 312.967 183.882 313.283L189.262 316.384C189.535 316.537 189.839 316.623 190.152 316.637C190.464 316.651 190.775 316.592 191.06 316.463Z" fill="#111111"/>
<path d="M183.084 321.057L188.723 317.806C189.183 317.54 189.126 317.088 188.594 316.772L183.214 313.686C182.942 313.535 182.638 313.45 182.327 313.438C182.016 313.425 181.707 313.486 181.422 313.614L175.784 316.858C175.323 317.124 175.381 317.575 175.914 317.898L181.293 320.992C181.566 321.143 181.87 321.227 182.181 321.239C182.492 321.25 182.802 321.187 183.084 321.057Z" fill="#111111"/>
<path d="M175.115 325.65L180.753 322.399C181.214 322.134 181.156 321.682 180.624 321.366L175.244 318.265C174.97 318.115 174.665 318.03 174.353 318.017C174.041 318.005 173.731 318.065 173.446 318.194L167.807 321.437C167.347 321.703 167.404 322.155 167.936 322.478L173.316 325.572C173.588 325.725 173.893 325.812 174.206 325.826C174.519 325.839 174.83 325.779 175.115 325.65Z" fill="#111111"/>
<path d="M167.138 330.245L172.776 326.993C173.237 326.728 173.179 326.275 172.646 325.959L167.267 322.859C166.995 322.709 166.691 322.624 166.38 322.612C166.069 322.599 165.76 322.66 165.476 322.787L159.837 326.031C159.377 326.297 159.434 326.749 159.967 327.072L165.346 330.194C165.62 330.343 165.924 330.425 166.236 330.434C166.547 330.442 166.856 330.378 167.138 330.245Z" fill="#111111"/>
<path d="M262.82 275.12L274.479 268.394C274.94 268.136 274.882 267.677 274.349 267.361L268.969 264.26C268.697 264.11 268.393 264.025 268.083 264.013C267.772 264 267.462 264.06 267.179 264.189L255.512 270.907C255.051 271.172 255.109 271.624 255.642 271.94L261.022 275.041C261.295 275.192 261.599 275.278 261.911 275.292C262.223 275.306 262.534 275.247 262.82 275.12Z" fill="#111111"/>
<path d="M266.538 281.888L272.177 278.637C272.637 278.371 272.58 277.919 272.047 277.604L266.646 274.502C266.374 274.353 266.07 274.268 265.759 274.255C265.448 274.243 265.139 274.303 264.856 274.431L259.216 277.682C258.756 277.948 258.813 278.4 259.346 278.716L264.726 281.817C265.001 281.97 265.308 282.057 265.623 282.07C265.938 282.082 266.252 282.02 266.538 281.888Z" fill="#111111"/>
<path d="M258.569 286.481L264.208 283.23C264.668 282.964 264.61 282.513 264.078 282.197L258.699 279.096C258.425 278.946 258.12 278.861 257.808 278.848C257.496 278.836 257.185 278.896 256.9 279.024L251.261 282.275C250.801 282.533 250.866 282.993 251.39 283.309L256.771 286.409C257.044 286.562 257.349 286.648 257.661 286.66C257.974 286.673 258.284 286.612 258.569 286.481Z" fill="#111111"/>
<path d="M250.6 291.076L256.239 287.846C256.699 287.58 256.641 287.128 256.109 286.812L250.729 283.712C250.456 283.561 250.15 283.476 249.838 283.464C249.526 283.452 249.215 283.511 248.931 283.64L243.292 286.884C242.831 287.149 242.889 287.602 243.421 287.918L248.802 291.018C249.076 291.168 249.381 291.251 249.694 291.261C250.006 291.271 250.316 291.207 250.6 291.076Z" fill="#111111"/>
<path d="M242.624 295.67L248.262 292.418C248.723 292.153 248.665 291.7 248.133 291.384L242.753 288.284C242.481 288.132 242.177 288.046 241.866 288.033C241.555 288.021 241.245 288.082 240.962 288.212L235.323 291.435C234.863 291.7 234.92 292.153 235.452 292.469L240.833 295.569C241.102 295.725 241.405 295.816 241.716 295.833C242.027 295.851 242.338 295.794 242.624 295.67Z" fill="#111111"/>
<path d="M234.654 300.263L240.293 297.011C240.754 296.746 240.696 296.294 240.164 295.978L234.783 292.87C234.51 292.718 234.205 292.632 233.893 292.62C233.581 292.607 233.27 292.669 232.986 292.799L227.347 296.042C226.886 296.309 226.944 296.76 227.476 297.076L232.841 300.184C233.117 300.338 233.424 300.425 233.739 300.439C234.054 300.453 234.367 300.392 234.654 300.263Z" fill="#111111"/>
<path d="M226.685 304.849L232.316 301.605C232.777 301.34 232.719 300.887 232.194 300.571L226.807 297.471C226.535 297.319 226.231 297.234 225.92 297.221C225.609 297.209 225.299 297.27 225.016 297.399L219.377 300.643C218.917 300.909 218.975 301.361 219.507 301.677L224.886 304.777C225.159 304.93 225.464 305.016 225.777 305.027C226.089 305.04 226.4 304.98 226.685 304.849Z" fill="#111111"/>
<path d="M218.707 309.443L224.347 306.199C224.807 305.934 224.75 305.481 224.217 305.165L218.837 302.065C218.566 301.913 218.262 301.827 217.951 301.814C217.64 301.8 217.331 301.858 217.047 301.986L211.407 305.237C210.946 305.503 211.004 305.955 211.537 306.271L216.917 309.378C217.189 309.53 217.493 309.613 217.804 309.625C218.116 309.636 218.425 309.573 218.707 309.443Z" fill="#111111"/>
<path d="M210.739 314.037L216.379 310.815C216.838 310.548 216.781 310.097 216.249 309.781L210.869 306.679C210.597 306.527 210.292 306.44 209.98 306.426C209.667 306.412 209.356 306.472 209.07 306.601L203.432 309.853C202.971 310.118 203.029 310.57 203.562 310.886L208.941 313.987C209.216 314.135 209.522 314.217 209.834 314.226C210.147 314.235 210.457 314.17 210.739 314.037Z" fill="#111111"/>
<path d="M202.763 318.631L208.387 315.386C208.848 315.121 208.79 314.669 208.258 314.353L202.878 311.252C202.606 311.1 202.303 311.013 201.992 310.999C201.681 310.985 201.37 311.045 201.087 311.173L195.441 314.403C194.98 314.669 195.038 315.121 195.57 315.437L200.951 318.538C201.223 318.696 201.53 318.788 201.846 318.804C202.161 318.821 202.475 318.761 202.763 318.631Z" fill="#111111"/>
<path d="M194.792 323.224L200.432 319.98C200.892 319.715 200.835 319.262 200.302 318.939L194.922 315.846C194.65 315.692 194.345 315.606 194.033 315.592C193.72 315.578 193.409 315.638 193.124 315.766L187.492 319.018C187.032 319.284 187.089 319.736 187.615 320.052L193.002 323.152C193.274 323.303 193.577 323.387 193.888 323.399C194.199 323.412 194.509 323.353 194.792 323.224Z" fill="#111111"/>
<path d="M186.81 327.818L192.449 324.567C192.91 324.309 192.852 323.849 192.319 323.533L186.939 320.433C186.666 320.282 186.361 320.197 186.049 320.184C185.737 320.172 185.426 320.232 185.141 320.361L179.502 323.612C179.042 323.878 179.1 324.329 179.632 324.645L185.012 327.746C185.285 327.896 185.59 327.981 185.902 327.994C186.214 328.006 186.525 327.946 186.81 327.818Z" fill="#111111"/>
<path d="M168.979 338.09L184.486 329.153C184.946 328.888 184.888 328.436 184.357 328.12L178.977 325.019C178.705 324.869 178.401 324.784 178.09 324.772C177.778 324.759 177.469 324.82 177.185 324.948L161.679 333.884C161.218 334.149 161.276 334.602 161.808 334.918L167.188 338.018C167.461 338.168 167.764 338.253 168.075 338.265C168.386 338.278 168.696 338.218 168.979 338.09Z" fill="#111111"/>
<path d="M274.515 277.295L282.204 272.867C282.664 272.6 282.607 272.149 282.074 271.833L276.716 268.731C276.443 268.58 276.139 268.494 275.826 268.48C275.514 268.467 275.203 268.526 274.918 268.653L267.229 273.089C266.769 273.354 266.827 273.807 267.358 274.123L272.738 277.223C273.009 277.369 273.31 277.452 273.619 277.465C273.927 277.477 274.233 277.419 274.515 277.295Z" fill="#111111"/>
<path d="M137.764 320.146L250.982 254.878C251.441 254.613 251.385 254.161 250.852 253.845L248.162 252.294C247.891 252.143 247.586 252.057 247.276 252.043C246.965 252.029 246.655 252.088 246.371 252.216L133.153 317.454C132.693 317.719 132.751 318.172 133.276 318.487L135.966 320.038C136.237 320.193 136.54 320.284 136.852 320.303C137.164 320.322 137.477 320.268 137.764 320.146Z" fill="#111111"/>
<path opacity="0.4" d="M21.4754 371.331C11.6438 371.331 3.67383 366.739 3.67383 361.074C3.67383 355.41 11.6438 350.817 21.4754 350.817C31.3069 350.817 39.2769 355.41 39.2769 361.074C39.2769 366.739 31.3069 371.331 21.4754 371.331Z" fill="#D6D8E5"/>
<path d="M1.93282 359.617V332.256L37.4567 333.153L37.3848 358.369C38.0465 361.404 36.3562 364.577 32.314 366.91C25.366 370.915 14.0954 370.915 7.14019 366.91C3.64463 364.871 1.91124 362.252 1.93282 359.617Z" fill="#B682FE"/>
<path d="M19.7278 342.513C9.89628 342.513 1.92627 337.92 1.92627 332.256C1.92627 326.591 9.89628 321.999 19.7278 321.999C29.5592 321.999 37.5293 326.591 37.5293 332.256C37.5293 337.92 29.5592 342.513 19.7278 342.513Z" fill="#3D117E"/>
<path d="M4.74609 332.256C4.74609 333.928 6.13424 335.679 8.55093 337.072C11.6408 338.703 15.0683 339.595 18.5629 339.678C18.9465 339.678 19.3278 339.678 19.7066 339.678C23.9142 339.678 27.9851 338.723 30.8837 337.05C33.3004 335.658 34.6886 333.907 34.6886 332.234C34.6886 330.562 33.3004 328.811 30.8837 327.418C28.0068 325.745 23.9142 324.791 19.7066 324.791C19.3254 324.791 18.9441 324.791 18.5629 324.791C15.0611 324.864 11.625 325.754 8.52935 327.389C6.13424 328.831 4.74609 330.59 4.74609 332.256Z" fill="#28221C"/>
<path opacity="0.07" d="M4.74609 332.256C4.74609 333.929 6.13424 335.679 8.55093 337.072C11.6192 338.781 15.0745 339.678 18.5881 339.678C22.1018 339.678 25.557 338.781 28.6253 337.072C31.042 335.679 32.4302 333.929 32.4302 332.256C32.4302 330.583 31.042 328.833 28.6253 327.44C25.5555 325.736 22.1008 324.842 18.5881 324.842C15.0755 324.842 11.6208 325.736 8.55093 327.44C6.13424 328.833 4.74609 330.591 4.74609 332.256Z" fill="white"/>
<path d="M4.53027 344.924L8.31355 342.771L10.1476 343.834L8.31355 344.895V345.613L4.76763 347.652L4.87552 348.305C4.35766 348.743 2.53075 352.116 2.53075 352.116L2.39409 352.001V360.809C2.39409 363.12 3.75349 362.337 4.33608 362L8.31355 359.71L10.1476 360.773L8.31355 361.835V362.553L4.33608 364.842C3.9277 365.082 3.49338 365.275 3.04143 365.417L3.27878 366.522L1.22173 365.367C0.358624 364.856 0.0061872 363.644 0.0061872 362.272V352.963C-0.0513531 349.08 2.94791 346.001 4.53027 344.924Z" fill="#DDC5FF"/>
<path d="M6.17 365.832L10.1474 363.544V360.722L6.17 363.019C5.59459 363.349 4.23521 364.132 4.23521 361.821V352.619C4.23521 350.465 6.20597 348.944 6.53683 348.707L10.1331 346.625V343.805L6.35701 345.958C4.76747 347.035 1.77539 350.099 1.77539 353.997V363.206C1.78978 365.711 2.94057 367.699 6.17 365.832Z" fill="black"/>
</g>
<defs>
<linearGradient id="paint0_linear_204_4" x1="204.567" y1="136.619" x2="4.7085" y2="136.619" gradientUnits="userSpaceOnUse">
<stop offset="0.21" stop-color="white" stop-opacity="0"/>
<stop offset="1" stop-color="white" stop-opacity="0.2"/>
</linearGradient>
<clipPath id="clip0_204_4">
<rect width="324.989" height="371.844" fill="white" transform="translate(0.00537109)"/>
</clipPath>
</defs>
</svg>
