<svg width="75" height="71" viewBox="0 0 75 71" fill="none" xmlns="http://www.w3.org/2000/svg">
<g clip-path="url(#clip0_417_91)">
<path fill-rule="evenodd" clip-rule="evenodd" d="M11.6014 58.3807C11.8448 58.6097 12.1644 58.7248 12.484 58.7248C12.8036 58.7248 13.1232 58.6097 13.3666 58.3807L18.726 53.3386L24.0854 58.3807C24.3288 58.6097 24.6484 58.7248 24.968 58.7248C25.2876 58.7248 25.6072 58.6097 25.8507 58.3807C26.3388 57.9215 26.3388 57.1792 25.8507 56.72L20.4913 51.6778L25.8507 46.6357C26.3388 46.1765 26.3388 45.4342 25.8507 44.975C25.3625 44.5158 24.5735 44.5158 24.0854 44.975L18.726 50.0171L13.3666 44.975C12.8785 44.5158 12.0895 44.5158 11.6014 44.975C11.1133 45.4342 11.1133 46.1765 11.6014 46.6357L16.9608 51.6778L11.6014 56.72C11.1133 57.1792 11.1133 57.9215 11.6014 58.3807ZM48.6877 56.3758H63.6685C64.3576 56.3758 64.9169 55.8497 64.9169 55.2013C64.9169 54.553 64.3576 54.0268 63.6685 54.0268H48.6877C47.9985 54.0268 47.4393 54.553 47.4393 55.2013C47.4393 55.8497 47.9985 56.3758 48.6877 56.3758ZM48.6877 49.3289H63.6685C64.3576 49.3289 64.9169 48.8027 64.9169 48.1544C64.9169 47.506 64.3576 46.9799 63.6685 46.9799H48.6877C47.9985 46.9799 47.4393 47.506 47.4393 48.1544C47.4393 48.8027 47.9985 49.3289 48.6877 49.3289ZM48.6877 16.443C47.9985 16.443 47.4393 16.9691 47.4393 17.6174C47.4393 18.2658 47.9985 18.7919 48.6877 18.7919H63.6685C64.3576 18.7919 64.9169 18.2658 64.9169 17.6174C64.9169 16.9691 64.3576 16.443 63.6685 16.443H48.6877ZM18.726 25.8389C19.4151 25.8389 19.9744 25.3127 19.9744 24.6644V18.7919H26.2164C26.9056 18.7919 27.4648 18.2658 27.4648 17.6174C27.4648 16.9691 26.9056 16.443 26.2164 16.443H19.9744V10.5705C19.9744 9.92215 19.4151 9.39597 18.726 9.39597C18.0369 9.39597 17.4776 9.92215 17.4776 10.5705V16.443H11.2356C10.5465 16.443 9.98721 16.9691 9.98721 17.6174C9.98721 18.2658 10.5465 18.7919 11.2356 18.7919H17.4776V24.6644C17.4776 25.3127 18.0369 25.8389 18.726 25.8389ZM74.9041 5.87248V64.5973C74.9041 67.6158 71.8705 70.4698 68.6621 70.4698H6.24201C3.03362 70.4698 0 67.6158 0 64.5973V5.87248C0 2.85403 3.03362 0 6.24201 0H31.21C31.8992 0 32.4584 0.526174 32.4584 1.1745C32.4584 1.82282 31.8992 2.34899 31.21 2.34899H6.24201C4.42184 2.34899 2.4968 4.16007 2.4968 5.87248V64.5973C2.4968 66.3097 4.42184 68.1208 6.24201 68.1208H68.6621C70.4823 68.1208 72.4073 66.3097 72.4073 64.5973V5.87248C72.4073 4.16007 70.4823 2.34899 68.6621 2.34899H38.7004V32.8859H68.6621C69.3512 32.8859 69.9105 33.4121 69.9105 34.0604C69.9105 34.7087 69.3512 35.2349 68.6621 35.2349H38.7004V64.5973C38.7004 65.2456 38.1412 65.7718 37.452 65.7718C36.7629 65.7718 36.2036 65.2456 36.2036 64.5973V35.2349H6.24201C5.55289 35.2349 4.99361 34.7087 4.99361 34.0604C4.99361 33.4121 5.55289 32.8859 6.24201 32.8859H36.2036V1.1745C36.2036 0.526174 36.7629 0 37.452 0H68.6621C71.8705 0 74.9041 2.85403 74.9041 5.87248Z" fill="white"/>
</g>
<defs>
<clipPath id="clip0_417_91">
<rect width="74.9041" height="70.4698" fill="white"/>
</clipPath>
</defs>
</svg>
