<svg width="120" height="120" viewBox="0 0 120 120" fill="none" xmlns="http://www.w3.org/2000/svg">
<path d="M107.3 19.2H12.6002C9.9002 19.2 7.7002 21.4 7.7002 24.1V74.1999C8.6002 72.8999 9.7002 71.8 11.0002 70.8V24.1C11.0002 23.2 11.7002 22.5 12.6002 22.5H107.3C108.2 22.5 108.9 23.2 108.9 24.1V84.5C108.9 85.4 108.2 86.0999 107.3 86.0999H59.9002V89.3999H107.3C110 89.3999 112.2 87.2 112.2 84.5V24.1C112.2 21.4 110 19.2 107.3 19.2Z" fill="#3D117E"/>
<path d="M45.2 53.4999C45.2 46.2999 39.4 40.3999 32.1 40.3999C24.8 40.3999 19 46.1999 19 53.4999C19 60.7999 24.8 66.5999 32.1 66.5999C39.4 66.5999 45.2 60.6999 45.2 53.4999ZM22.4 53.4999C22.4 48.0999 26.8 43.6999 32.2 43.6999C37.6 43.6999 42 48.0999 42 53.4999C42 58.8999 37.6 63.2999 32.2 63.2999C26.8 63.2999 22.4 58.8999 22.4 53.4999Z" fill="#3D117E"/>
<path d="M68.1001 29.8C67.2001 29.8 66.5001 30.5 66.5001 31.4V33H64.8001C63.9001 33.1 63.2001 33.9 63.3001 34.8C63.4001 35.6 64.0001 36.2 64.8001 36.3H66.4001V38C66.5001 38.9 67.3001 39.6 68.2001 39.5C69.0001 39.4 69.6001 38.8 69.7001 38V36.4001H71.3001C72.2001 36.5001 73.0001 35.8001 73.1001 34.9001C73.2001 34.0001 72.5001 33.2 71.6001 33.1C71.5001 33.1 71.4001 33.1 71.3001 33.1H69.7001V31.5C69.7001 30.6 69.0001 29.8 68.1001 29.8Z" fill="#3D117E"/>
<path d="M91.0001 68.9999V69.7999H90.2001C89.3001 69.7999 88.6001 70.4999 88.6001 71.3999C88.6001 72.2999 89.3001 72.9999 90.2001 72.9999H91.0001V73.7999C91.0001 74.6999 91.7001 75.3999 92.6001 75.3999C93.5001 75.3999 94.2001 74.6999 94.2001 73.7999V72.9999H95.0001C95.9001 72.9999 96.6001 72.2999 96.6001 71.3999C96.6001 70.4999 95.9001 69.7999 95.0001 69.7999H94.2001V68.9999C94.2001 68.0999 93.5001 67.3999 92.6001 67.3999C91.7001 67.3999 91.0001 68.0999 91.0001 68.9999Z" fill="#3D117E"/>
<path d="M86 33.8999H89.3C90.2 33.9999 91 33.2999 91.1 32.3999C91.2 31.4999 90.5 30.6999 89.6 30.5999C89.5 30.5999 89.4 30.5999 89.3 30.5999H86C85.1 30.6999 84.4 31.4999 84.5 32.3999C84.6 33.1999 85.2 33.7999 86 33.8999Z" fill="#3D117E"/>
<path d="M86.0001 38.7999H89.3001C90.2001 38.7999 90.9001 38.0999 90.9001 37.1999C90.9001 36.2999 90.2001 35.5999 89.3001 35.5999H86.0001C85.1001 35.5999 84.4001 36.2999 84.4001 37.1999C84.4001 38.0999 85.2001 38.7999 86.0001 38.7999Z" fill="#3D117E"/>
<path d="M64.6 59.3999C64.9 59.6999 65.3 59.8999 65.8 59.8999C66.2 59.8999 66.6 59.6999 67 59.3999L68.2 58.1999L69.4 59.3999C70 59.9999 71.1 59.9999 71.7 59.3999C72.3 58.7999 72.3 57.6999 71.7 57.0999L70.4 55.9999L71.6 54.7999C72.2 54.1999 72.2 53.0999 71.6 52.4999C71 51.8999 70 51.8999 69.3 52.4999L68.1 53.6999L66.9 52.4999C66.3 51.8999 65.2 51.7999 64.6 52.4999C64 53.0999 63.9 54.1999 64.6 54.7999L65.8 55.9999L64.6 57.0999C64 57.6999 64 58.7999 64.6 59.3999Z" fill="#3D117E"/>
<path d="M91.8 50.2H88.5C87.6 50.1 86.8 50.8 86.7 51.7C86.6 52.6 87.3 53.4 88.2 53.5C88.3 53.5 88.4 53.5 88.5 53.5H91.8C92.7 53.6 93.5 52.9 93.6 52C93.7 51.1 93 50.3 92.1 50.2C92 50.2 91.9 50.2 91.8 50.2Z" fill="#3D117E"/>
<path d="M93.4 56.8C93.4 55.9 92.7 55.2 91.8 55.2H88.5C87.6 55.1 86.8 55.8 86.7 56.7C86.6 57.6 87.3 58.4 88.2 58.5C88.3 58.5 88.4 58.5 88.5 58.5H91.8C92.7 58.4 93.4 57.7 93.4 56.8Z" fill="#3D117E"/>
<path d="M83.6 67.3999H77.1C76.2 67.3999 75.5 68.0999 75.5 68.9999C75.5 69.8999 76.2 70.5999 77.1 70.5999H83.6C84.5 70.5999 85.2 69.8999 85.2 68.9999C85.2 68.0999 84.5 67.3999 83.6 67.3999Z" fill="#3D117E"/>
<path d="M83.6 72.3H77.1C76.2 72.3 75.5 73 75.5 73.9C75.5 74.8 76.2 75.5 77.1 75.5H83.6C84.5 75.5 85.2 74.8 85.2 73.9C85.2 73 84.5 72.3 83.6 72.3Z" fill="#3D117E"/>
<path d="M71.7 67.9C71.1 67.3 70.0001 67.3 69.4001 67.9L68.1 69.1999L66.8001 67.9C66.2001 67.3 65.1 67.3 64.5 67.9C63.9 68.5 63.9 69.5999 64.5 70.1999L65.8001 71.4999L64.5 72.8C63.9 73.4 63.9 74.4999 64.5 75.0999C64.8 75.3999 65.2 75.5999 65.7 75.5999C66.1 75.5999 66.5001 75.3999 66.8001 75.0999L68.1 73.8L69.4001 75.0999C70.0001 75.6999 71.1 75.6999 71.7 75.0999C72.3 74.4999 72.3 73.4 71.7 72.8L70.4001 71.4999L71.7 70.1999C72.3 69.4999 72.3 68.5 71.7 67.9Z" fill="#3D117E"/>
<path d="M58.3 42.0999C59.2 42.0999 59.9 41.3999 59.9 40.4999V28.9999C59.9 28.3999 59.5 27.7999 58.9 27.4999C58.3 27.1999 57.6 27.2999 57.1 27.6999L53.8 30.4999C53.1 31.0999 53 32.0999 53.6 32.7999C54.2 33.4999 55.2 33.5999 55.9 32.9999L56.5 32.4999V40.3999C56.7 41.2999 57.4 42.0999 58.3 42.0999Z" fill="#3D117E"/>
<path d="M79.5001 42.0999C80.4001 42.0999 81.1001 41.3999 81.1001 40.4999V28.9999C81.1001 28.3999 80.7001 27.7999 80.2001 27.4999C79.6001 27.1999 78.9001 27.2999 78.4001 27.6999L75.1001 30.4999C74.4001 31.0999 74.3001 32.0999 74.9001 32.7999C75.5001 33.4999 76.5001 33.5999 77.2001 32.9999L77.8001 32.4999V40.3999C77.9001 41.2999 78.6001 42.0999 79.5001 42.0999Z" fill="#3D117E"/>
<path d="M101.2 28.6998C100.1 27.4998 98.4 26.9998 96.8 27.4998C95.1 27.8998 93.8 29.1998 93.4 30.8998C93.2 31.7998 93.7 32.6998 94.6 32.8998C95.5 33.0998 96.4 32.5998 96.6 31.6998C96.7 31.1998 97.1 30.7998 97.6 30.6998C98 30.4998 98.5 30.6998 98.8 30.9998C99 31.1998 99.2 31.8998 98.1 33.9998L94.6 39.6998C94.1 40.4998 94.4 41.4998 95.1 41.8998C95.4 42.0998 95.7 42.0998 96 42.0998H102.4C103.3 41.9998 104 41.1998 103.9 40.2998C103.8 39.4998 103.2 38.8998 102.4 38.7998H98.9L100.9 35.5998C101.5 34.4998 103.4 31.0998 101.2 28.6998Z" fill="#3D117E"/>
<path d="M59.9 48.6C59.9 48 59.5 47.4 58.9 47.1C58.3 46.8 57.6 46.9 57.1 47.3L53.8 50.1C53.1 50.7 53 51.7 53.6 52.4C54.2 53.1 55.2 53.2 55.9 52.6L56.5 52.1V60C56.5 60.9 57.2 61.6 58.1 61.6C59 61.6 59.7 60.9 59.7 60V48.6H59.9Z" fill="#3D117E"/>
<path d="M75.9 52.5C76.8 52.7 77.7 52.2 77.9 51.3C78 50.8 78.4 50.4 78.9 50.3C79.3 50.2 79.8 50.3 80.1 50.6C80.3 50.8 80.5 51.5 79.4 53.6L75.8 59.2C75.3 60 75.6 61 76.3 61.4C76.6 61.6 76.9 61.6 77.2 61.6H83.6C84.5 61.6 85.2 60.9 85.2 60C85.2 59.1 84.5 58.4 83.6 58.4H80.1L82.1 55.2C82.7 54.1 84.6 50.7 82.4 48.3C81.3 47.1 79.6 46.7 78.1 47.1C76.4 47.5 75.1 48.8 74.7 50.5C74.5 51.4 75 52.3 75.9 52.5Z" fill="#3D117E"/>
<path d="M114.4 97.6H56.6001V86C56.7001 81.2 55.4001 77.2 52.8001 74.3C50.2001 71.4 46.5001 69.9 41.9001 69.8H24.7001C14.7001 69.6 7.80007 75.6 7.70007 84.7V97.5H5.50007C4.60007 97.4 3.80007 98 3.70007 98.9C3.60007 99.8 4.20007 100.6 5.10007 100.7C5.20007 100.7 5.30007 100.7 5.50007 100.7H114.4C115.3 100.8 116.1 100.2 116.3 99.3C116.4 98.4 115.8 97.6 114.9 97.4C114.7 97.6 114.6 97.6 114.4 97.6ZM10.9001 84.8C11.1001 76 18.1001 73 24.7001 73.1H42.0001C45.7001 73.2 48.5001 74.3 50.5001 76.5C52.5001 78.7 53.5001 81.9 53.4001 86V97.6H46.9001V94.3C46.9001 93.4 46.2001 92.7 45.3001 92.7C44.4001 92.7 43.7001 93.4 43.7001 94.3V97.6H20.7001V94.3C20.6001 93.4 19.8001 92.7 18.9001 92.8C18.1001 92.9 17.5001 93.5 17.4001 94.3V97.6H10.9001V84.8Z" fill="#3D117E"/>
</svg>
